0
SECTION
2
HEADER
9
$ACADVER
1
AC1015
9
$HANDSEED
5
FFFF
9
$LTSCALE
40
1.0000000000
0
ENDSEC
0
SECTION
2
TABLES
0
TABLE
2
VPORT
5
1
100
AcDbSymbolTable
70
1
0
VPORT
5
2
100
AcDbSymbolTableRecord
100
AcDbViewportTableRecord
2
*ACTIVE
70
0
10
0.0000000000
20
0.0000000000
11
1.0000000000
21
1.0000000000
12
0.0000000000
22
0.0000000000
13
0.0000000000
23
0.0000000000
14
10.0000000000
24
10.0000000000
15
10.0000000000
25
10.0000000000
16
0.0000000000
26
0.0000000000
36
1.0000000000
17
0.0000000000
27
0.0000000000
37
0.0000000000
40
1000.0000000000
41
1.0000000000
42
50.0000000000
43
0.0000000000
44
0.0000000000
50
0.0000000000
51
0.0000000000
71
0
72
100
73
1
74
3
75
0
76
1
77
0
78
0
0
ENDTAB
0
TABLE
2
LTYPE
5
3
100
AcDbSymbolTable
70
4
0
LTYPE
5
4
100
AcDbSymbolTableRecord
100
AcDbLinetypeTableRecord
2
CONTINUOUS
70
0
3
Solid line
72
65
73
0
40
0.0000000000
0
LTYPE
5
5
100
AcDbSymbolTableRecord
100
AcDbLinetypeTableRecord
2
DASHED
70
0
3
Dashed __ __ __ __
72
65
73
2
40
11.0000000000
49
8.0000000000
74
0
49
-3.0000000000
74
0
0
LTYPE
5
6
100
AcDbSymbolTableRecord
100
AcDbLinetypeTableRecord
2
DASHDOT
70
0
3
Dash dot __ . __ . __
72
65
73
4
40
11.0000000000
49
8.0000000000
74
0
49
-1.5000000000
74
0
49
0.0000000000
74
0
49
-1.5000000000
74
0
0
LTYPE
5
7
100
AcDbSymbolTableRecord
100
AcDbLinetypeTableRecord
2
DIVIDE
70
0
3
Dash dot dot __ . . __ . . __
72
65
73
6
40
12.5000000000
49
8.0000000000
74
0
49
-1.5000000000
74
0
49
0.0000000000
74
0
49
-1.5000000000
74
0
49
0.0000000000
74
0
49
-1.5000000000
74
0
0
ENDTAB
0
TABLE
2
LAYER
5
8
100
AcDbSymbolTable
70
9
0
LAYER
5
9
100
AcDbSymbolTableRecord
100
AcDbLayerTableRecord
2
8
70
0
62
7
6
CONTINUOUS
370
25
0
LAYER
5
A
100
AcDbSymbolTableRecord
100
AcDbLayerTableRecord
2
4
70
0
62
7
6
CONTINUOUS
370
25
0
LAYER
5
B
100
AcDbSymbolTableRecord
100
AcDbLayerTableRecord
2
3
70
0
62
7
6
CONTINUOUS
370
25
0
LAYER
5
C
100
AcDbSymbolTableRecord
100
AcDbLayerTableRecord
2
2
70
0
62
7
6
CONTINUOUS
370
25
0
LAYER
5
D
100
AcDbSymbolTableRecord
100
AcDbLayerTableRecord
2
0
70
0
62
7
6
CONTINUOUS
370
25
0
LAYER
5
E
100
AcDbSymbolTableRecord
100
AcDbLayerTableRecord
2
6
70
0
62
7
6
CONTINUOUS
370
25
0
LAYER
5
F
100
AcDbSymbolTableRecord
100
AcDbLayerTableRecord
2
5
70
0
62
7
6
CONTINUOUS
370
25
0
LAYER
5
10
100
AcDbSymbolTableRecord
100
AcDbLayerTableRecord
2
1
70
0
62
7
6
CONTINUOUS
370
25
0
LAYER
5
11
100
AcDbSymbolTableRecord
100
AcDbLayerTableRecord
2
7
70
0
62
7
6
CONTINUOUS
370
25
0
ENDTAB
0
TABLE
2
STYLE
5
12
100
AcDbSymbolTable
70
1
0
STYLE
5
13
100
AcDbSymbolTableRecord
100
AcDbTextStyleTableRecord
2
STANDARD
70
0
40
0.0000000000
41
1.0000000000
50
0.0000000000
71
0
42
2.5000000000
3
txt
4

0
ENDTAB
0
TABLE
2
APPID
5
14
100
AcDbSymbolTable
70
1
0
APPID
5
15
100
AcDbSymbolTableRecord
100
AcDbRegAppTableRecord
2
ACAD
70
0
0
ENDTAB
0
TABLE
2
DIMSTYLE
5
16
100
AcDbSymbolTable
70
1
100
AcDbDimStyleTable
0
DIMSTYLE
5
17
100
AcDbSymbolTableRecord
100
AcDbDimStyleTableRecord
2
STANDARD
70
0
0
ENDTAB
0
TABLE
2
BLOCK_RECORD
5
18
100
AcDbSymbolTable
70
2
0
BLOCK_RECORD
5
19
100
AcDbSymbolTableRecord
100
AcDbBlockTableRecord
2
*Model_Space
0
BLOCK_RECORD
5
1A
100
AcDbSymbolTableRecord
100
AcDbBlockTableRecord
2
*Paper_Space
0
ENDTAB
0
ENDSEC
0
SECTION
2
BLOCKS
0
BLOCK
5
1B
100
AcDbEntity
8
0
100
AcDbBlockBegin
2
*Model_Space
70
0
10
0.0000000000
20
0.0000000000
30
0.0000000000
3
*Model_Space
1

0
ENDBLK
5
1C
100
AcDbEntity
8
0
100
AcDbBlockEnd
0
BLOCK
5
1D
100
AcDbEntity
8
0
100
AcDbBlockBegin
2
*Paper_Space
70
0
10
0.0000000000
20
0.0000000000
30
0.0000000000
3
*Paper_Space
1

0
ENDBLK
5
1E
100
AcDbEntity
8
0
100
AcDbBlockEnd
0
ENDSEC
0
SECTION
2
ENTITIES
0
LINE
5
1F
100
AcDbEntity
8
1
6
CONTINUOUS
62
6
420
16711926
370
120
100
AcDbLine
10
138.6400000000
20
792.2900000000
30
0.0000000000
11
792.7200000000
21
918.9200000000
31
0.0000000000
999
UNIVERSITYCAD_LTYPE:0
0
CIRCLE
5
20
100
AcDbEntity
8
2
6
CONTINUOUS
62
200
420
6488305
370
30
100
AcDbCircle
10
963.5700000000
20
939.2200000000
30
0.0000000000
40
74.1600000000
999
UNIVERSITYCAD_LTYPE:1
0
POLYLINE
5
21
100
AcDbEntity
8
3
6
CONTINUOUS
62
1
420
15400978
370
30
100
AcDb2dPolyline
66
1
70
0
10
0.0000000000
20
0.0000000000
30
0.0000000000
999
UNIVERSITYCAD_LTYPE:2
999
UNIVERSITYCAD_ORIG:Arc|174.86|606.92|199.07|38.25|-53.43
0
VERTEX
5
22
100
AcDbEntity
8
3
100
AcDbVertex
100
AcDb2dVertex
10
331.1930414304
20
730.1630324891
30
0.0000000000
0
VERTEX
5
23
100
AcDbEntity
8
3
100
AcDbVertex
100
AcDb2dVertex
10
331.6710248094
20
730.0615446040
30
0.0000000000
0
VERTEX
5
24
100
AcDbEntity
8
3
100
AcDbVertex
100
AcDb2dVertex
10
332.1431105273
20
729.9539448559
30
0.0000000000
0
VERTEX
5
25
100
AcDbEntity
8
3
100
AcDbVertex
100
AcDb2dVertex
10
332.6033398534
20
729.8356470136
30
0.0000000000
0
VERTEX
5
26
100
AcDbEntity
8
3
100
AcDbVertex
100
AcDb2dVertex
10
333.0460155349
20
729.7023395085
30
0.0000000000
0
VERTEX
5
27
100
AcDbEntity
8
3
100
AcDbVertex
100
AcDb2dVertex
10
333.4658432952
20
729.5500903735
30
0.0000000000
0
VERTEX
5
28
100
AcDbEntity
8
3
100
AcDbVertex
100
AcDb2dVertex
10
333.8580637866
20
729.3754423210
30
0.0000000000
0
VERTEX
5
29
100
AcDbEntity
8
3
100
AcDbVertex
100
AcDb2dVertex
10
334.2185717057
20
729.1754956586
30
0.0000000000
0
VERTEX
5
2A
100
AcDbEntity
8
3
100
AcDbVertex
100
AcDb2dVertex
10
334.5440190913
20
728.9479770571
30
0.0000000000
0
VERTEX
5
2B
100
AcDbEntity
8
3
100
AcDbVertex
100
AcDb2dVertex
10
334.8319002018
20
728.6912925399
30
0.0000000000
0
VERTEX
5
2C
100
AcDbEntity
8
3
100
AcDbVertex
100
AcDb2dVertex
10
335.0806158230
20
728.4045634636
30
0.0000000000
0
VERTEX
5
2D
100
AcDbEntity
8
3
100
AcDbVertex
100
AcDb2dVertex
10
335.2895153561
20
728.0876446845
30
0.0000000000
0
VERTEX
5
2E
100
AcDbEntity
8
3
100
AcDbVertex
100
AcDb2dVertex
10
335.4589155807
20
727.7411245494
30
0.0000000000
0
VERTEX
5
2F
100
AcDbEntity
8
3
100
AcDbVertex
100
AcDb2dVertex
10
335.5900955650
20
727.3663067987
30
0.0000000000
0
VERTEX
5
30
100
AcDbEntity
8
3
100
AcDbVertex
100
AcDb2dVertex
10
335.6852677794
20
726.9651749194
30
0.0000000000
0
VERTEX
5
31
100
AcDbEntity
8
3
100
AcDbVertex
100
AcDb2dVertex
10
335.7475260605
20
726.5403399114
30
0.0000000000
0
VERTEX
5
32
100
AcDbEntity
8
3
100
AcDbVertex
100
AcDb2dVertex
10
335.7807716483
20
726.0949728417
30
0.0000000000
0
VERTEX
5
33
100
AcDbEntity
8
3
100
AcDbVertex
100
AcDb2dVertex
10
335.7896190622
20
725.6327239220
30
0.0000000000
0
VERTEX
5
34
100
AcDbEntity
8
3
100
AcDbVertex
100
AcDb2dVertex
10
335.7792840879
20
725.1576301790
30
0.0000000000
0
VERTEX
5
35
100
AcDbEntity
8
3
100
AcDbVertex
100
AcDb2dVertex
10
335.7554565936
20
724.6740140489
30
0.0000000000
0
VERTEX
5
36
100
AcDbEntity
8
3
100
AcDbVertex
100
AcDb2dVertex
10
335.7241612788
20
724.1863754466
30
0.0000000000
0
VERTEX
5
37
100
AcDbEntity
8
3
100
AcDbVertex
100
AcDb2dVertex
10
335.6916097639
20
723.6992800064
30
0.0000000000
0
VERTEX
5
38
100
AcDbEntity
8
3
100
AcDbVertex
100
AcDb2dVertex
10
335.6640476552
20
723.2172462703
30
0.0000000000
0
VERTEX
5
39
100
AcDbEntity
8
3
100
AcDbVertex
100
AcDb2dVertex
10
335.6476003504
20
722.7446346152
30
0.0000000000
0
VERTEX
5
3A
100
AcDbEntity
8
3
100
AcDbVertex
100
AcDb2dVertex
10
335.6481213941
20
722.2855406508
30
0.0000000000
0
VERTEX
5
3B
100
AcDbEntity
8
3
100
AcDbVertex
100
AcDb2dVertex
10
335.6710471399
20
721.8436956957
30
0.0000000000
0
VERTEX
5
3C
100
AcDbEntity
8
3
100
AcDbVertex
100
AcDb2dVertex
10
335.7212613269
20
721.4223767541
30
0.0000000000
0
VERTEX
5
3D
100
AcDbEntity
8
3
100
AcDbVertex
100
AcDb2dVertex
10
335.8029729470
20
721.0243281628
30
0.0000000000
0
VERTEX
5
3E
100
AcDbEntity
8
3
100
AcDbVertex
100
AcDb2dVertex
10
335.9196104570
20
720.6516967851
30
0.0000000000
0
VERTEX
5
3F
100
AcDbEntity
8
3
100
AcDbVertex
100
AcDb2dVertex
10
336.0737349948
20
720.3059822785
30
0.0000000000
0
VERTEX
5
40
100
AcDbEntity
8
3
100
AcDbVertex
100
AcDb2dVertex
10
336.2669747942
20
719.9880035862
30
0.0000000000
0
VERTEX
5
41
100
AcDbEntity
8
3
100
AcDbVertex
100
AcDb2dVertex
10
336.4999824778
20
719.6978823944
30
0.0000000000
0
VERTEX
5
42
100
AcDbEntity
8
3
100
AcDbVertex
100
AcDb2dVertex
10
336.7724163423
20
719.4350438735
30
0.0000000000
0
VERTEX
5
43
100
AcDbEntity
8
3
100
AcDbVertex
100
AcDb2dVertex
10
337.0829461636
20
719.1982345954
30
0.0000000000
0
VERTEX
5
44
100
AcDbEntity
8
3
100
AcDbVertex
100
AcDb2dVertex
10
337.4292834403
20
718.9855570909
30
0.0000000000
0
VERTEX
5
45
100
AcDbEntity
8
3
100
AcDbVertex
100
AcDb2dVertex
10
337.8082353946
20
718.7945201084
30
0.0000000000
0
VERTEX
5
46
100
AcDbEntity
8
3
100
AcDbVertex
100
AcDb2dVertex
10
338.2157814544
20
718.6221032465
30
0.0000000000
0
VERTEX
5
47
100
AcDbEntity
8
3
100
AcDbVertex
100
AcDb2dVertex
10
338.6471703878
20
718.4648342898
30
0.0000000000
0
VERTEX
5
48
100
AcDbEntity
8
3
100
AcDbVertex
100
AcDb2dVertex
10
339.0970357393
20
718.3188772694
30
0.0000000000
0
VERTEX
5
49
100
AcDbEntity
8
3
100
AcDbVertex
100
AcDb2dVertex
10
339.5595267629
20
718.1801290160
30
0.0000000000
0
VERTEX
5
4A
100
AcDbEntity
8
3
100
AcDbVertex
100
AcDb2dVertex
10
340.0284516563
20
718.0443217757
30
0.0000000000
0
VERTEX
5
4B
100
AcDbEntity
8
3
100
AcDbVertex
100
AcDb2dVertex
10
340.4974295851
20
717.9071293228
30
0.0000000000
0
VERTEX
5
4C
100
AcDbEntity
8
3
100
AcDbVertex
100
AcDb2dVertex
10
340.9600477638
20
717.7642739295
30
0.0000000000
0
VERTEX
5
4D
100
AcDbEntity
8
3
100
AcDbVertex
100
AcDb2dVertex
10
341.4100197235
20
717.6116315480
30
0.0000000000
0
VERTEX
5
4E
100
AcDbEntity
8
3
100
AcDbVertex
100
AcDb2dVertex
10
341.8413408564
20
717.4453326166
30
0.0000000000
0
VERTEX
5
4F
100
AcDbEntity
8
3
100
AcDbVertex
100
AcDb2dVertex
10
342.2484373880
20
717.2618560262
30
0.0000000000
0
VERTEX
5
50
100
AcDbEntity
8
3
100
AcDbVertex
100
AcDb2dVertex
10
342.6263050770
20
717.0581139650
30
0.0000000000
0
VERTEX
5
51
100
AcDbEntity
8
3
100
AcDbVertex
100
AcDb2dVertex
10
342.9706341899
20
716.8315255971
30
0.0000000000
0
VERTEX
5
52
100
AcDbEntity
8
3
100
AcDbVertex
100
AcDb2dVertex
10
343.2779176283
20
716.5800778180
30
0.0000000000
0
VERTEX
5
53
100
AcDbEntity
8
3
100
AcDbVertex
100
AcDb2dVertex
10
343.5455394942
20
716.3023716609
30
0.0000000000
0
VERTEX
5
54
100
AcDbEntity
8
3
100
AcDbVertex
100
AcDb2dVertex
10
343.7718418568
20
715.9976532877
30
0.0000000000
0
VERTEX
5
55
100
AcDbEntity
8
3
100
AcDbVertex
100
AcDb2dVertex
10
343.9561680172
20
715.6658288877
30
0.0000000000
0
VERTEX
5
56
100
AcDbEntity
8
3
100
AcDbVertex
100
AcDb2dVertex
10
344.0988811448
20
715.3074632073
30
0.0000000000
0
VERTEX
5
57
100
AcDbEntity
8
3
100
AcDbVertex
100
AcDb2dVertex
10
344.2013577653
20
714.9237618416
30
0.0000000000
0
VERTEX
5
58
100
AcDbEntity
8
3
100
AcDbVertex
100
AcDb2dVertex
10
344.2659561998
20
714.5165378170
30
0.0000000000
0
VERTEX
5
59
100
AcDbEntity
8
3
100
AcDbVertex
100
AcDb2dVertex
10
344.2959606748
20
714.0881633822
30
0.0000000000
0
VERTEX
5
5A
100
AcDbEntity
8
3
100
AcDbVertex
100
AcDb2dVertex
10
344.2955024268
20
713.6415082829
30
0.0000000000
0
VERTEX
5
5B
100
AcDbEntity
8
3
100
AcDbVertex
100
AcDb2dVertex
10
344.2694596950
20
713.1798661238
30
0.0000000000
0
VERTEX
5
5C
100
AcDbEntity
8
3
100
AcDbVertex
100
AcDb2dVertex
10
344.2233390244
20
712.7068707050
30
0.0000000000
0
VERTEX
5
5D
100
AcDbEntity
8
3
100
AcDbVertex
100
AcDb2dVertex
10
344.1631407679
20
712.2264044600
30
0.0000000000
0
VERTEX
5
5E
100
AcDbEntity
8
3
100
AcDbVertex
100
AcDb2dVertex
10
344.0952120730
20
711.7425013002
30
0.0000000000
0
VERTEX
5
5F
100
AcDbEntity
8
3
100
AcDbVertex
100
AcDb2dVertex
10
344.0260909581
20
711.2592463020
30
0.0000000000
0
VERTEX
5
60
100
AcDbEntity
8
3
100
AcDbVertex
100
AcDb2dVertex
10
343.9623453092
20
710.7806747293
30
0.0000000000
0
VERTEX
5
61
100
AcDbEntity
8
3
100
AcDbVertex
100
AcDb2dVertex
10
343.9104107643
20
710.3106728932
30
0.0000000000
0
VERTEX
5
62
100
AcDbEntity
8
3
100
AcDbVertex
100
AcDb2dVertex
10
343.8764314890
20
709.8528832830
30
0.0000000000
0
VERTEX
5
63
100
AcDbEntity
8
3
100
AcDbVertex
100
AcDb2dVertex
10
343.8661077841
20
709.4106162895
30
0.0000000000
0
VERTEX
5
64
100
AcDbEntity
8
3
100
AcDbVertex
100
AcDb2dVertex
10
343.8845543062
20
708.9867706592
30
0.0000000000
0
VERTEX
5
65
100
AcDbEntity
8
3
100
AcDbVertex
100
AcDb2dVertex
10
343.9361724297
20
708.5837645922
30
0.0000000000
0
VERTEX
5
66
100
AcDbEntity
8
3
100
AcDbVertex
100
AcDb2dVertex
10
344.0245399354
20
708.2034791209
30
0.0000000000
0
VERTEX
5
67
100
AcDbEntity
8
3
100
AcDbVertex
100
AcDb2dVertex
10
344.1523207919
20
707.8472150946
30
0.0000000000
0
VERTEX
5
68
100
AcDbEntity
8
3
100
AcDbVertex
100
AcDb2dVertex
10
344.3211973028
20
707.5156647460
30
0.0000000000
0
VERTEX
5
69
100
AcDbEntity
8
3
100
AcDbVertex
100
AcDb2dVertex
10
344.5318263475
20
707.2088984565
30
0.0000000000
0
VERTEX
5
6A
100
AcDbEntity
8
3
100
AcDbVertex
100
AcDb2dVertex
10
344.7838208516
20
706.9263669488
30
0.0000000000
0
VERTEX
5
6B
100
AcDbEntity
8
3
100
AcDbVertex
100
AcDb2dVertex
10
345.0757569988
20
706.6669187608
30
0.0000000000
0
VERTEX
5
6C
100
AcDbEntity
8
3
100
AcDbVertex
100
AcDb2dVertex
10
345.4052070657
20
706.4288324706
30
0.0000000000
0
VERTEX
5
6D
100
AcDbEntity
8
3
100
AcDbVertex
100
AcDb2dVertex
10
345.7687971231
20
706.2098627863
30
0.0000000000
0
VERTEX
5
6E
100
AcDbEntity
8
3
100
AcDbVertex
100
AcDb2dVertex
10
346.1622882343
20
706.0072992730
30
0.0000000000
0
VERTEX
5
6F
100
AcDbEntity
8
3
100
AcDbVertex
100
AcDb2dVertex
10
346.5806791943
20
705.8180361870
30
0.0000000000
0
VERTEX
5
70
100
AcDbEntity
8
3
100
AcDbVertex
100
AcDb2dVertex
10
347.0183283201
20
705.6386516205
30
0.0000000000
0
VERTEX
5
71
100
AcDbEntity
8
3
100
AcDbVertex
100
AcDb2dVertex
10
347.4690913234
20
705.4654939433
30
0.0000000000
0
VERTEX
5
72
100
AcDbEntity
8
3
100
AcDbVertex
100
AcDb2dVertex
10
347.9264718947
20
705.2947733561
30
0.0000000000
0
VERTEX
5
73
100
AcDbEntity
8
3
100
AcDbVertex
100
AcDb2dVertex
10
348.3837813051
20
705.1226562628
30
0.0000000000
0
VERTEX
5
74
100
AcDbEntity
8
3
100
AcDbVertex
100
AcDb2dVertex
10
348.8343031040
20
704.9453601099
30
0.0000000000
0
VERTEX
5
75
100
AcDbEntity
8
3
100
AcDbVertex
100
AcDb2dVertex
10
349.2714588514
20
704.7592463468
30
0.0000000000
0
VERTEX
5
76
100
AcDbEntity
8
3
100
AcDbVertex
100
AcDb2dVertex
10
349.6889707962
20
704.5609092213
30
0.0000000000
0
VERTEX
5
77
100
AcDbEntity
8
3
100
AcDbVertex
100
AcDb2dVertex
10
350.0810174718
20
704.3472582433
30
0.0000000000
0
VERTEX
5
78
100
AcDbEntity
8
3
100
AcDbVertex
100
AcDb2dVertex
10
350.4423783521
20
704.1155923203
30
0.0000000000
0
VERTEX
5
79
100
AcDbEntity
8
3
100
AcDbVertex
100
AcDb2dVertex
10
350.7685639709
20
703.8636637867
30
0.0000000000
0
VERTEX
5
7A
100
AcDbEntity
8
3
100
AcDbVertex
100
AcDb2dVertex
10
351.0559282587
20
703.5897308118
30
0.0000000000
0
VERTEX
5
7B
100
AcDbEntity
8
3
100
AcDbVertex
100
AcDb2dVertex
10
351.3017602863
20
703.2925969674
30
0.0000000000
0
VERTEX
5
7C
100
AcDbEntity
8
3
100
AcDbVertex
100
AcDb2dVertex
10
351.5043531051
20
702.9716370639
30
0.0000000000
0
VERTEX
5
7D
100
AcDbEntity
8
3
100
AcDbVertex
100
AcDb2dVertex
10
351.6630479359
20
702.6268087069
30
0.0000000000
0
VERTEX
5
7E
100
AcDbEntity
8
3
100
AcDbVertex
100
AcDb2dVertex
10
351.7782525655
20
702.2586493864
30
0.0000000000
0
VERTEX
5
7F
100
AcDbEntity
8
3
100
AcDbVertex
100
AcDb2dVertex
10
351.8514334421
20
701.8682592669
30
0.0000000000
0
VERTEX
5
80
100
AcDbEntity
8
3
100
AcDbVertex
100
AcDb2dVertex
10
351.8850816124
20
701.4572702014
30
0.0000000000
0
VERTEX
5
81
100
AcDbEntity
8
3
100
AcDbVertex
100
AcDb2dVertex
10
351.8826532890
20
701.0278018304
30
0.0000000000
0
VERTEX
5
82
100
AcDbEntity
8
3
100
AcDbVertex
100
AcDb2dVertex
10
351.8484864636
20
700.5824059386
30
0.0000000000
0
VERTEX
5
83
100
AcDbEntity
8
3
100
AcDbVertex
100
AcDb2dVertex
10
351.7876955799
20
700.1240005257
30
0.0000000000
0
VERTEX
5
84
100
AcDbEntity
8
3
100
AcDbVertex
100
AcDb2dVertex
10
351.7060468223
20
699.6557952940
30
0.0000000000
0
VERTEX
5
85
100
AcDbEntity
8
3
100
AcDbVertex
100
AcDb2dVertex
10
351.6098170637
20
699.1812104537
30
0.0000000000
0
VERTEX
5
86
100
AcDbEntity
8
3
100
AcDbVertex
100
AcDb2dVertex
10
351.5056399234
20
698.7037909003
30
0.0000000000
0
VERTEX
5
87
100
AcDbEntity
8
3
100
AcDbVertex
100
AcDb2dVertex
10
351.4003427132
20
698.2271179192
30
0.0000000000
0
VERTEX
5
88
100
AcDbEntity
8
3
100
AcDbVertex
100
AcDb2dVertex
10
351.3007782806
20
697.7547206184
30
0.0000000000
0
VERTEX
5
89
100
AcDbEntity
8
3
100
AcDbVertex
100
AcDb2dVertex
10
351.2136558933
20
697.2899892812
30
0.0000000000
0
VERTEX
5
8A
100
AcDbEntity
8
3
100
AcDbVertex
100
AcDb2dVertex
10
351.1453753405
20
696.8360927683
30
0.0000000000
0
VERTEX
5
8B
100
AcDbEntity
8
3
100
AcDbVertex
100
AcDb2dVertex
10
351.1018683544
20
696.3959019839
30
0.0000000000
0
VERTEX
5
8C
100
AcDbEntity
8
3
100
AcDbVertex
100
AcDb2dVertex
10
351.0884512843
20
695.9719212542
30
0.0000000000
0
VERTEX
5
8D
100
AcDbEntity
8
3
100
AcDbVertex
100
AcDb2dVertex
10
351.1096926824
20
695.5662292598
30
0.0000000000
0
VERTEX
5
8E
100
AcDbEntity
8
3
100
AcDbVertex
100
AcDb2dVertex
10
351.1692991009
20
695.1804309133
30
0.0000000000
0
VERTEX
5
8F
100
AcDbEntity
8
3
100
AcDbVertex
100
AcDb2dVertex
10
351.2700219566
20
694.8156212936
30
0.0000000000
0
VERTEX
5
90
100
AcDbEntity
8
3
100
AcDbVertex
100
AcDb2dVertex
10
351.4135878018
20
694.4723624404
30
0.0000000000
0
VERTEX
5
91
100
AcDbEntity
8
3
100
AcDbVertex
100
AcDb2dVertex
10
351.6006537698
20
694.1506734898
30
0.0000000000
0
VERTEX
5
92
100
AcDbEntity
8
3
100
AcDbVertex
100
AcDb2dVertex
10
351.8307893398
20
693.8500342965
30
0.0000000000
0
VERTEX
5
93
100
AcDbEntity
8
3
100
AcDbVertex
100
AcDb2dVertex
10
352.1024849241
20
693.5694023521
30
0.0000000000
0
VERTEX
5
94
100
AcDbEntity
8
3
100
AcDbVertex
100
AcDb2dVertex
10
352.4131871117
20
693.3072424846
30
0.0000000000
0
VERTEX
5
95
100
AcDbEntity
8
3
100
AcDbVertex
100
AcDb2dVertex
10
352.7593597508
20
693.0615685064
30
0.0000000000
0
VERTEX
5
96
100
AcDbEntity
8
3
100
AcDbVertex
100
AcDb2dVertex
10
353.1365694054
20
692.8299956926
30
0.0000000000
0
VERTEX
5
97
100
AcDbEntity
8
3
100
AcDbVertex
100
AcDb2dVertex
10
353.5395931225
20
692.6098027084
30
0.0000000000
0
VERTEX
5
98
100
AcDbEntity
8
3
100
AcDbVertex
100
AcDb2dVertex
10
353.9625458883
20
692.3980013812
30
0.0000000000
0
VERTEX
5
99
100
AcDbEntity
8
3
100
AcDbVertex
100
AcDb2dVertex
10
354.3990246605
20
692.1914125333
30
0.0000000000
0
VERTEX
5
9A
100
AcDbEntity
8
3
100
AcDbVertex
100
AcDb2dVertex
10
354.8422654498
20
691.9867459487
30
0.0000000000
0
VERTEX
5
9B
100
AcDbEntity
8
3
100
AcDbVertex
100
AcDb2dVertex
10
355.2853095949
20
691.7806824664
30
0.0000000000
0
VERTEX
5
9C
100
AcDbEntity
8
3
100
AcDbVertex
100
AcDb2dVertex
10
355.7211751399
20
691.5699561496
30
0.0000000000
0
VERTEX
5
9D
100
AcDbEntity
8
3
100
AcDbVertex
100
AcDb2dVertex
10
356.1430290922
20
691.3514344969
30
0.0000000000
0
VERTEX
5
9E
100
AcDbEntity
8
3
100
AcDbVertex
100
AcDb2dVertex
10
356.5443563061
20
691.1221947259
30
0.0000000000
0
VERTEX
5
9F
100
AcDbEntity
8
3
100
AcDbVertex
100
AcDb2dVertex
10
356.9191208175
20
690.8795942699
30
0.0000000000
0
VERTEX
5
A0
100
AcDbEntity
8
3
100
AcDbVertex
100
AcDb2dVertex
10
357.2619156306
20
690.6213337892
30
0.0000000000
0
VERTEX
5
A1
100
AcDbEntity
8
3
100
AcDbVertex
100
AcDb2dVertex
10
357.5680972378
20
690.3455111952
30
0.0000000000
0
VERTEX
5
A2
100
AcDbEntity
8
3
100
AcDbVertex
100
AcDb2dVertex
10
357.8339015243
20
690.0506654210
30
0.0000000000
0
VERTEX
5
A3
100
AcDbEntity
8
3
100
AcDbVertex
100
AcDb2dVertex
10
358.0565381628
20
689.7358089365
30
0.0000000000
0
VERTEX
5
A4
100
AcDbEntity
8
3
100
AcDbVertex
100
AcDb2dVertex
10
358.2342611303
20
689.4004482930
30
0.0000000000
0
VERTEX
5
A5
100
AcDbEntity
8
3
100
AcDbVertex
100
AcDb2dVertex
10
358.3664135643
20
689.0445922837
30
0.0000000000
0
VERTEX
5
A6
100
AcDbEntity
8
3
100
AcDbVertex
100
AcDb2dVertex
10
358.4534458082
20
688.6687476197
30
0.0000000000
0
VERTEX
5
A7
100
AcDbEntity
8
3
100
AcDbVertex
100
AcDb2dVertex
10
358.4969061533
20
688.2739023286
30
0.0000000000
0
VERTEX
5
A8
100
AcDbEntity
8
3
100
AcDbVertex
100
AcDb2dVertex
10
358.4994044615
20
687.8614973873
30
0.0000000000
0
VERTEX
5
A9
100
AcDbEntity
8
3
100
AcDbVertex
100
AcDb2dVertex
10
358.4645495205
20
687.4333873886
30
0.0000000000
0
VERTEX
5
AA
100
AcDbEntity
8
3
100
AcDbVertex
100
AcDb2dVertex
10
358.3968616357
20
686.9917913058
30
0.0000000000
0
VERTEX
5
AB
100
AcDbEntity
8
3
100
AcDbVertex
100
AcDb2dVertex
10
358.3016625758
20
686.5392346565
30
0.0000000000
0
VERTEX
5
AC
100
AcDbEntity
8
3
100
AcDbVertex
100
AcDb2dVertex
10
358.1849455516
20
686.0784845712
30
0.0000000000
0
VERTEX
5
AD
100
AcDbEntity
8
3
100
AcDbVertex
100
AcDb2dVertex
10
358.0532284080
20
685.6124794340
30
0.0000000000
0
VERTEX
5
AE
100
AcDbEntity
8
3
100
AcDbVertex
100
AcDb2dVertex
10
357.9133936247
20
685.1442548838
30
0.0000000000
0
VERTEX
5
AF
100
AcDbEntity
8
3
100
AcDbVertex
100
AcDb2dVertex
10
357.7725190569
20
684.6768680423
30
0.0000000000
0
VERTEX
5
B0
100
AcDbEntity
8
3
100
AcDbVertex
100
AcDb2dVertex
10
357.6377035798
20
684.2133218589
30
0.0000000000
0
VERTEX
5
B1
100
AcDbEntity
8
3
100
AcDbVertex
100
AcDb2dVertex
10
357.5158919342
20
683.7564914493
30
0.0000000000
0
VERTEX
5
B2
100
AcDbEntity
8
3
100
AcDbVertex
100
AcDb2dVertex
10
357.4137030973
20
683.3090542344
30
0.0000000000
0
VERTEX
5
B3
100
AcDbEntity
8
3
100
AcDbVertex
100
AcDb2dVertex
10
357.3372664218
20
682.8734255792
30
0.0000000000
0
VERTEX
5
B4
100
AcDbEntity
8
3
100
AcDbVertex
100
AcDb2dVertex
10
357.2920696022
20
682.4517014799
30
0.0000000000
0
VERTEX
5
B5
100
AcDbEntity
8
3
100
AcDbVertex
100
AcDb2dVertex
10
357.2828222411
20
682.0456096580
30
0.0000000000
0
VERTEX
5
B6
100
AcDbEntity
8
3
100
AcDbVertex
100
AcDb2dVertex
10
357.3133384082
20
681.6564702015
30
0.0000000000
0
VERTEX
5
B7
100
AcDbEntity
8
3
100
AcDbVertex
100
AcDb2dVertex
10
357.3864411220
20
681.2851666436
30
0.0000000000
0
VERTEX
5
B8
100
AcDbEntity
8
3
100
AcDbVertex
100
AcDb2dVertex
10
357.5038911466
20
680.9321281065
30
0.0000000000
0
VERTEX
5
B9
100
AcDbEntity
8
3
100
AcDbVertex
100
AcDb2dVertex
10
357.6663418988
20
680.5973228515
30
0.0000000000
0
VERTEX
5
BA
100
AcDbEntity
8
3
100
AcDbVertex
100
AcDb2dVertex
10
357.8733216196
20
680.2802632980
30
0.0000000000
0
VERTEX
5
BB
100
AcDbEntity
8
3
100
AcDbVertex
100
AcDb2dVertex
10
358.1232432912
20
679.9800222793
30
0.0000000000
0
VERTEX
5
BC
100
AcDbEntity
8
3
100
AcDbVertex
100
AcDb2dVertex
10
358.4134420972
20
679.6952600356
30
0.0000000000
0
VERTEX
5
BD
100
AcDbEntity
8
3
100
AcDbVertex
100
AcDb2dVertex
10
358.7402395425
20
679.4242611733
30
0.0000000000
0
VERTEX
5
BE
100
AcDbEntity
8
3
100
AcDbVertex
100
AcDb2dVertex
10
359.0990326894
20
679.1649805857
30
0.0000000000
0
VERTEX
5
BF
100
AcDbEntity
8
3
100
AcDbVertex
100
AcDb2dVertex
10
359.4844063445
20
678.9150971133
30
0.0000000000
0
VERTEX
5
C0
100
AcDbEntity
8
3
100
AcDbVertex
100
AcDb2dVertex
10
359.8902654600
20
678.6720735395
30
0.0000000000
0
VERTEX
5
C1
100
AcDbEntity
8
3
100
AcDbVertex
100
AcDb2dVertex
10
360.3099845112
20
678.4332213764
30
0.0000000000
0
VERTEX
5
C2
100
AcDbEntity
8
3
100
AcDbVertex
100
AcDb2dVertex
10
360.7365701851
20
678.1957687877
30
0.0000000000
0
VERTEX
5
C3
100
AcDbEntity
8
3
100
AcDbVertex
100
AcDb2dVertex
10
361.1628333849
20
677.9569299327
30
0.0000000000
0
VERTEX
5
C4
100
AcDbEntity
8
3
100
AcDbVertex
100
AcDb2dVertex
10
361.5815663156
20
677.7139739981
30
0.0000000000
0
VERTEX
5
C5
100
AcDbEntity
8
3
100
AcDbVertex
100
AcDb2dVertex
10
361.9857202863
20
677.4642922060
30
0.0000000000
0
VERTEX
5
C6
100
AcDbEntity
8
3
100
AcDbVertex
100
AcDb2dVertex
10
362.3685798406
20
677.2054611540
30
0.0000000000
0
VERTEX
5
C7
100
AcDbEntity
8
3
100
AcDbVertex
100
AcDb2dVertex
10
362.7239289108
20
676.9353009501
30
0.0000000000
0
VERTEX
5
C8
100
AcDbEntity
8
3
100
AcDbVertex
100
AcDb2dVertex
10
363.0462048814
20
676.6519267472
30
0.0000000000
0
VERTEX
5
C9
100
AcDbEntity
8
3
100
AcDbVertex
100
AcDb2dVertex
10
363.3306367426
20
676.3537924637
30
0.0000000000
0
VERTEX
5
CA
100
AcDbEntity
8
3
100
AcDbVertex
100
AcDb2dVertex
10
363.5733638994
20
676.0397256770
30
0.0000000000
0
VERTEX
5
CB
100
AcDbEntity
8
3
100
AcDbVertex
100
AcDb2dVertex
10
363.7715326769
20
675.7089529116
30
0.0000000000
0
VERTEX
5
CC
100
AcDbEntity
8
3
100
AcDbVertex
100
AcDb2dVertex
10
363.9233681082
20
675.3611147862
30
0.0000000000
0
VERTEX
5
CD
100
AcDbEntity
8
3
100
AcDbVertex
100
AcDb2dVertex
10
364.0282191973
20
674.9962707439
30
0.0000000000
0
VERTEX
5
CE
100
AcDbEntity
8
3
100
AcDbVertex
100
AcDb2dVertex
10
364.0865765059
20
674.6148933518
30
0.0000000000
0
VERTEX
5
CF
100
AcDbEntity
8
3
100
AcDbVertex
100
AcDb2dVertex
10
364.1000615890
20
674.2178524138
30
0.0000000000
0
VERTEX
5
D0
100
AcDbEntity
8
3
100
AcDbVertex
100
AcDb2dVertex
10
364.0713885042
20
673.8063893953
30
0.0000000000
0
VERTEX
5
D1
100
AcDbEntity
8
3
100
AcDbVertex
100
AcDb2dVertex
10
364.0042983068
20
673.3820828920
30
0.0000000000
0
VERTEX
5
D2
100
AcDbEntity
8
3
100
AcDbVertex
100
AcDb2dVertex
10
363.9034681111
20
672.9468060923
30
0.0000000000
0
VERTEX
5
D3
100
AcDbEntity
8
3
100
AcDbVertex
100
AcDb2dVertex
10
363.7743969302
20
672.5026773718
30
0.0000000000
0
VERTEX
5
D4
100
AcDbEntity
8
3
100
AcDbVertex
100
AcDb2dVertex
10
363.6232710805
20
672.0520053196
30
0.0000000000
0
VERTEX
5
D5
100
AcDbEntity
8
3
100
AcDbVertex
100
AcDb2dVertex
10
363.4568124482
20
671.5972296202
30
0.0000000000
0
VERTEX
5
D6
100
AcDbEntity
8
3
100
AcDbVertex
100
AcDb2dVertex
10
363.2821133401
20
671.1408593039
30
0.0000000000
0
VERTEX
5
D7
100
AcDbEntity
8
3
100
AcDbVertex
100
AcDb2dVertex
10
363.1064619793
20
670.6854099305
30
0.0000000000
0
VERTEX
5
D8
100
AcDbEntity
8
3
100
AcDbVertex
100
AcDb2dVertex
10
362.9371629408
20
670.2333412783
30
0.0000000000
0
VERTEX
5
D9
100
AcDbEntity
8
3
100
AcDbVertex
100
AcDb2dVertex
10
362.7813569533
20
669.7869970849
30
0.0000000000
0
VERTEX
5
DA
100
AcDbEntity
8
3
100
AcDbVertex
100
AcDb2dVertex
10
362.6458445157
20
669.3485483175
30
0.0000000000
0
VERTEX
5
DB
100
AcDbEntity
8
3
100
AcDbVertex
100
AcDb2dVertex
10
362.5369176867
20
668.9199413453
30
0.0000000000
0
VERTEX
5
DC
100
AcDbEntity
8
3
100
AcDbVertex
100
AcDb2dVertex
10
362.4602042094
20
668.5028522546
30
0.0000000000
0
VERTEX
5
DD
100
AcDbEntity
8
3
100
AcDbVertex
100
AcDb2dVertex
10
362.4205278368
20
668.0986483745
30
0.0000000000
0
VERTEX
5
DE
100
AcDbEntity
8
3
100
AcDbVertex
100
AcDb2dVertex
10
362.4217883228
20
667.7083578949
30
0.0000000000
0
VERTEX
5
DF
100
AcDbEntity
8
3
100
AcDbVertex
100
AcDb2dVertex
10
362.4668640687
20
667.3326482457
30
0.0000000000
0
VERTEX
5
E0
100
AcDbEntity
8
3
100
AcDbVertex
100
AcDb2dVertex
10
362.5575398542
20
666.9718136773
30
0.0000000000
0
VERTEX
5
E1
100
AcDbEntity
8
3
100
AcDbVertex
100
AcDb2dVertex
10
362.6944614681
20
666.6257722526
30
0.0000000000
0
VERTEX
5
E2
100
AcDbEntity
8
3
100
AcDbVertex
100
AcDb2dVertex
10
362.8771183915
20
666.2940722199
30
0.0000000000
0
VERTEX
5
E3
100
AcDbEntity
8
3
100
AcDbVertex
100
AcDb2dVertex
10
363.1038549940
20
665.9759075033
30
0.0000000000
0
VERTEX
5
E4
100
AcDbEntity
8
3
100
AcDbVertex
100
AcDb2dVertex
10
363.3719100021
20
665.6701418227
30
0.0000000000
0
VERTEX
5
E5
100
AcDbEntity
8
3
100
AcDbVertex
100
AcDb2dVertex
10
363.6774832971
20
665.3753407441
30
0.0000000000
0
VERTEX
5
E6
100
AcDbEntity
8
3
100
AcDbVertex
100
AcDb2dVertex
10
364.0158284279
20
665.0898107715
30
0.0000000000
0
VERTEX
5
E7
100
AcDbEntity
8
3
100
AcDbVertex
100
AcDb2dVertex
10
364.3813685834
20
664.8116444246
30
0.0000000000
0
VERTEX
5
E8
100
AcDbEntity
8
3
100
AcDbVertex
100
AcDb2dVertex
10
364.7678331913
20
664.5387701107
30
0.0000000000
0
VERTEX
5
E9
100
AcDbEntity
8
3
100
AcDbVertex
100
AcDb2dVertex
10
365.1684117935
20
664.2690054894
30
0.0000000000
0
VERTEX
5
EA
100
AcDbEntity
8
3
100
AcDbVertex
100
AcDb2dVertex
10
365.5759214204
20
664.0001129596
30
0.0000000000
0
VERTEX
5
EB
100
AcDbEntity
8
3
100
AcDbVertex
100
AcDb2dVertex
10
365.9829833485
20
663.7298558589
30
0.0000000000
0
VERTEX
5
EC
100
AcDbEntity
8
3
100
AcDbVertex
100
AcDb2dVertex
10
366.3822048884
20
663.4560539643
30
0.0000000000
0
VERTEX
5
ED
100
AcDbEntity
8
3
100
AcDbVertex
100
AcDb2dVertex
10
366.7663617222
20
663.1766369173
30
0.0000000000
0
VERTEX
5
EE
100
AcDbEntity
8
3
100
AcDbVertex
100
AcDb2dVertex
10
367.1285762898
20
662.8896942643
30
0.0000000000
0
VERTEX
5
EF
100
AcDbEntity
8
3
100
AcDbVertex
100
AcDb2dVertex
10
367.4624878168
20
662.5935209027
30
0.0000000000
0
VERTEX
5
F0
100
AcDbEntity
8
3
100
AcDbVertex
100
AcDb2dVertex
10
367.7624097779
20
662.2866568548
30
0.0000000000
0
VERTEX
5
F1
100
AcDbEntity
8
3
100
AcDbVertex
100
AcDb2dVertex
10
368.0234708956
20
661.9679204420
30
0.0000000000
0
VERTEX
5
F2
100
AcDbEntity
8
3
100
AcDbVertex
100
AcDb2dVertex
10
368.2417361761
20
661.6364341142
30
0.0000000000
0
VERTEX
5
F3
100
AcDbEntity
8
3
100
AcDbVertex
100
AcDb2dVertex
10
368.4143049728
20
661.2916423769
30
0.0000000000
0
VERTEX
5
F4
100
AcDbEntity
8
3
100
AcDbVertex
100
AcDb2dVertex
10
368.5393836327
20
660.9333214667
30
0.0000000000
0
VERTEX
5
F5
100
AcDbEntity
8
3
100
AcDbVertex
100
AcDb2dVertex
10
368.6163309061
20
660.5615806365
30
0.0000000000
0
VERTEX
5
F6
100
AcDbEntity
8
3
100
AcDbVertex
100
AcDb2dVertex
10
368.6456749684
20
660.1768551225
30
0.0000000000
0
VERTEX
5
F7
100
AcDbEntity
8
3
100
AcDbVertex
100
AcDb2dVertex
10
368.6291016065
20
659.7798910750
30
0.0000000000
0
VERTEX
5
F8
100
AcDbEntity
8
3
100
AcDbVertex
100
AcDb2dVertex
10
368.5694138285
20
659.3717229317
30
0.0000000000
0
VERTEX
5
F9
100
AcDbEntity
8
3
100
AcDbVertex
100
AcDb2dVertex
10
368.4704638660
20
658.9536438966
30
0.0000000000
0
VERTEX
5
FA
100
AcDbEntity
8
3
100
AcDbVertex
100
AcDb2dVertex
10
368.3370592186
20
658.5271703519
30
0.0000000000
0
VERTEX
5
FB
100
AcDbEntity
8
3
100
AcDbVertex
100
AcDb2dVertex
10
368.1748450323
20
658.0940011741
30
0.0000000000
0
VERTEX
5
FC
100
AcDbEntity
8
3
100
AcDbVertex
100
AcDb2dVertex
10
367.9901656917
20
657.6559730376
30
0.0000000000
0
VERTEX
5
FD
100
AcDbEntity
8
3
100
AcDbVertex
100
AcDb2dVertex
10
367.7899090207
20
657.2150128801
30
0.0000000000
0
VERTEX
5
FE
100
AcDbEntity
8
3
100
AcDbVertex
100
AcDb2dVertex
10
367.5813369199
20
656.7730887586
30
0.0000000000
0
VERTEX
5
FF
100
AcDbEntity
8
3
100
AcDbVertex
100
AcDb2dVertex
10
367.3719066070
20
656.3321603474
30
0.0000000000
0
VERTEX
5
100
100
AcDbEntity
8
3
100
AcDbVertex
100
AcDb2dVertex
10
367.1690868636
20
655.8941303267
30
0.0000000000
0
VERTEX
5
101
100
AcDbEntity
8
3
100
AcDbVertex
100
AcDb2dVertex
10
366.9801738170
20
655.4607978668
30
0.0000000000
0
VERTEX
5
102
100
AcDbEntity
8
3
100
AcDbVertex
100
AcDb2dVertex
10
366.8121108055
20
655.0338153487
30
0.0000000000
0
VERTEX
5
103
100
AcDbEntity
8
3
100
AcDbVertex
100
AcDb2dVertex
10
366.6713167748
20
654.6146493606
30
0.0000000000
0
VERTEX
5
104
100
AcDbEntity
8
3
100
AcDbVertex
100
AcDb2dVertex
10
366.5635274498
20
654.2045468923
30
0.0000000000
0
VERTEX
5
105
100
AcDbEntity
8
3
100
AcDbVertex
100
AcDb2dVertex
10
366.4936532138
20
653.8045075042
30
0.0000000000
0
VERTEX
5
106
100
AcDbEntity
8
3
100
AcDbVertex
100
AcDb2dVertex
10
366.4656572178
20
653.4152620856
30
0.0000000000
0
VERTEX
5
107
100
AcDbEntity
8
3
100
AcDbVertex
100
AcDb2dVertex
10
366.4824567475
20
653.0372586441
30
0.0000000000
0
VERTEX
5
108
100
AcDbEntity
8
3
100
AcDbVertex
100
AcDb2dVertex
10
366.5458503026
20
652.6706553846
30
0.0000000000
0
VERTEX
5
109
100
AcDbEntity
8
3
100
AcDbVertex
100
AcDb2dVertex
10
366.6564722132
20
652.3153211459
30
0.0000000000
0
VERTEX
5
10A
100
AcDbEntity
8
3
100
AcDbVertex
100
AcDb2dVertex
10
366.8137759371
20
651.9708430803
30
0.0000000000
0
VERTEX
5
10B
100
AcDbEntity
8
3
100
AcDbVertex
100
AcDb2dVertex
10
367.0160464755
20
651.6365412768
30
0.0000000000
0
VERTEX
5
10C
100
AcDbEntity
8
3
100
AcDbVertex
100
AcDb2dVertex
10
367.2604416290
20
651.3114898602
30
0.0000000000
0
VERTEX
5
10D
100
AcDbEntity
8
3
100
AcDbVertex
100
AcDb2dVertex
10
367.5430610982
20
650.9945439375
30
0.0000000000
0
VERTEX
5
10E
100
AcDbEntity
8
3
100
AcDbVertex
100
AcDb2dVertex
10
367.8590417503
20
650.6843716283
30
0.0000000000
0
VERTEX
5
10F
100
AcDbEntity
8
3
100
AcDbVertex
100
AcDb2dVertex
10
368.2026767225
20
650.3794902960
30
0.0000000000
0
VERTEX
5
110
100
AcDbEntity
8
3
100
AcDbVertex
100
AcDb2dVertex
10
368.5675554438
20
650.0783060021
30
0.0000000000
0
VERTEX
5
111
100
AcDbEntity
8
3
100
AcDbVertex
100
AcDb2dVertex
10
368.9467211365
20
649.7791551415
30
0.0000000000
0
VERTEX
5
112
100
AcDbEntity
8
3
100
AcDbVertex
100
AcDb2dVertex
10
369.3328419271
20
649.4803471735
30
0.0000000000
0
VERTEX
5
113
100
AcDbEntity
8
3
100
AcDbVertex
100
AcDb2dVertex
10
369.7183913540
20
649.1802073540
30
0.0000000000
0
VERTEX
5
114
100
AcDbEntity
8
3
100
AcDbVertex
100
AcDb2dVertex
10
370.0958338257
20
648.8771183892
30
0.0000000000
0
VERTEX
5
115
100
AcDbEntity
8
3
100
AcDbVertex
100
AcDb2dVertex
10
370.4578104566
20
648.5695599755
30
0.0000000000
0
VERTEX
5
116
100
AcDbEntity
8
3
100
AcDbVertex
100
AcDb2dVertex
10
370.7973206956
20
648.2561452583
30
0.0000000000
0
VERTEX
5
117
100
AcDbEntity
8
3
100
AcDbVertex
100
AcDb2dVertex
10
371.1078952602
20
647.9356533374
30
0.0000000000
0
VERTEX
5
118
100
AcDbEntity
8
3
100
AcDbVertex
100
AcDb2dVertex
10
371.3837561040
20
647.6070570586
30
0.0000000000
0
VERTEX
5
119
100
AcDbEntity
8
3
100
AcDbVertex
100
AcDb2dVertex
10
371.6199594567
20
647.2695454643
30
0.0000000000
0
VERTEX
5
11A
100
AcDbEntity
8
3
100
AcDbVertex
100
AcDb2dVertex
10
371.8125183965
20
646.9225404194
30
0.0000000000
0
VERTEX
5
11B
100
AcDbEntity
8
3
100
AcDbVertex
100
AcDb2dVertex
10
371.9585019120
20
646.5657070875
30
0.0000000000
0
VERTEX
5
11C
100
AcDbEntity
8
3
100
AcDbVertex
100
AcDb2dVertex
10
372.0561079913
20
646.1989580914
30
0.0000000000
0
VERTEX
5
11D
100
AcDbEntity
8
3
100
AcDbVertex
100
AcDb2dVertex
10
372.1047089161
20
645.8224513580
30
0.0000000000
0
VERTEX
5
11E
100
AcDbEntity
8
3
100
AcDbVertex
100
AcDb2dVertex
10
372.1048676200
20
645.4365818061
30
0.0000000000
0
VERTEX
5
11F
100
AcDbEntity
8
3
100
AcDbVertex
100
AcDb2dVertex
10
372.0583246874
20
645.0419671927
30
0.0000000000
0
VERTEX
5
120
100
AcDbEntity
8
3
100
AcDbVertex
100
AcDb2dVertex
10
371.9679562905
20
644.6394285761
30
0.0000000000
0
VERTEX
5
121
100
AcDbEntity
8
3
100
AcDbVertex
100
AcDb2dVertex
10
371.8377040823
20
644.2299659841
30
0.0000000000
0
VERTEX
5
122
100
AcDbEntity
8
3
100
AcDbVertex
100
AcDb2dVertex
10
371.6724787539
20
643.8147299893
30
0.0000000000
0
VERTEX
5
123
100
AcDbEntity
8
3
100
AcDbVertex
100
AcDb2dVertex
10
371.4780396181
20
643.3949899858
30
0.0000000000
0
VERTEX
5
124
100
AcDbEntity
8
3
100
AcDbVertex
100
AcDb2dVertex
10
371.2608531725
20
642.9721000340
30
0.0000000000
0
VERTEX
5
125
100
AcDbEntity
8
3
100
AcDbVertex
100
AcDb2dVertex
10
371.0279341182
20
642.5474631857
30
0.0000000000
0
VERTEX
5
126
100
AcDbEntity
8
3
100
AcDbVertex
100
AcDb2dVertex
10
370.7866727438
20
642.1224952286
30
0.0000000000
0
VERTEX
5
127
100
AcDbEntity
8
3
100
AcDbVertex
100
AcDb2dVertex
10
370.5446529260
20
641.6985887842
30
0.0000000000
0
VERTEX
5
128
100
AcDbEntity
8
3
100
AcDbVertex
100
AcDb2dVertex
10
370.3094652302
20
641.2770786720
30
0.0000000000
0
VERTEX
5
129
100
AcDbEntity
8
3
100
AcDbVertex
100
AcDb2dVertex
10
370.0885197198
20
640.8592094013
30
0.0000000000
0
VERTEX
5
12A
100
AcDbEntity
8
3
100
AcDbVertex
100
AcDb2dVertex
10
369.8888630936
20
640.4461055840
30
0.0000000000
0
VERTEX
5
12B
100
AcDbEntity
8
3
100
AcDbVertex
100
AcDb2dVertex
10
369.7170046656
20
640.0387459720
30
0.0000000000
0
VERTEX
5
12C
100
AcDbEntity
8
3
100
AcDbVertex
100
AcDb2dVertex
10
369.5787554871
20
639.6379417170
30
0.0000000000
0
VERTEX
5
12D
100
AcDbEntity
8
3
100
AcDbVertex
100
AcDb2dVertex
10
369.4790845899
20
639.2443193314
30
0.0000000000
0
VERTEX
5
12E
100
AcDbEntity
8
3
100
AcDbVertex
100
AcDb2dVertex
10
369.4219959079
20
638.8583086982
30
0.0000000000
0
VERTEX
5
12F
100
AcDbEntity
8
3
100
AcDbVertex
100
AcDb2dVertex
10
369.4104289274
20
638.4801363413
30
0.0000000000
0
VERTEX
5
130
100
AcDbEntity
8
3
100
AcDbVertex
100
AcDb2dVertex
10
369.4461855330
20
638.1098240288
30
0.0000000000
0
VERTEX
5
131
100
AcDbEntity
8
3
100
AcDbVertex
100
AcDb2dVertex
10
369.5298848695
20
637.7471926406
30
0.0000000000
0
VERTEX
5
132
100
AcDbEntity
8
3
100
AcDbVertex
100
AcDb2dVertex
10
369.6609473509
20
637.3918710975
30
0.0000000000
0
VERTEX
5
133
100
AcDbEntity
8
3
100
AcDbVertex
100
AcDb2dVertex
10
369.8376082294
20
637.0433100222
30
0.0000000000
0
VERTEX
5
134
100
AcDbEntity
8
3
100
AcDbVertex
100
AcDb2dVertex
10
370.0569604063
20
636.7007996836
30
0.0000000000
0
VERTEX
5
135
100
AcDbEntity
8
3
100
AcDbVertex
100
AcDb2dVertex
10
370.3150254464
20
636.3634916761
30
0.0000000000
0
VERTEX
5
136
100
AcDbEntity
8
3
100
AcDbVertex
100
AcDb2dVertex
10
370.6068510596
20
636.0304236950
30
0.0000000000
0
VERTEX
5
137
100
AcDbEntity
8
3
100
AcDbVertex
100
AcDb2dVertex
10
370.9266326611
20
635.7005467050
30
0.0000000000
0
VERTEX
5
138
100
AcDbEntity
8
3
100
AcDbVertex
100
AcDb2dVertex
10
371.2678560218
20
635.3727537455
30
0.0000000000
0
VERTEX
5
139
100
AcDbEntity
8
3
100
AcDbVertex
100
AcDb2dVertex
10
371.6234575046
20
635.0459095924
30
0.0000000000
0
VERTEX
5
13A
100
AcDbEntity
8
3
100
AcDbVertex
100
AcDb2dVertex
10
371.9859979396
20
634.7188804860
30
0.0000000000
0
VERTEX
5
13B
100
AcDbEntity
8
3
100
AcDbVertex
100
AcDb2dVertex
10
372.3478458575
20
634.3905631504
30
0.0000000000
0
VERTEX
5
13C
100
AcDbEntity
8
3
100
AcDbVertex
100
AcDb2dVertex
10
372.7013655650
20
634.0599123624
30
0.0000000000
0
VERTEX
5
13D
100
AcDbEntity
8
3
100
AcDbVertex
100
AcDb2dVertex
10
373.0391054233
20
633.7259663823
30
0.0000000000
0
VERTEX
5
13E
100
AcDbEntity
8
3
100
AcDbVertex
100
AcDb2dVertex
10
373.3539816862
20
633.3878696278
30
0.0000000000
0
VERTEX
5
13F
100
AcDbEntity
8
3
100
AcDbVertex
100
AcDb2dVertex
10
373.6394533580
20
633.0448920584
30
0.0000000000
0
VERTEX
5
140
100
AcDbEntity
8
3
100
AcDbVertex
100
AcDb2dVertex
10
373.8896837533
20
632.6964448343
30
0.0000000000
0
VERTEX
5
141
100
AcDbEntity
8
3
100
AcDbVertex
100
AcDb2dVertex
10
374.0996847661
20
632.3420919232
30
0.0000000000
0
VERTEX
5
142
100
AcDbEntity
8
3
100
AcDbVertex
100
AcDb2dVertex
10
374.2654402787
20
631.9815574393
30
0.0000000000
0
VERTEX
5
143
100
AcDbEntity
8
3
100
AcDbVertex
100
AcDb2dVertex
10
374.3840056580
20
631.6147286194
30
0.0000000000
0
VERTEX
5
144
100
AcDbEntity
8
3
100
AcDbVertex
100
AcDb2dVertex
10
374.4535808695
20
631.2416544569
30
0.0000000000
0
VERTEX
5
145
100
AcDbEntity
8
3
100
AcDbVertex
100
AcDb2dVertex
10
374.4735553959
20
630.8625401315
30
0.0000000000
0
VERTEX
5
146
100
AcDbEntity
8
3
100
AcDbVertex
100
AcDb2dVertex
10
374.4445238362
20
630.4777374774
30
0.0000000000
0
VERTEX
5
147
100
AcDbEntity
8
3
100
AcDbVertex
100
AcDb2dVertex
10
374.3682717886
20
630.0877318388
30
0.0000000000
0
VERTEX
5
148
100
AcDbEntity
8
3
100
AcDbVertex
100
AcDb2dVertex
10
374.2477323517
20
629.6931257460
30
0.0000000000
0
VERTEX
5
149
100
AcDbEntity
8
3
100
AcDbVertex
100
AcDb2dVertex
10
374.0869143030
20
629.2946199238
30
0.0000000000
0
VERTEX
5
14A
100
AcDbEntity
8
3
100
AcDbVertex
100
AcDb2dVertex
10
373.8908037160
20
628.8929922014
30
0.0000000000
0
VERTEX
5
14B
100
AcDbEntity
8
3
100
AcDbVertex
100
AcDb2dVertex
10
373.6652414301
20
628.4890749415
30
0.0000000000
0
VERTEX
5
14C
100
AcDbEntity
8
3
100
AcDbVertex
100
AcDb2dVertex
10
373.4167793868
20
628.0837316269
30
0.0000000000
0
VERTEX
5
14D
100
AcDbEntity
8
3
100
AcDbVertex
100
AcDb2dVertex
10
373.1525193680
20
627.6778332559
30
0.0000000000
0
VERTEX
5
14E
100
AcDbEntity
8
3
100
AcDbVertex
100
AcDb2dVertex
10
372.8799381066
20
627.2722351853
30
0.0000000000
0
VERTEX
5
14F
100
AcDbEntity
8
3
100
AcDbVertex
100
AcDb2dVertex
10
372.6067030804
20
626.8677550363
30
0.0000000000
0
VERTEX
5
150
100
AcDbEntity
8
3
100
AcDbVertex
100
AcDb2dVertex
10
372.3404835274
20
626.4651522308
30
0.0000000000
0
VERTEX
5
151
100
AcDbEntity
8
3
100
AcDbVertex
100
AcDb2dVertex
10
372.0887613469
20
626.0651096749
30
0.0000000000
0
VERTEX
5
152
100
AcDbEntity
8
3
100
AcDbVertex
100
AcDb2dVertex
10
371.8586465477
20
625.6682180290
30
0.0000000000
0
VERTEX
5
153
100
AcDbEntity
8
3
100
AcDbVertex
100
AcDb2dVertex
10
371.6567018007
20
625.2749629284
30
0.0000000000
0
VERTEX
5
154
100
AcDbEntity
8
3
100
AcDbVertex
100
AcDb2dVertex
10
371.4887804264
20
624.8857154253
30
0.0000000000
0
VERTEX
5
155
100
AcDbEntity
8
3
100
AcDbVertex
100
AcDb2dVertex
10
371.3598818201
20
624.5007258300
30
0.0000000000
0
VERTEX
5
156
100
AcDbEntity
8
3
100
AcDbVertex
100
AcDb2dVertex
10
371.2740278865
20
624.1201210298
30
0.0000000000
0
VERTEX
5
157
100
AcDbEntity
8
3
100
AcDbVertex
100
AcDb2dVertex
10
371.2341635401
20
623.7439052684
30
0.0000000000
0
VERTEX
5
158
100
AcDbEntity
8
3
100
AcDbVertex
100
AcDb2dVertex
10
371.2420837339
20
623.3719642689
30
0.0000000000
0
VERTEX
5
159
100
AcDbEntity
8
3
100
AcDbVertex
100
AcDb2dVertex
10
371.2983888263
20
623.0040724974
30
0.0000000000
0
VERTEX
5
15A
100
AcDbEntity
8
3
100
AcDbVertex
100
AcDb2dVertex
10
371.4024693950
20
622.6399032787
30
0.0000000000
0
VERTEX
5
15B
100
AcDbEntity
8
3
100
AcDbVertex
100
AcDb2dVertex
10
371.5525208828
20
622.2790414035
30
0.0000000000
0
VERTEX
5
15C
100
AcDbEntity
8
3
100
AcDbVertex
100
AcDb2dVertex
10
371.7455877241
20
621.9209978046
30
0.0000000000
0
VERTEX
5
15D
100
AcDbEntity
8
3
100
AcDbVertex
100
AcDb2dVertex
10
371.9776358700
20
621.5652258326
30
0.0000000000
0
VERTEX
5
15E
100
AcDbEntity
8
3
100
AcDbVertex
100
AcDb2dVertex
10
372.2436519343
20
621.2111386253
30
0.0000000000
0
VERTEX
5
15F
100
AcDbEntity
8
3
100
AcDbVertex
100
AcDb2dVertex
10
372.5377665197
20
620.8581270490
30
0.0000000000
0
VERTEX
5
160
100
AcDbEntity
8
3
100
AcDbVertex
100
AcDb2dVertex
10
372.8533986902
20
620.5055776826
30
0.0000000000
0
VERTEX
5
161
100
AcDbEntity
8
3
100
AcDbVertex
100
AcDb2dVertex
10
373.1834180304
20
620.1528903313
30
0.0000000000
0
VERTEX
5
162
100
AcDbEntity
8
3
100
AcDbVertex
100
AcDb2dVertex
10
373.5203203002
20
619.7994945768
30
0.0000000000
0
VERTEX
5
163
100
AcDbEntity
8
3
100
AcDbVertex
100
AcDb2dVertex
10
373.8564123526
20
619.4448649162
30
0.0000000000
0
VERTEX
5
164
100
AcDbEntity
8
3
100
AcDbVertex
100
AcDb2dVertex
10
374.1840017578
20
619.0885340888
30
0.0000000000
0
VERTEX
5
165
100
AcDbEntity
8
3
100
AcDbVertex
100
AcDb2dVertex
10
374.4955864559
20
618.7301042546
30
0.0000000000
0
VERTEX
5
166
100
AcDbEntity
8
3
100
AcDbVertex
100
AcDb2dVertex
10
374.7840397587
20
618.3692557567
30
0.0000000000
0
VERTEX
5
167
100
AcDbEntity
8
3
100
AcDbVertex
100
AcDb2dVertex
10
375.0427861378
20
618.0057532807
30
0.0000000000
0
VERTEX
5
168
100
AcDbEntity
8
3
100
AcDbVertex
100
AcDb2dVertex
10
375.2659634590
20
617.6394492982
30
0.0000000000
0
VERTEX
5
169
100
AcDbEntity
8
3
100
AcDbVertex
100
AcDb2dVertex
10
375.4485676581
20
617.2702847725
30
0.0000000000
0
VERTEX
5
16A
100
AcDbEntity
8
3
100
AcDbVertex
100
AcDb2dVertex
10
375.5865762860
20
616.8982871791
30
0.0000000000
0
VERTEX
5
16B
100
AcDbEntity
8
3
100
AcDbVertex
100
AcDb2dVertex
10
375.6770478714
20
616.5235659757
30
0.0000000000
0
VERTEX
5
16C
100
AcDbEntity
8
3
100
AcDbVertex
100
AcDb2dVertex
10
375.7181946433
20
616.1463057305
30
0.0000000000
0
VERTEX
5
16D
100
AcDbEntity
8
3
100
AcDbVertex
100
AcDb2dVertex
10
375.7094268175
20
615.7667571794
30
0.0000000000
0
VERTEX
5
16E
100
AcDbEntity
8
3
100
AcDbVertex
100
AcDb2dVertex
10
375.6513673459
20
615.3852265432
30
0.0000000000
0
VERTEX
5
16F
100
AcDbEntity
8
3
100
AcDbVertex
100
AcDb2dVertex
10
375.5458367630
20
615.0020634798
30
0.0000000000
0
VERTEX
5
170
100
AcDbEntity
8
3
100
AcDbVertex
100
AcDb2dVertex
10
375.3958084952
20
614.6176480786
30
0.0000000000
0
VERTEX
5
171
100
AcDbEntity
8
3
100
AcDbVertex
100
AcDb2dVertex
10
375.2053357331
20
614.2323773283
30
0.0000000000
0
VERTEX
5
172
100
AcDbEntity
8
3
100
AcDbVertex
100
AcDb2dVertex
10
374.9794516645
20
613.8466514941
30
0.0000000000
0
VERTEX
5
173
100
AcDbEntity
8
3
100
AcDbVertex
100
AcDb2dVertex
10
374.7240455264
20
613.4608608353
30
0.0000000000
0
VERTEX
5
174
100
AcDbEntity
8
3
100
AcDbVertex
100
AcDb2dVertex
10
374.4457175294
20
613.0753730771
30
0.0000000000
0
VERTEX
5
175
100
AcDbEntity
8
3
100
AcDbVertex
100
AcDb2dVertex
10
374.1516162302
20
612.6905220153
30
0.0000000000
0
VERTEX
5
176
100
AcDbEntity
8
3
100
AcDbVertex
100
AcDb2dVertex
10
373.8492623622
20
612.3065975966
30
0.0000000000
0
VERTEX
5
177
100
AcDbEntity
8
3
100
AcDbVertex
100
AcDb2dVertex
10
373.5463634679
20
611.9238377582
30
0.0000000000
0
VERTEX
5
178
100
AcDbEntity
8
3
100
AcDbVertex
100
AcDb2dVertex
10
373.2506239041
20
611.5424222563
30
0.0000000000
0
VERTEX
5
179
100
AcDbEntity
8
3
100
AcDbVertex
100
AcDb2dVertex
10
372.9695549068
20
611.1624686421
30
0.0000000000
0
VERTEX
5
17A
100
AcDbEntity
8
3
100
AcDbVertex
100
AcDb2dVertex
10
372.7102894001
20
610.7840304766
30
0.0000000000
0
VERTEX
5
17B
100
AcDbEntity
8
3
100
AcDbVertex
100
AcDb2dVertex
10
372.4794061186
20
610.4070978014
30
0.0000000000
0
VERTEX
5
17C
100
AcDbEntity
8
3
100
AcDbVertex
100
AcDb2dVertex
10
372.2827673810
20
610.0315998105
30
0.0000000000
0
VERTEX
5
17D
100
AcDbEntity
8
3
100
AcDbVertex
100
AcDb2dVertex
10
372.1253745192
20
609.6574095979
30
0.0000000000
0
VERTEX
5
17E
100
AcDbEntity
8
3
100
AcDbVertex
100
AcDb2dVertex
10
372.0112445289
20
609.2843507918
30
0.0000000000
0
VERTEX
5
17F
100
AcDbEntity
8
3
100
AcDbVertex
100
AcDb2dVertex
10
371.9433109860
20
608.9122058257
30
0.0000000000
0
VERTEX
5
180
100
AcDbEntity
8
3
100
AcDbVertex
100
AcDb2dVertex
10
371.9233516746
20
608.5407255469
30
0.0000000000
0
VERTEX
5
181
100
AcDbEntity
8
3
100
AcDbVertex
100
AcDb2dVertex
10
371.9519447121
20
608.1696398217
30
0.0000000000
0
VERTEX
5
182
100
AcDbEntity
8
3
100
AcDbVertex
100
AcDb2dVertex
10
372.0284542562
20
607.7986687667
30
0.0000000000
0
VERTEX
5
183
100
AcDbEntity
8
3
100
AcDbVertex
100
AcDb2dVertex
10
372.1510461460
20
607.4275342179
30
0.0000000000
0
VERTEX
5
184
100
AcDbEntity
8
3
100
AcDbVertex
100
AcDb2dVertex
10
372.3167330927
20
607.0559710427
30
0.0000000000
0
VERTEX
5
185
100
AcDbEntity
8
3
100
AcDbVertex
100
AcDb2dVertex
10
372.5214483067
20
606.6837379070
30
0.0000000000
0
VERTEX
5
186
100
AcDbEntity
8
3
100
AcDbVertex
100
AcDb2dVertex
10
372.7601457432
20
606.3106271294
30
0.0000000000
0
VERTEX
5
187
100
AcDbEntity
8
3
100
AcDbVertex
100
AcDb2dVertex
10
373.0269244971
20
605.9364732826
30
0.0000000000
0
VERTEX
5
188
100
AcDbEntity
8
3
100
AcDbVertex
100
AcDb2dVertex
10
373.3151742753
20
605.5611602466
30
0.0000000000
0
VERTEX
5
189
100
AcDbEntity
8
3
100
AcDbVertex
100
AcDb2dVertex
10
373.6177383607
20
605.1846264668
30
0.0000000000
0
VERTEX
5
18A
100
AcDbEntity
8
3
100
AcDbVertex
100
AcDb2dVertex
10
373.9270900473
20
604.8068682286
30
0.0000000000
0
VERTEX
5
18B
100
AcDbEntity
8
3
100
AcDbVertex
100
AcDb2dVertex
10
374.2355181938
20
604.4279408264
30
0.0000000000
0
VERTEX
5
18C
100
AcDbEntity
8
3
100
AcDbVertex
100
AcDb2dVertex
10
374.5353173186
20
604.0479575713
30
0.0000000000
0
VERTEX
5
18D
100
AcDbEntity
8
3
100
AcDbVertex
100
AcDb2dVertex
10
374.8189775488
20
603.6670866548
30
0.0000000000
0
VERTEX
5
18E
100
AcDbEntity
8
3
100
AcDbVertex
100
AcDb2dVertex
10
375.0793697360
20
603.2855459546
30
0.0000000000
0
VERTEX
5
18F
100
AcDbEntity
8
3
100
AcDbVertex
100
AcDb2dVertex
10
375.3099211751
20
602.9035959364
30
0.0000000000
0
VERTEX
5
190
100
AcDbEntity
8
3
100
AcDbVertex
100
AcDb2dVertex
10
375.5047775906
20
602.5215308718
30
0.0000000000
0
VERTEX
5
191
100
AcDbEntity
8
3
100
AcDbVertex
100
AcDb2dVertex
10
375.6589473985
20
602.1396686463
30
0.0000000000
0
VERTEX
5
192
100
AcDbEntity
8
3
100
AcDbVertex
100
AcDb2dVertex
10
375.7684246838
20
601.7583394826
30
0.0000000000
0
VERTEX
5
193
100
AcDbEntity
8
3
100
AcDbVertex
100
AcDb2dVertex
10
375.8302878653
20
601.3778739423
30
0.0000000000
0
VERTEX
5
194
100
AcDbEntity
8
3
100
AcDbVertex
100
AcDb2dVertex
10
375.8427716130
20
600.9985905982
30
0.0000000000
0
VERTEX
5
195
100
AcDbEntity
8
3
100
AcDbVertex
100
AcDb2dVertex
10
375.8053102497
20
600.6207837844
30
0.0000000000
0
VERTEX
5
196
100
AcDbEntity
8
3
100
AcDbVertex
100
AcDb2dVertex
10
375.7185515672
20
600.2447118356
30
0.0000000000
0
VERTEX
5
197
100
AcDbEntity
8
3
100
AcDbVertex
100
AcDb2dVertex
10
375.5843407203
20
599.8705862167
30
0.0000000000
0
VERTEX
5
198
100
AcDbEntity
8
3
100
AcDbVertex
100
AcDb2dVertex
10
375.4056745993
20
599.4985619234
30
0.0000000000
0
VERTEX
5
199
100
AcDbEntity
8
3
100
AcDbVertex
100
AcDb2dVertex
10
375.1866278094
20
599.1287294982
30
0.0000000000
0
VERTEX
5
19A
100
AcDbEntity
8
3
100
AcDbVertex
100
AcDb2dVertex
10
374.9322520870
20
598.7611089627
30
0.0000000000
0
VERTEX
5
19B
100
AcDbEntity
8
3
100
AcDbVertex
100
AcDb2dVertex
10
374.6484516367
20
598.3956459105
30
0.0000000000
0
VERTEX
5
19C
100
AcDbEntity
8
3
100
AcDbVertex
100
AcDb2dVertex
10
374.3418374679
20
598.0322099421
30
0.0000000000
0
VERTEX
5
19D
100
AcDbEntity
8
3
100
AcDbVertex
100
AcDb2dVertex
10
374.0195643254
20
597.6705955525
30
0.0000000000
0
VERTEX
5
19E
100
AcDbEntity
8
3
100
AcDbVertex
100
AcDb2dVertex
10
373.6891542400
20
597.3105255084
30
0.0000000000
0
VERTEX
5
19F
100
AcDbEntity
8
3
100
AcDbVertex
100
AcDb2dVertex
10
373.3583110527
20
596.9516566723
30
0.0000000000
0
VERTEX
5
1A0
100
AcDbEntity
8
3
100
AcDbVertex
100
AcDb2dVertex
10
373.0347304882
20
596.5935881577
30
0.0000000000
0
VERTEX
5
1A1
100
AcDbEntity
8
3
100
AcDbVertex
100
AcDb2dVertex
10
372.7259104634
20
596.2358716206
30
0.0000000000
0
VERTEX
5
1A2
100
AcDbEntity
8
3
100
AcDbVertex
100
AcDb2dVertex
10
372.4389663087
20
595.8780234260
30
0.0000000000
0
VERTEX
5
1A3
100
AcDbEntity
8
3
100
AcDbVertex
100
AcDb2dVertex
10
372.1804554588
20
595.5195383604
30
0.0000000000
0
VERTEX
5
1A4
100
AcDbEntity
8
3
100
AcDbVertex
100
AcDb2dVertex
10
371.9562159350
20
595.1599045114
30
0.0000000000
0
VERTEX
5
1A5
100
AcDbEntity
8
3
100
AcDbVertex
100
AcDb2dVertex
10
371.7712225985
20
594.7986188871
30
0.0000000000
0
VERTEX
5
1A6
100
AcDbEntity
8
3
100
AcDbVertex
100
AcDb2dVertex
10
371.6294647187
20
594.4352033162
30
0.0000000000
0
VERTEX
5
1A7
100
AcDbEntity
8
3
100
AcDbVertex
100
AcDb2dVertex
10
371.5338478682
20
594.0692201543
30
0.0000000000
0
VERTEX
5
1A8
100
AcDbEntity
8
3
100
AcDbVertex
100
AcDb2dVertex
10
371.4861225608
20
593.7002873098
30
0.0000000000
0
VERTEX
5
1A9
100
AcDbEntity
8
3
100
AcDbVertex
100
AcDb2dVertex
10
371.4868413854
20
593.3280921180
30
0.0000000000
0
VERTEX
5
1AA
100
AcDbEntity
8
3
100
AcDbVertex
100
AcDb2dVertex
10
371.5353456867
20
592.9524036115
30
0.0000000000
0
VERTEX
5
1AB
100
AcDbEntity
8
3
100
AcDbVertex
100
AcDb2dVertex
10
371.6297821121
20
592.5730827723
30
0.0000000000
0
VERTEX
5
1AC
100
AcDbEntity
8
3
100
AcDbVertex
100
AcDb2dVertex
10
371.7671486119
20
592.1900904028
30
0.0000000000
0
VERTEX
5
1AD
100
AcDbEntity
8
3
100
AcDbVertex
100
AcDb2dVertex
10
371.9433687477
20
591.8034923111
30
0.0000000000
0
VERTEX
5
1AE
100
AcDbEntity
8
3
100
AcDbVertex
100
AcDb2dVertex
10
372.1533924711
20
591.4134615822
30
0.0000000000
0
VERTEX
5
1AF
100
AcDbEntity
8
3
100
AcDbVertex
100
AcDb2dVertex
10
372.3913208779
20
591.0202777815
30
0.0000000000
0
VERTEX
5
1B0
100
AcDbEntity
8
3
100
AcDbVertex
100
AcDb2dVertex
10
372.6505518559
20
590.6243230280
30
0.0000000000
0
VERTEX
5
1B1
100
AcDbEntity
8
3
100
AcDbVertex
100
AcDb2dVertex
10
372.9239430273
20
590.2260749602
30
0.0000000000
0
VERTEX
5
1B2
100
AcDbEntity
8
3
100
AcDbVertex
100
AcDb2dVertex
10
373.2039879619
20
589.8260967113
30
0.0000000000
0
VERTEX
5
1B3
100
AcDbEntity
8
3
100
AcDbVertex
100
AcDb2dVertex
10
373.4830013120
20
589.4250240987
30
0.0000000000
0
VERTEX
5
1B4
100
AcDbEntity
8
3
100
AcDbVertex
100
AcDb2dVertex
10
373.7533082998
20
589.0235503178
30
0.0000000000
0
VERTEX
5
1B5
100
AcDbEntity
8
3
100
AcDbVertex
100
AcDb2dVertex
10
374.0074338828
20
588.6224085092
30
0.0000000000
0
VERTEX
5
1B6
100
AcDbEntity
8
3
100
AcDbVertex
100
AcDb2dVertex
10
374.2382869324
20
588.2223526401
30
0.0000000000
0
VERTEX
5
1B7
100
AcDbEntity
8
3
100
AcDbVertex
100
AcDb2dVertex
10
374.4393348848
20
587.8241371955
30
0.0000000000
0
VERTEX
5
1B8
100
AcDbEntity
8
3
100
AcDbVertex
100
AcDb2dVertex
10
374.6047645608
20
587.4284962257
30
0.0000000000
0
VERTEX
5
1B9
100
AcDbEntity
8
3
100
AcDbVertex
100
AcDb2dVertex
10
374.7296251924
20
587.0361223239
30
0.0000000000
0
VERTEX
5
1BA
100
AcDbEntity
8
3
100
AcDbVertex
100
AcDb2dVertex
10
374.8099501363
20
586.6476461264
30
0.0000000000
0
VERTEX
5
1BB
100
AcDbEntity
8
3
100
AcDbVertex
100
AcDb2dVertex
10
374.8428542792
20
586.2636169250
30
0.0000000000
0
VERTEX
5
1BC
100
AcDbEntity
8
3
100
AcDbVertex
100
AcDb2dVertex
10
374.8266047427
20
585.8844849663
30
0.0000000000
0
VERTEX
5
1BD
100
AcDbEntity
8
3
100
AcDbVertex
100
AcDb2dVertex
10
374.7606631537
20
585.5105859763
30
0.0000000000
0
VERTEX
5
1BE
100
AcDbEntity
8
3
100
AcDbVertex
100
AcDb2dVertex
10
374.6456984489
20
585.1421284020
30
0.0000000000
0
VERTEX
5
1BF
100
AcDbEntity
8
3
100
AcDbVertex
100
AcDb2dVertex
10
374.4835699092
20
584.7791837938
30
0.0000000000
0
VERTEX
5
1C0
100
AcDbEntity
8
3
100
AcDbVertex
100
AcDb2dVertex
10
374.2772808535
20
584.4216806790
30
0.0000000000
0
VERTEX
5
1C1
100
AcDbEntity
8
3
100
AcDbVertex
100
AcDb2dVertex
10
374.0309041476
20
584.0694021838
30
0.0000000000
0
VERTEX
5
1C2
100
AcDbEntity
8
3
100
AcDbVertex
100
AcDb2dVertex
10
373.7494813745
20
583.7219875663
30
0.0000000000
0
VERTEX
5
1C3
100
AcDbEntity
8
3
100
AcDbVertex
100
AcDb2dVertex
10
373.4388981657
20
583.3789377168
30
0.0000000000
0
VERTEX
5
1C4
100
AcDbEntity
8
3
100
AcDbVertex
100
AcDb2dVertex
10
373.1057387768
20
583.0396245738
30
0.0000000000
0
VERTEX
5
1C5
100
AcDbEntity
8
3
100
AcDbVertex
100
AcDb2dVertex
10
372.7571235033
20
582.7033042954
30
0.0000000000
0
VERTEX
5
1C6
100
AcDbEntity
8
3
100
AcDbVertex
100
AcDb2dVertex
10
372.4005329537
20
582.3691339196
30
0.0000000000
0
VERTEX
5
1C7
100
AcDbEntity
8
3
100
AcDbVertex
100
AcDb2dVertex
10
372.0436235192
20
582.0361911430
30
0.0000000000
0
VERTEX
5
1C8
100
AcDbEntity
8
3
100
AcDbVertex
100
AcDb2dVertex
10
371.6940385942
20
581.7034967573
30
0.0000000000
0
VERTEX
5
1C9
100
AcDbEntity
8
3
100
AcDbVertex
100
AcDb2dVertex
10
371.3592202058
20
581.3700391969
30
0.0000000000
0
VERTEX
5
1CA
100
AcDbEntity
8
3
100
AcDbVertex
100
AcDb2dVertex
10
371.0462256970
20
581.0348005838
30
0.0000000000
0
VERTEX
5
1CB
100
AcDbEntity
8
3
100
AcDbVertex
100
AcDb2dVertex
10
370.7615539818
20
580.6967836006
30
0.0000000000
0
VERTEX
5
1CC
100
AcDbEntity
8
3
100
AcDbVertex
100
AcDb2dVertex
10
370.5109856520
20
580.3550384852
30
0.0000000000
0
VERTEX
5
1CD
100
AcDbEntity
8
3
100
AcDbVertex
100
AcDb2dVertex
10
370.2994408727
20
580.0086894244
30
0.0000000000
0
VERTEX
5
1CE
100
AcDbEntity
8
3
100
AcDbVertex
100
AcDb2dVertex
10
370.1308585613
20
579.6569596212
30
0.0000000000
0
VERTEX
5
1CF
100
AcDbEntity
8
3
100
AcDbVertex
100
AcDb2dVertex
10
370.0080998187
20
579.2991943336
30
0.0000000000
0
VERTEX
5
1D0
100
AcDbEntity
8
3
100
AcDbVertex
100
AcDb2dVertex
10
369.9328779817
20
578.9348812221
30
0.0000000000
0
VERTEX
5
1D1
100
AcDbEntity
8
3
100
AcDbVertex
100
AcDb2dVertex
10
369.9057170084
20
578.5636674007
30
0.0000000000
0
VERTEX
5
1D2
100
AcDbEntity
8
3
100
AcDbVertex
100
AcDb2dVertex
10
369.9259392065
20
578.1853726626
30
0.0000000000
0
VERTEX
5
1D3
100
AcDbEntity
8
3
100
AcDbVertex
100
AcDb2dVertex
10
369.9916825930
20
577.7999984455
30
0.0000000000
0
VERTEX
5
1D4
100
AcDbEntity
8
3
100
AcDbVertex
100
AcDb2dVertex
10
370.0999474397
20
577.4077322024
30
0.0000000000
0
VERTEX
5
1D5
100
AcDbEntity
8
3
100
AcDbVertex
100
AcDb2dVertex
10
370.2466708416
20
577.0089469652
30
0.0000000000
0
VERTEX
5
1D6
100
AcDbEntity
8
3
100
AcDbVertex
100
AcDb2dVertex
10
370.4268274536
20
576.6041960075
30
0.0000000000
0
VERTEX
5
1D7
100
AcDbEntity
8
3
100
AcDbVertex
100
AcDb2dVertex
10
370.6345538970
20
576.1942026457
30
0.0000000000
0
VERTEX
5
1D8
100
AcDbEntity
8
3
100
AcDbVertex
100
AcDb2dVertex
10
370.8632937527
20
575.7798453449
30
0.0000000000
0
VERTEX
5
1D9
100
AcDbEntity
8
3
100
AcDbVertex
100
AcDb2dVertex
10
371.1059595565
20
575.3621384270
30
0.0000000000
0
VERTEX
5
1DA
100
AcDbEntity
8
3
100
AcDbVertex
100
AcDb2dVertex
10
371.3551077901
20
574.9422087976
30
0.0000000000
0
VERTEX
5
1DB
100
AcDbEntity
8
3
100
AcDbVertex
100
AcDb2dVertex
10
371.6031225444
20
574.5212692261
30
0.0000000000
0
VERTEX
5
1DC
100
AcDbEntity
8
3
100
AcDbVertex
100
AcDb2dVertex
10
371.8424033227
20
574.1005888114
30
0.0000000000
0
VERTEX
5
1DD
100
AcDbEntity
8
3
100
AcDbVertex
100
AcDb2dVertex
10
372.0655523490
20
573.6814613531
30
0.0000000000
0
VERTEX
5
1DE
100
AcDbEntity
8
3
100
AcDbVertex
100
AcDb2dVertex
10
372.2655567628
20
573.2651724195
30
0.0000000000
0
VERTEX
5
1DF
100
AcDbEntity
8
3
100
AcDbVertex
100
AcDb2dVertex
10
372.4359612110
20
572.8529659495
30
0.0000000000
0
VERTEX
5
1E0
100
AcDbEntity
8
3
100
AcDbVertex
100
AcDb2dVertex
10
372.5710265878
20
572.4460112547
30
0.0000000000
0
VERTEX
5
1E1
100
AcDbEntity
8
3
100
AcDbVertex
100
AcDb2dVertex
10
372.6658710153
20
572.0453712956
30
0.0000000000
0
VERTEX
5
1E2
100
AcDbEntity
8
3
100
AcDbVertex
100
AcDb2dVertex
10
372.7165896011
20
571.6519730843
30
0.0000000000
0
VERTEX
5
1E3
100
AcDbEntity
8
3
100
AcDbVertex
100
AcDb2dVertex
10
372.7203500336
20
571.2665810297
30
0.0000000000
0
VERTEX
5
1E4
100
AcDbEntity
8
3
100
AcDbVertex
100
AcDb2dVertex
10
372.6754616731
20
570.8897739756
30
0.0000000000
0
VERTEX
5
1E5
100
AcDbEntity
8
3
100
AcDbVertex
100
AcDb2dVertex
10
372.5814164523
20
570.5219266015
30
0.0000000000
0
VERTEX
5
1E6
100
AcDbEntity
8
3
100
AcDbVertex
100
AcDb2dVertex
10
372.4389005978
20
570.1631957512
30
0.0000000000
0
VERTEX
5
1E7
100
AcDbEntity
8
3
100
AcDbVertex
100
AcDb2dVertex
10
372.2497769023
20
569.8135121363
30
0.0000000000
0
VERTEX
5
1E8
100
AcDbEntity
8
3
100
AcDbVertex
100
AcDb2dVertex
10
372.0170380053
20
569.4725777297
30
0.0000000000
0
VERTEX
5
1E9
100
AcDbEntity
8
3
100
AcDbVertex
100
AcDb2dVertex
10
371.7447318543
20
569.1398690196
30
0.0000000000
0
VERTEX
5
1EA
100
AcDbEntity
8
3
100
AcDbVertex
100
AcDb2dVertex
10
371.4378612043
20
568.8146461456
30
0.0000000000
0
VERTEX
5
1EB
100
AcDbEntity
8
3
100
AcDbVertex
100
AcDb2dVertex
10
371.1022596520
20
568.4959677845
30
0.0000000000
0
VERTEX
5
1EC
100
AcDbEntity
8
3
100
AcDbVertex
100
AcDb2dVertex
10
370.7444472777
20
568.1827115029
30
0.0000000000
0
VERTEX
5
1ED
100
AcDbEntity
8
3
100
AcDbVertex
100
AcDb2dVertex
10
370.3714694709
20
567.8735991447
30
0.0000000000
0
VERTEX
5
1EE
100
AcDbEntity
8
3
100
AcDbVertex
100
AcDb2dVertex
10
369.9907229242
20
567.5672266840
30
0.0000000000
0
VERTEX
5
1EF
100
AcDbEntity
8
3
100
AcDbVertex
100
AcDb2dVertex
10
369.6097730969
20
567.2620978497
30
0.0000000000
0
VERTEX
5
1F0
100
AcDbEntity
8
3
100
AcDbVertex
100
AcDb2dVertex
10
369.2361676555
20
566.9566607165
30
0.0000000000
0
VERTEX
5
1F1
100
AcDbEntity
8
3
100
AcDbVertex
100
AcDb2dVertex
10
368.8772504936
20
566.6493463681
30
0.0000000000
0
VERTEX
5
1F2
100
AcDbEntity
8
3
100
AcDbVertex
100
AcDb2dVertex
10
368.5399809180
20
566.3386086699
30
0.0000000000
0
VERTEX
5
1F3
100
AcDbEntity
8
3
100
AcDbVertex
100
AcDb2dVertex
10
368.2307624543
20
566.0229641435
30
0.0000000000
0
VERTEX
5
1F4
100
AcDbEntity
8
3
100
AcDbVertex
100
AcDb2dVertex
10
367.9552854859
20
565.7010309182
30
0.0000000000
0
VERTEX
5
1F5
100
AcDbEntity
8
3
100
AcDbVertex
100
AcDb2dVertex
10
367.7183875972
20
565.3715657388
30
0.0000000000
0
VERTEX
5
1F6
100
AcDbEntity
8
3
100
AcDbVertex
100
AcDb2dVertex
10
367.5239350484
20
565.0334980480
30
0.0000000000
0
VERTEX
5
1F7
100
AcDbEntity
8
3
100
AcDbVertex
100
AcDb2dVertex
10
367.3747282901
20
564.6859602165
30
0.0000000000
0
VERTEX
5
1F8
100
AcDbEntity
8
3
100
AcDbVertex
100
AcDb2dVertex
10
367.2724338256
20
564.3283130835
30
0.0000000000
0
VERTEX
5
1F9
100
AcDbEntity
8
3
100
AcDbVertex
100
AcDb2dVertex
10
367.2175440822
20
563.9601660749
30
0.0000000000
0
VERTEX
5
1FA
100
AcDbEntity
8
3
100
AcDbVertex
100
AcDb2dVertex
10
367.2093662557
20
563.5813912975
30
0.0000000000
0
VERTEX
5
1FB
100
AcDbEntity
8
3
100
AcDbVertex
100
AcDb2dVertex
10
367.2460403811
20
563.1921311516
30
0.0000000000
0
VERTEX
5
1FC
100
AcDbEntity
8
3
100
AcDbVertex
100
AcDb2dVertex
10
367.3245861584
20
562.7927991661
30
0.0000000000
0
VERTEX
5
1FD
100
AcDbEntity
8
3
100
AcDbVertex
100
AcDb2dVertex
10
367.4409773551
20
562.3840739292
30
0.0000000000
0
VERTEX
5
1FE
100
AcDbEntity
8
3
100
AcDbVertex
100
AcDb2dVertex
10
367.5902419274
20
561.9668861630
30
0.0000000000
0
VERTEX
5
1FF
100
AcDbEntity
8
3
100
AcDbVertex
100
AcDb2dVertex
10
367.7665853696
20
561.5423991698
30
0.0000000000
0
VERTEX
5
200
100
AcDbEntity
8
3
100
AcDbVertex
100
AcDb2dVertex
10
367.9635342298
20
561.1119830473
30
0.0000000000
0
VERTEX
5
201
100
AcDbEntity
8
3
100
AcDbVertex
100
AcDb2dVertex
10
368.1740962356
20
560.6771832410
30
0.0000000000
0
VERTEX
5
202
100
AcDbEntity
8
3
100
AcDbVertex
100
AcDb2dVertex
10
368.3909330678
20
560.2396841511
30
0.0000000000
0
VERTEX
5
203
100
AcDbEntity
8
3
100
AcDbVertex
100
AcDb2dVertex
10
368.6065415095
20
559.8012686511
30
0.0000000000
0
VERTEX
5
204
100
AcDbEntity
8
3
100
AcDbVertex
100
AcDb2dVertex
10
368.8134384977
20
559.3637744924
30
0.0000000000
0
VERTEX
5
205
100
AcDbEntity
8
3
100
AcDbVertex
100
AcDb2dVertex
10
369.0043455104
20
558.9290486605
30
0.0000000000
0
VERTEX
5
206
100
AcDbEntity
8
3
100
AcDbVertex
100
AcDb2dVertex
10
369.1723677434
20
558.4989008199
30
0.0000000000
0
VERTEX
5
207
100
AcDbEntity
8
3
100
AcDbVertex
100
AcDb2dVertex
10
369.3111636644
20
558.0750570206
30
0.0000000000
0
VERTEX
5
208
100
AcDbEntity
8
3
100
AcDbVertex
100
AcDb2dVertex
10
369.4151007713
20
557.6591148505
30
0.0000000000
0
VERTEX
5
209
100
AcDbEntity
8
3
100
AcDbVertex
100
AcDb2dVertex
10
369.4793937278
20
557.2525011972
30
0.0000000000
0
VERTEX
5
20A
100
AcDbEntity
8
3
100
AcDbVertex
100
AcDb2dVertex
10
369.5002214878
20
556.8564337329
30
0.0000000000
0
VERTEX
5
20B
100
AcDbEntity
8
3
100
AcDbVertex
100
AcDb2dVertex
10
369.4748205380
20
556.4718871533
30
0.0000000000
0
VERTEX
5
20C
100
AcDbEntity
8
3
100
AcDbVertex
100
AcDb2dVertex
10
369.4015519852
20
556.0995650987
30
0.0000000000
0
VERTEX
5
20D
100
AcDbEntity
8
3
100
AcDbVertex
100
AcDb2dVertex
10
369.2799408579
20
555.7398785477
30
0.0000000000
0
VERTEX
5
20E
100
AcDbEntity
8
3
100
AcDbVertex
100
AcDb2dVertex
10
369.1106866793
20
555.3929313245
30
0.0000000000
0
VERTEX
5
20F
100
AcDbEntity
8
3
100
AcDbVertex
100
AcDb2dVertex
10
368.8956450815
20
555.0585131829
30
0.0000000000
0
VERTEX
5
210
100
AcDbEntity
8
3
100
AcDbVertex
100
AcDb2dVertex
10
368.6377809395
20
554.7361007477
30
0.0000000000
0
VERTEX
5
211
100
AcDbEntity
8
3
100
AcDbVertex
100
AcDb2dVertex
10
368.3410942117
20
554.4248663937
30
0.0000000000
0
SEQEND
5
212
100
AcDbEntity
8
3
0
POLYLINE
5
213
100
AcDbEntity
8
4
6
DASHED
62
4
420
50142
370
30
100
AcDb2dPolyline
66
1
70
1
10
0.0000000000
20
0.0000000000
30
0.0000000000
999
UNIVERSITYCAD_LTYPE:4
0
VERTEX
5
214
100
AcDbEntity
8
4
100
AcDbVertex
100
AcDb2dVertex
10
586.5234375000
20
740.6289062500
30
0.0000000000
0
VERTEX
5
215
100
AcDbEntity
8
4
100
AcDbVertex
100
AcDb2dVertex
10
890.2187500000
20
740.6289062500
30
0.0000000000
0
VERTEX
5
216
100
AcDbEntity
8
4
100
AcDbVertex
100
AcDb2dVertex
10
890.2187500000
20
609.2695312500
30
0.0000000000
0
VERTEX
5
217
100
AcDbEntity
8
4
100
AcDbVertex
100
AcDb2dVertex
10
586.5234375000
20
609.2695312500
30
0.0000000000
0
SEQEND
5
218
100
AcDbEntity
8
4
0
ELLIPSE
5
219
100
AcDbEntity
8
5
6
DASHDOT
62
40
420
14791680
370
30
100
AcDbEllipse
10
120.0800000000
20
443.0600000000
30
0.0000000000
11
254.8400000000
21
0.0000000000
31
0.0000000000
40
0.2946554701
41
0.0000000000
42
6.2831853072
999
UNIVERSITYCAD_LTYPE:5
0
POLYLINE
5
21A
100
AcDbEntity
8
6
6
CONTINUOUS
62
100
420
57729
370
30
100
AcDb2dPolyline
66
1
70
1
10
0.0000000000
20
0.0000000000
30
0.0000000000
999
UNIVERSITYCAD_LTYPE:3
999
UNIVERSITYCAD_ORIG:Ellipse|686.23|485.68|62.54|118.28
0
VERTEX
5
21B
100
AcDbEntity
8
6
100
AcDbVertex
100
AcDb2dVertex
10
748.7700000000
20
485.6800000000
30
0.0000000000
0
VERTEX
5
21C
100
AcDbEntity
8
6
100
AcDbVertex
100
AcDb2dVertex
10
749.0686540718
20
486.4560987442
30
0.0000000000
0
VERTEX
5
21D
100
AcDbEntity
8
6
100
AcDbVertex
100
AcDb2dVertex
10
749.3645906430
20
487.2360911215
30
0.0000000000
0
VERTEX
5
21E
100
AcDbEntity
8
6
100
AcDbVertex
100
AcDb2dVertex
10
749.6577713362
20
488.0199434675
30
0.0000000000
0
VERTEX
5
21F
100
AcDbEntity
8
6
100
AcDbVertex
100
AcDb2dVertex
10
749.9481578939
20
488.8076217838
30
0.0000000000
0
VERTEX
5
220
100
AcDbEntity
8
6
100
AcDbVertex
100
AcDb2dVertex
10
750.2357121820
20
489.5990917404
30
0.0000000000
0
VERTEX
5
221
100
AcDbEntity
8
6
100
AcDbVertex
100
AcDb2dVertex
10
750.5203961917
20
490.3943186763
30
0.0000000000
0
VERTEX
5
222
100
AcDbEntity
8
6
100
AcDbVertex
100
AcDb2dVertex
10
750.8021720430
20
491.1932676018
30
0.0000000000
0
VERTEX
5
223
100
AcDbEntity
8
6
100
AcDbVertex
100
AcDb2dVertex
10
751.0810019870
20
491.9959031994
30
0.0000000000
0
VERTEX
5
224
100
AcDbEntity
8
6
100
AcDbVertex
100
AcDb2dVertex
10
751.3568484085
20
492.8021898257
30
0.0000000000
0
VERTEX
5
225
100
AcDbEntity
8
6
100
AcDbVertex
100
AcDb2dVertex
10
751.6296738291
20
493.6120915130
30
0.0000000000
0
VERTEX
5
226
100
AcDbEntity
8
6
100
AcDbVertex
100
AcDb2dVertex
10
751.3009952148
20
494.3824123789
30
0.0000000000
0
VERTEX
5
227
100
AcDbEntity
8
6
100
AcDbVertex
100
AcDb2dVertex
10
750.9698116526
20
495.1484436724
30
0.0000000000
0
VERTEX
5
228
100
AcDbEntity
8
6
100
AcDbVertex
100
AcDb2dVertex
10
750.6361629583
20
495.9101545121
30
0.0000000000
0
VERTEX
5
229
100
AcDbEntity
8
6
100
AcDbVertex
100
AcDb2dVertex
10
750.3000890402
20
496.6675143691
30
0.0000000000
0
VERTEX
5
22A
100
AcDbEntity
8
6
100
AcDbVertex
100
AcDb2dVertex
10
749.9616298961
20
497.4204930687
30
0.0000000000
0
VERTEX
5
22B
100
AcDbEntity
8
6
100
AcDbVertex
100
AcDb2dVertex
10
749.6208256108
20
498.1690607912
30
0.0000000000
0
VERTEX
5
22C
100
AcDbEntity
8
6
100
AcDbVertex
100
AcDb2dVertex
10
749.2777163529
20
498.9131880735
30
0.0000000000
0
VERTEX
5
22D
100
AcDbEntity
8
6
100
AcDbVertex
100
AcDb2dVertex
10
748.9323423721
20
499.6528458098
30
0.0000000000
0
VERTEX
5
22E
100
AcDbEntity
8
6
100
AcDbVertex
100
AcDb2dVertex
10
748.5847439967
20
500.3880052530
30
0.0000000000
0
VERTEX
5
22F
100
AcDbEntity
8
6
100
AcDbVertex
100
AcDb2dVertex
10
748.2349616303
20
501.1186380158
30
0.0000000000
0
VERTEX
5
230
100
AcDbEntity
8
6
100
AcDbVertex
100
AcDb2dVertex
10
747.8830357492
20
501.8447160716
30
0.0000000000
0
VERTEX
5
231
100
AcDbEntity
8
6
100
AcDbVertex
100
AcDb2dVertex
10
747.5290068996
20
502.5662117559
30
0.0000000000
0
VERTEX
5
232
100
AcDbEntity
8
6
100
AcDbVertex
100
AcDb2dVertex
10
747.1729156948
20
503.2830977669
30
0.0000000000
0
VERTEX
5
233
100
AcDbEntity
8
6
100
AcDbVertex
100
AcDb2dVertex
10
746.8148028121
20
503.9953471669
30
0.0000000000
0
VERTEX
5
234
100
AcDbEntity
8
6
100
AcDbVertex
100
AcDb2dVertex
10
746.4547089905
20
504.7029333830
30
0.0000000000
0
VERTEX
5
235
100
AcDbEntity
8
6
100
AcDbVertex
100
AcDb2dVertex
10
746.0926750272
20
505.4058302083
30
0.0000000000
0
VERTEX
5
236
100
AcDbEntity
8
6
100
AcDbVertex
100
AcDb2dVertex
10
745.7287417754
20
506.1040118028
30
0.0000000000
0
VERTEX
5
237
100
AcDbEntity
8
6
100
AcDbVertex
100
AcDb2dVertex
10
745.3629501409
20
506.7974526940
30
0.0000000000
0
VERTEX
5
238
100
AcDbEntity
8
6
100
AcDbVertex
100
AcDb2dVertex
10
744.9953410798
20
507.4861277785
30
0.0000000000
0
VERTEX
5
239
100
AcDbEntity
8
6
100
AcDbVertex
100
AcDb2dVertex
10
744.6259555952
20
508.1700123220
30
0.0000000000
0
VERTEX
5
23A
100
AcDbEntity
8
6
100
AcDbVertex
100
AcDb2dVertex
10
744.8425271864
20
508.9699851544
30
0.0000000000
0
VERTEX
5
23B
100
AcDbEntity
8
6
100
AcDbVertex
100
AcDb2dVertex
10
745.0557967081
20
509.7728067320
30
0.0000000000
0
VERTEX
5
23C
100
AcDbEntity
8
6
100
AcDbVertex
100
AcDb2dVertex
10
745.2657298670
20
510.5784374031
30
0.0000000000
0
VERTEX
5
23D
100
AcDbEntity
8
6
100
AcDbVertex
100
AcDb2dVertex
10
745.4722925477
20
511.3868372313
30
0.0000000000
0
VERTEX
5
23E
100
AcDbEntity
8
6
100
AcDbVertex
100
AcDb2dVertex
10
745.6754508151
20
512.1979659972
30
0.0000000000
0
VERTEX
5
23F
100
AcDbEntity
8
6
100
AcDbVertex
100
AcDb2dVertex
10
745.8751709172
20
513.0117832002
30
0.0000000000
0
VERTEX
5
240
100
AcDbEntity
8
6
100
AcDbVertex
100
AcDb2dVertex
10
746.0714192874
20
513.8282480612
30
0.0000000000
0
VERTEX
5
241
100
AcDbEntity
8
6
100
AcDbVertex
100
AcDb2dVertex
10
746.2641625472
20
514.6473195237
30
0.0000000000
0
VERTEX
5
242
100
AcDbEntity
8
6
100
AcDbVertex
100
AcDb2dVertex
10
746.4533675085
20
515.4689562562
30
0.0000000000
0
VERTEX
5
243
100
AcDbEntity
8
6
100
AcDbVertex
100
AcDb2dVertex
10
746.6390011761
20
516.2931166547
30
0.0000000000
0
VERTEX
5
244
100
AcDbEntity
8
6
100
AcDbVertex
100
AcDb2dVertex
10
746.8210307504
20
517.1197588439
30
0.0000000000
0
VERTEX
5
245
100
AcDbEntity
8
6
100
AcDbVertex
100
AcDb2dVertex
10
746.9994236297
20
517.9488406800
30
0.0000000000
0
VERTEX
5
246
100
AcDbEntity
8
6
100
AcDbVertex
100
AcDb2dVertex
10
747.1741474125
20
518.7803197521
30
0.0000000000
0
VERTEX
5
247
100
AcDbEntity
8
6
100
AcDbVertex
100
AcDb2dVertex
10
747.3451699005
20
519.6141533852
30
0.0000000000
0
VERTEX
5
248
100
AcDbEntity
8
6
100
AcDbVertex
100
AcDb2dVertex
10
747.5124591003
20
520.4502986415
30
0.0000000000
0
VERTEX
5
249
100
AcDbEntity
8
6
100
AcDbVertex
100
AcDb2dVertex
10
747.6759832264
20
521.2887123231
30
0.0000000000
0
VERTEX
5
24A
100
AcDbEntity
8
6
100
AcDbVertex
100
AcDb2dVertex
10
747.8357107033
20
522.1293509736
30
0.0000000000
0
VERTEX
5
24B
100
AcDbEntity
8
6
100
AcDbVertex
100
AcDb2dVertex
10
747.9916101682
20
522.9721708812
30
0.0000000000
0
VERTEX
5
24C
100
AcDbEntity
8
6
100
AcDbVertex
100
AcDb2dVertex
10
748.1436504730
20
523.8171280797
30
0.0000000000
0
VERTEX
5
24D
100
AcDbEntity
8
6
100
AcDbVertex
100
AcDb2dVertex
10
748.2918006871
20
524.6641783520
30
0.0000000000
0
VERTEX
5
24E
100
AcDbEntity
8
6
100
AcDbVertex
100
AcDb2dVertex
10
747.8691464715
20
525.3166991234
30
0.0000000000
0
VERTEX
5
24F
100
AcDbEntity
8
6
100
AcDbVertex
100
AcDb2dVertex
10
747.4451384315
20
525.9638117723
30
0.0000000000
0
VERTEX
5
250
100
AcDbEntity
8
6
100
AcDbVertex
100
AcDb2dVertex
10
747.0198189859
20
526.6054970788
30
0.0000000000
0
VERTEX
5
251
100
AcDbEntity
8
6
100
AcDbVertex
100
AcDb2dVertex
10
746.5932305533
20
527.2417362139
30
0.0000000000
0
VERTEX
5
252
100
AcDbEntity
8
6
100
AcDbVertex
100
AcDb2dVertex
10
746.1654155495
20
527.8725107400
30
0.0000000000
0
VERTEX
5
253
100
AcDbEntity
8
6
100
AcDbVertex
100
AcDb2dVertex
10
745.7364163849
20
528.4978026117
30
0.0000000000
0
VERTEX
5
254
100
AcDbEntity
8
6
100
AcDbVertex
100
AcDb2dVertex
10
745.3062754611
20
529.1175941756
30
0.0000000000
0
VERTEX
5
255
100
AcDbEntity
8
6
100
AcDbVertex
100
AcDb2dVertex
10
744.8750351683
20
529.7318681712
30
0.0000000000
0
VERTEX
5
256
100
AcDbEntity
8
6
100
AcDbVertex
100
AcDb2dVertex
10
744.4427378827
20
530.3406077308
30
0.0000000000
0
VERTEX
5
257
100
AcDbEntity
8
6
100
AcDbVertex
100
AcDb2dVertex
10
744.0094259633
20
530.9437963801
30
0.0000000000
0
VERTEX
5
258
100
AcDbEntity
8
6
100
AcDbVertex
100
AcDb2dVertex
10
743.5751417491
20
531.5414180386
30
0.0000000000
0
VERTEX
5
259
100
AcDbEntity
8
6
100
AcDbVertex
100
AcDb2dVertex
10
743.1399275566
20
532.1334570193
30
0.0000000000
0
VERTEX
5
25A
100
AcDbEntity
8
6
100
AcDbVertex
100
AcDb2dVertex
10
742.7038256767
20
532.7198980296
30
0.0000000000
0
VERTEX
5
25B
100
AcDbEntity
8
6
100
AcDbVertex
100
AcDb2dVertex
10
742.2668783718
20
533.3007261713
30
0.0000000000
0
VERTEX
5
25C
100
AcDbEntity
8
6
100
AcDbVertex
100
AcDb2dVertex
10
741.8291278732
20
533.8759269406
30
0.0000000000
0
VERTEX
5
25D
100
AcDbEntity
8
6
100
AcDbVertex
100
AcDb2dVertex
10
741.3906163781
20
534.4454862284
30
0.0000000000
0
VERTEX
5
25E
100
AcDbEntity
8
6
100
AcDbVertex
100
AcDb2dVertex
10
740.9513860471
20
535.0093903206
30
0.0000000000
0
VERTEX
5
25F
100
AcDbEntity
8
6
100
AcDbVertex
100
AcDb2dVertex
10
740.5114790008
20
535.5676258981
30
0.0000000000
0
VERTEX
5
260
100
AcDbEntity
8
6
100
AcDbVertex
100
AcDb2dVertex
10
740.0709373177
20
536.1201800370
30
0.0000000000
0
VERTEX
5
261
100
AcDbEntity
8
6
100
AcDbVertex
100
AcDb2dVertex
10
739.6298030309
20
536.6670402084
30
0.0000000000
0
VERTEX
5
262
100
AcDbEntity
8
6
100
AcDbVertex
100
AcDb2dVertex
10
739.7244933934
20
537.4770837950
30
0.0000000000
0
VERTEX
5
263
100
AcDbEntity
8
6
100
AcDbVertex
100
AcDb2dVertex
10
739.8151323647
20
538.2884191098
30
0.0000000000
0
VERTEX
5
264
100
AcDbEntity
8
6
100
AcDbVertex
100
AcDb2dVertex
10
739.9016931235
20
539.1009998045
30
0.0000000000
0
VERTEX
5
265
100
AcDbEntity
8
6
100
AcDbVertex
100
AcDb2dVertex
10
739.9841490995
20
539.9147793275
30
0.0000000000
0
VERTEX
5
266
100
AcDbEntity
8
6
100
AcDbVertex
100
AcDb2dVertex
10
740.0624739758
20
540.7297109265
30
0.0000000000
0
VERTEX
5
267
100
AcDbEntity
8
6
100
AcDbVertex
100
AcDb2dVertex
10
740.1366416907
20
541.5457476512
30
0.0000000000
0
VERTEX
5
268
100
AcDbEntity
8
6
100
AcDbVertex
100
AcDb2dVertex
10
740.2066264397
20
542.3628423552
30
0.0000000000
0
VERTEX
5
269
100
AcDbEntity
8
6
100
AcDbVertex
100
AcDb2dVertex
10
740.2724026781
20
543.1809476994
30
0.0000000000
0
VERTEX
5
26A
100
AcDbEntity
8
6
100
AcDbVertex
100
AcDb2dVertex
10
740.3339451223
20
544.0000161536
30
0.0000000000
0
VERTEX
5
26B
100
AcDbEntity
8
6
100
AcDbVertex
100
AcDb2dVertex
10
740.3912287527
20
544.8200000000
30
0.0000000000
0
VERTEX
5
26C
100
AcDbEntity
8
6
100
AcDbVertex
100
AcDb2dVertex
10
740.4442288148
20
545.6408513352
30
0.0000000000
0
VERTEX
5
26D
100
AcDbEntity
8
6
100
AcDbVertex
100
AcDb2dVertex
10
740.4929208222
20
546.4625220728
30
0.0000000000
0
VERTEX
5
26E
100
AcDbEntity
8
6
100
AcDbVertex
100
AcDb2dVertex
10
740.5372805577
20
547.2849639466
30
0.0000000000
0
VERTEX
5
26F
100
AcDbEntity
8
6
100
AcDbVertex
100
AcDb2dVertex
10
740.5772840759
20
548.1081285123
30
0.0000000000
0
VERTEX
5
270
100
AcDbEntity
8
6
100
AcDbVertex
100
AcDb2dVertex
10
740.6129077050
20
548.9319671509
30
0.0000000000
0
VERTEX
5
271
100
AcDbEntity
8
6
100
AcDbVertex
100
AcDb2dVertex
10
740.6441280484
20
549.7564310711
30
0.0000000000
0
VERTEX
5
272
100
AcDbEntity
8
6
100
AcDbVertex
100
AcDb2dVertex
10
740.6709219874
20
550.5814713120
30
0.0000000000
0
VERTEX
5
273
100
AcDbEntity
8
6
100
AcDbVertex
100
AcDb2dVertex
10
740.6932666824
20
551.4070387456
30
0.0000000000
0
VERTEX
5
274
100
AcDbEntity
8
6
100
AcDbVertex
100
AcDb2dVertex
10
740.7111395750
20
552.2330840797
30
0.0000000000
0
VERTEX
5
275
100
AcDbEntity
8
6
100
AcDbVertex
100
AcDb2dVertex
10
740.7245183903
20
553.0595578606
30
0.0000000000
0
VERTEX
5
276
100
AcDbEntity
8
6
100
AcDbVertex
100
AcDb2dVertex
10
740.2366917596
20
553.5498103253
30
0.0000000000
0
VERTEX
5
277
100
AcDbEntity
8
6
100
AcDbVertex
100
AcDb2dVertex
10
739.7487546891
20
554.0339046721
30
0.0000000000
0
VERTEX
5
278
100
AcDbEntity
8
6
100
AcDbVertex
100
AcDb2dVertex
10
739.2607493095
20
554.5118346522
30
0.0000000000
0
VERTEX
5
279
100
AcDbEntity
8
6
100
AcDbVertex
100
AcDb2dVertex
10
738.7727176591
20
554.9835944197
30
0.0000000000
0
VERTEX
5
27A
100
AcDbEntity
8
6
100
AcDbVertex
100
AcDb2dVertex
10
738.2847016812
20
555.4491785308
30
0.0000000000
0
VERTEX
5
27B
100
AcDbEntity
8
6
100
AcDbVertex
100
AcDb2dVertex
10
737.7967432215
20
555.9085819439
30
0.0000000000
0
VERTEX
5
27C
100
AcDbEntity
8
6
100
AcDbVertex
100
AcDb2dVertex
10
737.3088840248
20
556.3618000186
30
0.0000000000
0
VERTEX
5
27D
100
AcDbEntity
8
6
100
AcDbVertex
100
AcDb2dVertex
10
736.8211657333
20
556.8088285158
30
0.0000000000
0
VERTEX
5
27E
100
AcDbEntity
8
6
100
AcDbVertex
100
AcDb2dVertex
10
736.3336298831
20
557.2496635969
30
0.0000000000
0
VERTEX
5
27F
100
AcDbEntity
8
6
100
AcDbVertex
100
AcDb2dVertex
10
735.8463179018
20
557.6843018232
30
0.0000000000
0
VERTEX
5
280
100
AcDbEntity
8
6
100
AcDbVertex
100
AcDb2dVertex
10
735.3592711061
20
558.1127401558
30
0.0000000000
0
VERTEX
5
281
100
AcDbEntity
8
6
100
AcDbVertex
100
AcDb2dVertex
10
734.8725306988
20
558.5349759548
30
0.0000000000
0
VERTEX
5
282
100
AcDbEntity
8
6
100
AcDbVertex
100
AcDb2dVertex
10
734.3861377662
20
558.9510069787
30
0.0000000000
0
VERTEX
5
283
100
AcDbEntity
8
6
100
AcDbVertex
100
AcDb2dVertex
10
733.9001332758
20
559.3608313841
30
0.0000000000
0
VERTEX
5
284
100
AcDbEntity
8
6
100
AcDbVertex
100
AcDb2dVertex
10
733.4145580733
20
559.7644477246
30
0.0000000000
0
VERTEX
5
285
100
AcDbEntity
8
6
100
AcDbVertex
100
AcDb2dVertex
10
732.9294528801
20
560.1618549507
30
0.0000000000
0
VERTEX
5
286
100
AcDbEntity
8
6
100
AcDbVertex
100
AcDb2dVertex
10
732.4448582910
20
560.5530524087
30
0.0000000000
0
VERTEX
5
287
100
AcDbEntity
8
6
100
AcDbVertex
100
AcDb2dVertex
10
731.9608147712
20
560.9380398405
30
0.0000000000
0
VERTEX
5
288
100
AcDbEntity
8
6
100
AcDbVertex
100
AcDb2dVertex
10
731.4773626537
20
561.3168173824
30
0.0000000000
0
VERTEX
5
289
100
AcDbEntity
8
6
100
AcDbVertex
100
AcDb2dVertex
10
730.9945421373
20
561.6893855647
30
0.0000000000
0
VERTEX
5
28A
100
AcDbEntity
8
6
100
AcDbVertex
100
AcDb2dVertex
10
730.9608982795
20
562.4542967738
30
0.0000000000
0
VERTEX
5
28B
100
AcDbEntity
8
6
100
AcDbVertex
100
AcDb2dVertex
10
730.9227298042
20
563.2188546649
30
0.0000000000
0
VERTEX
5
28C
100
AcDbEntity
8
6
100
AcDbVertex
100
AcDb2dVertex
10
730.8800191902
20
563.9830093515
30
0.0000000000
0
VERTEX
5
28D
100
AcDbEntity
8
6
100
AcDbVertex
100
AcDb2dVertex
10
730.8327492231
20
564.7467108397
30
0.0000000000
0
VERTEX
5
28E
100
AcDbEntity
8
6
100
AcDbVertex
100
AcDb2dVertex
10
730.7809029975
20
565.5099090302
30
0.0000000000
0
VERTEX
5
28F
100
AcDbEntity
8
6
100
AcDbVertex
100
AcDb2dVertex
10
730.7244639179
20
566.2725537222
30
0.0000000000
0
VERTEX
5
290
100
AcDbEntity
8
6
100
AcDbVertex
100
AcDb2dVertex
10
730.6634157008
20
567.0345946156
30
0.0000000000
0
VERTEX
5
291
100
AcDbEntity
8
6
100
AcDbVertex
100
AcDb2dVertex
10
730.5977423757
20
567.7959813142
30
0.0000000000
0
VERTEX
5
292
100
AcDbEntity
8
6
100
AcDbVertex
100
AcDb2dVertex
10
730.5274282871
20
568.5566633285
30
0.0000000000
0
VERTEX
5
293
100
AcDbEntity
8
6
100
AcDbVertex
100
AcDb2dVertex
10
730.4524580954
20
569.3165900787
30
0.0000000000
0
VERTEX
5
294
100
AcDbEntity
8
6
100
AcDbVertex
100
AcDb2dVertex
10
730.3728167788
20
570.0757108979
30
0.0000000000
0
VERTEX
5
295
100
AcDbEntity
8
6
100
AcDbVertex
100
AcDb2dVertex
10
730.2884896344
20
570.8339750343
30
0.0000000000
0
VERTEX
5
296
100
AcDbEntity
8
6
100
AcDbVertex
100
AcDb2dVertex
10
730.1994622799
20
571.5913316551
30
0.0000000000
0
VERTEX
5
297
100
AcDbEntity
8
6
100
AcDbVertex
100
AcDb2dVertex
10
730.1057206547
20
572.3477298485
30
0.0000000000
0
VERTEX
5
298
100
AcDbEntity
8
6
100
AcDbVertex
100
AcDb2dVertex
10
730.0072510215
20
573.1031186277
30
0.0000000000
0
VERTEX
5
299
100
AcDbEntity
8
6
100
AcDbVertex
100
AcDb2dVertex
10
729.9040399676
20
573.8574469330
30
0.0000000000
0
VERTEX
5
29A
100
AcDbEntity
8
6
100
AcDbVertex
100
AcDb2dVertex
10
729.7960744060
20
574.6106636352
30
0.0000000000
0
VERTEX
5
29B
100
AcDbEntity
8
6
100
AcDbVertex
100
AcDb2dVertex
10
729.6833415769
20
575.3627175386
30
0.0000000000
0
VERTEX
5
29C
100
AcDbEntity
8
6
100
AcDbVertex
100
AcDb2dVertex
10
729.5658290493
20
576.1135573838
30
0.0000000000
0
VERTEX
5
29D
100
AcDbEntity
8
6
100
AcDbVertex
100
AcDb2dVertex
10
729.4435247217
20
576.8631318511
30
0.0000000000
0
VERTEX
5
29E
100
AcDbEntity
8
6
100
AcDbVertex
100
AcDb2dVertex
10
728.9237702546
20
577.1577061138
30
0.0000000000
0
VERTEX
5
29F
100
AcDbEntity
8
6
100
AcDbVertex
100
AcDb2dVertex
10
728.4051562586
20
577.4457919286
30
0.0000000000
0
VERTEX
5
2A0
100
AcDbEntity
8
6
100
AcDbVertex
100
AcDb2dVertex
10
727.8877217051
20
577.7273964440
30
0.0000000000
0
VERTEX
5
2A1
100
AcDbEntity
8
6
100
AcDbVertex
100
AcDb2dVertex
10
727.3715053874
20
578.0025271954
30
0.0000000000
0
VERTEX
5
2A2
100
AcDbEntity
8
6
100
AcDbVertex
100
AcDb2dVertex
10
726.8565459178
20
578.2711921038
30
0.0000000000
0
VERTEX
5
2A3
100
AcDbEntity
8
6
100
AcDbVertex
100
AcDb2dVertex
10
726.3428817255
20
578.5333994749
30
0.0000000000
0
VERTEX
5
2A4
100
AcDbEntity
8
6
100
AcDbVertex
100
AcDb2dVertex
10
725.8305510541
20
578.7891579976
30
0.0000000000
0
VERTEX
5
2A5
100
AcDbEntity
8
6
100
AcDbVertex
100
AcDb2dVertex
10
725.3195919594
20
579.0384767431
30
0.0000000000
0
VERTEX
5
2A6
100
AcDbEntity
8
6
100
AcDbVertex
100
AcDb2dVertex
10
724.8100423071
20
579.2813651633
30
0.0000000000
0
VERTEX
5
2A7
100
AcDbEntity
8
6
100
AcDbVertex
100
AcDb2dVertex
10
724.3019397702
20
579.5178330896
30
0.0000000000
0
VERTEX
5
2A8
100
AcDbEntity
8
6
100
AcDbVertex
100
AcDb2dVertex
10
723.7953218272
20
579.7478907321
30
0.0000000000
0
VERTEX
5
2A9
100
AcDbEntity
8
6
100
AcDbVertex
100
AcDb2dVertex
10
723.2902257593
20
579.9715486775
30
0.0000000000
0
VERTEX
5
2AA
100
AcDbEntity
8
6
100
AcDbVertex
100
AcDb2dVertex
10
722.7866886487
20
580.1888178883
30
0.0000000000
0
VERTEX
5
2AB
100
AcDbEntity
8
6
100
AcDbVertex
100
AcDb2dVertex
10
722.2847473756
20
580.3997097014
30
0.0000000000
0
VERTEX
5
2AC
100
AcDbEntity
8
6
100
AcDbVertex
100
AcDb2dVertex
10
721.7844386168
20
580.6042358266
30
0.0000000000
0
VERTEX
5
2AD
100
AcDbEntity
8
6
100
AcDbVertex
100
AcDb2dVertex
10
721.2857988429
20
580.8024083452
30
0.0000000000
0
VERTEX
5
2AE
100
AcDbEntity
8
6
100
AcDbVertex
100
AcDb2dVertex
10
720.7888643162
20
580.9942397088
30
0.0000000000
0
VERTEX
5
2AF
100
AcDbEntity
8
6
100
AcDbVertex
100
AcDb2dVertex
10
720.2936710887
20
581.1797427375
30
0.0000000000
0
VERTEX
5
2B0
100
AcDbEntity
8
6
100
AcDbVertex
100
AcDb2dVertex
10
719.8002549997
20
581.3589306189
30
0.0000000000
0
VERTEX
5
2B1
100
AcDbEntity
8
6
100
AcDbVertex
100
AcDb2dVertex
10
719.3086516740
20
581.5318169062
30
0.0000000000
0
VERTEX
5
2B2
100
AcDbEntity
8
6
100
AcDbVertex
100
AcDb2dVertex
10
719.1489663691
20
582.1994683029
30
0.0000000000
0
VERTEX
5
2B3
100
AcDbEntity
8
6
100
AcDbVertex
100
AcDb2dVertex
10
718.9845915658
20
582.8651454135
30
0.0000000000
0
VERTEX
5
2B4
100
AcDbEntity
8
6
100
AcDbVertex
100
AcDb2dVertex
10
718.8155202367
20
583.5287982132
30
0.0000000000
0
VERTEX
5
2B5
100
AcDbEntity
8
6
100
AcDbVertex
100
AcDb2dVertex
10
718.6417456967
20
584.1903766721
30
0.0000000000
0
VERTEX
5
2B6
100
AcDbEntity
8
6
100
AcDbVertex
100
AcDb2dVertex
10
718.4632616037
20
584.8498307587
30
0.0000000000
0
VERTEX
5
2B7
100
AcDbEntity
8
6
100
AcDbVertex
100
AcDb2dVertex
10
718.2800619597
20
585.5071104426
30
0.0000000000
0
VERTEX
5
2B8
100
AcDbEntity
8
6
100
AcDbVertex
100
AcDb2dVertex
10
718.0921411115
20
586.1621656977
30
0.0000000000
0
VERTEX
5
2B9
100
AcDbEntity
8
6
100
AcDbVertex
100
AcDb2dVertex
10
717.8994937516
20
586.8149465055
30
0.0000000000
0
VERTEX
5
2BA
100
AcDbEntity
8
6
100
AcDbVertex
100
AcDb2dVertex
10
717.7021149190
20
587.4654028577
30
0.0000000000
0
VERTEX
5
2BB
100
AcDbEntity
8
6
100
AcDbVertex
100
AcDb2dVertex
10
717.5000000000
20
588.1134847596
30
0.0000000000
0
VERTEX
5
2BC
100
AcDbEntity
8
6
100
AcDbVertex
100
AcDb2dVertex
10
717.2931447287
20
588.7591422334
30
0.0000000000
0
VERTEX
5
2BD
100
AcDbEntity
8
6
100
AcDbVertex
100
AcDb2dVertex
10
717.0815451881
20
589.4023253208
30
0.0000000000
0
VERTEX
5
2BE
100
AcDbEntity
8
6
100
AcDbVertex
100
AcDb2dVertex
10
716.8651978107
20
590.0429840864
30
0.0000000000
0
VERTEX
5
2BF
100
AcDbEntity
8
6
100
AcDbVertex
100
AcDb2dVertex
10
716.6440993789
20
590.6810686209
30
0.0000000000
0
VERTEX
5
2C0
100
AcDbEntity
8
6
100
AcDbVertex
100
AcDb2dVertex
10
716.4182470263
20
591.3165290436
30
0.0000000000
0
VERTEX
5
2C1
100
AcDbEntity
8
6
100
AcDbVertex
100
AcDb2dVertex
10
716.1876382377
20
591.9493155066
30
0.0000000000
0
VERTEX
5
2C2
100
AcDbEntity
8
6
100
AcDbVertex
100
AcDb2dVertex
10
715.9522708501
20
592.5793781966
30
0.0000000000
0
VERTEX
5
2C3
100
AcDbEntity
8
6
100
AcDbVertex
100
AcDb2dVertex
10
715.7121430531
20
593.2066673391
30
0.0000000000
0
VERTEX
5
2C4
100
AcDbEntity
8
6
100
AcDbVertex
100
AcDb2dVertex
10
715.4672533898
20
593.8311332008
30
0.0000000000
0
VERTEX
5
2C5
100
AcDbEntity
8
6
100
AcDbVertex
100
AcDb2dVertex
10
715.2176007570
20
594.4527260931
30
0.0000000000
0
VERTEX
5
2C6
100
AcDbEntity
8
6
100
AcDbVertex
100
AcDb2dVertex
10
714.7013388615
20
594.5315474046
30
0.0000000000
0
VERTEX
5
2C7
100
AcDbEntity
8
6
100
AcDbVertex
100
AcDb2dVertex
10
714.1873906267
20
594.6039921153
30
0.0000000000
0
VERTEX
5
2C8
100
AcDbEntity
8
6
100
AcDbVertex
100
AcDb2dVertex
10
713.6757892092
20
594.6700802837
30
0.0000000000
0
VERTEX
5
2C9
100
AcDbEntity
8
6
100
AcDbVertex
100
AcDb2dVertex
10
713.1665675132
20
594.7298323129
30
0.0000000000
0
VERTEX
5
2CA
100
AcDbEntity
8
6
100
AcDbVertex
100
AcDb2dVertex
10
712.6597581887
20
594.7832689491
30
0.0000000000
0
VERTEX
5
2CB
100
AcDbEntity
8
6
100
AcDbVertex
100
AcDb2dVertex
10
712.1553936297
20
594.8304112791
30
0.0000000000
0
VERTEX
5
2CC
100
AcDbEntity
8
6
100
AcDbVertex
100
AcDb2dVertex
10
711.6535059721
20
594.8712807292
30
0.0000000000
0
VERTEX
5
2CD
100
AcDbEntity
8
6
100
AcDbVertex
100
AcDb2dVertex
10
711.1541270921
20
594.9058990625
30
0.0000000000
0
VERTEX
5
2CE
100
AcDbEntity
8
6
100
AcDbVertex
100
AcDb2dVertex
10
710.6572886044
20
594.9342883774
30
0.0000000000
0
VERTEX
5
2CF
100
AcDbEntity
8
6
100
AcDbVertex
100
AcDb2dVertex
10
710.1630218601
20
594.9564711054
30
0.0000000000
0
VERTEX
5
2D0
100
AcDbEntity
8
6
100
AcDbVertex
100
AcDb2dVertex
10
709.6713579454
20
594.9724700096
30
0.0000000000
0
VERTEX
5
2D1
100
AcDbEntity
8
6
100
AcDbVertex
100
AcDb2dVertex
10
709.1823276794
20
594.9823081820
30
0.0000000000
0
VERTEX
5
2D2
100
AcDbEntity
8
6
100
AcDbVertex
100
AcDb2dVertex
10
708.6959616126
20
594.9860090420
30
0.0000000000
0
VERTEX
5
2D3
100
AcDbEntity
8
6
100
AcDbVertex
100
AcDb2dVertex
10
708.2122900251
20
594.9835963343
30
0.0000000000
0
VERTEX
5
2D4
100
AcDbEntity
8
6
100
AcDbVertex
100
AcDb2dVertex
10
707.7313429251
20
594.9750941267
30
0.0000000000
0
VERTEX
5
2D5
100
AcDbEntity
8
6
100
AcDbVertex
100
AcDb2dVertex
10
707.2531500469
20
594.9605268083
30
0.0000000000
0
VERTEX
5
2D6
100
AcDbEntity
8
6
100
AcDbVertex
100
AcDb2dVertex
10
706.7777408493
20
594.9399190869
30
0.0000000000
0
VERTEX
5
2D7
100
AcDbEntity
8
6
100
AcDbVertex
100
AcDb2dVertex
10
706.3051445143
20
594.9132959878
30
0.0000000000
0
VERTEX
5
2D8
100
AcDbEntity
8
6
100
AcDbVertex
100
AcDb2dVertex
10
705.8353899450
20
594.8806828506
30
0.0000000000
0
VERTEX
5
2D9
100
AcDbEntity
8
6
100
AcDbVertex
100
AcDb2dVertex
10
705.3685057642
20
594.8421053282
30
0.0000000000
0
VERTEX
5
2DA
100
AcDbEntity
8
6
100
AcDbVertex
100
AcDb2dVertex
10
705.0936613018
20
595.3669975732
30
0.0000000000
0
VERTEX
5
2DB
100
AcDbEntity
8
6
100
AcDbVertex
100
AcDb2dVertex
10
704.8142820417
20
595.8884291083
30
0.0000000000
0
VERTEX
5
2DC
100
AcDbEntity
8
6
100
AcDbVertex
100
AcDb2dVertex
10
704.5303719293
20
596.4063531793
30
0.0000000000
0
VERTEX
5
2DD
100
AcDbEntity
8
6
100
AcDbVertex
100
AcDb2dVertex
10
704.2419352640
20
596.9207231304
30
0.0000000000
0
VERTEX
5
2DE
100
AcDbEntity
8
6
100
AcDbVertex
100
AcDb2dVertex
10
703.9489766996
20
597.4314924068
30
0.0000000000
0
VERTEX
5
2DF
100
AcDbEntity
8
6
100
AcDbVertex
100
AcDb2dVertex
10
703.6515012441
20
597.9386145584
30
0.0000000000
0
VERTEX
5
2E0
100
AcDbEntity
8
6
100
AcDbVertex
100
AcDb2dVertex
10
703.3495142601
20
598.4420432422
30
0.0000000000
0
VERTEX
5
2E1
100
AcDbEntity
8
6
100
AcDbVertex
100
AcDb2dVertex
10
703.0430214646
20
598.9417322259
30
0.0000000000
0
VERTEX
5
2E2
100
AcDbEntity
8
6
100
AcDbVertex
100
AcDb2dVertex
10
702.7320289294
20
599.4376353904
30
0.0000000000
0
VERTEX
5
2E3
100
AcDbEntity
8
6
100
AcDbVertex
100
AcDb2dVertex
10
702.4165430807
20
599.9297067335
30
0.0000000000
0
VERTEX
5
2E4
100
AcDbEntity
8
6
100
AcDbVertex
100
AcDb2dVertex
10
702.0965706996
20
600.4179003721
30
0.0000000000
0
VERTEX
5
2E5
100
AcDbEntity
8
6
100
AcDbVertex
100
AcDb2dVertex
10
701.7721189219
20
600.9021705459
30
0.0000000000
0
VERTEX
5
2E6
100
AcDbEntity
8
6
100
AcDbVertex
100
AcDb2dVertex
10
701.4431952377
20
601.3824716203
30
0.0000000000
0
VERTEX
5
2E7
100
AcDbEntity
8
6
100
AcDbVertex
100
AcDb2dVertex
10
701.1098074922
20
601.8587580891
30
0.0000000000
0
VERTEX
5
2E8
100
AcDbEntity
8
6
100
AcDbVertex
100
AcDb2dVertex
10
700.7719638847
20
602.3309845778
30
0.0000000000
0
VERTEX
5
2E9
100
AcDbEntity
8
6
100
AcDbVertex
100
AcDb2dVertex
10
700.4296729693
20
602.7991058467
30
0.0000000000
0
VERTEX
5
2EA
100
AcDbEntity
8
6
100
AcDbVertex
100
AcDb2dVertex
10
700.0829436541
20
603.2630767934
30
0.0000000000
0
VERTEX
5
2EB
100
AcDbEntity
8
6
100
AcDbVertex
100
AcDb2dVertex
10
699.7317852017
20
603.7228524566
30
0.0000000000
0
VERTEX
5
2EC
100
AcDbEntity
8
6
100
AcDbVertex
100
AcDb2dVertex
10
699.3762072285
20
604.1783880183
30
0.0000000000
0
VERTEX
5
2ED
100
AcDbEntity
8
6
100
AcDbVertex
100
AcDb2dVertex
10
699.0162197049
20
604.6296388073
30
0.0000000000
0
VERTEX
5
2EE
100
AcDbEntity
8
6
100
AcDbVertex
100
AcDb2dVertex
10
698.5386327762
20
604.4873356256
30
0.0000000000
0
VERTEX
5
2EF
100
AcDbEntity
8
6
100
AcDbVertex
100
AcDb2dVertex
10
698.0643750255
20
604.3392022448
30
0.0000000000
0
VERTEX
5
2F0
100
AcDbEntity
8
6
100
AcDbVertex
100
AcDb2dVertex
10
697.5934715350
20
604.1852702667
30
0.0000000000
0
VERTEX
5
2F1
100
AcDbEntity
8
6
100
AcDbVertex
100
AcDb2dVertex
10
697.1259470776
20
604.0255715717
30
0.0000000000
0
VERTEX
5
2F2
100
AcDbEntity
8
6
100
AcDbVertex
100
AcDb2dVertex
10
696.6618261162
20
603.8601383171
30
0.0000000000
0
VERTEX
5
2F3
100
AcDbEntity
8
6
100
AcDbVertex
100
AcDb2dVertex
10
696.2011328017
20
603.6890029343
30
0.0000000000
0
VERTEX
5
2F4
100
AcDbEntity
8
6
100
AcDbVertex
100
AcDb2dVertex
10
695.7438909723
20
603.5121981262
30
0.0000000000
0
VERTEX
5
2F5
100
AcDbEntity
8
6
100
AcDbVertex
100
AcDb2dVertex
10
695.2901241525
20
603.3297568651
30
0.0000000000
0
VERTEX
5
2F6
100
AcDbEntity
8
6
100
AcDbVertex
100
AcDb2dVertex
10
694.8398555513
20
603.1417123898
30
0.0000000000
0
VERTEX
5
2F7
100
AcDbEntity
8
6
100
AcDbVertex
100
AcDb2dVertex
10
694.3931080614
20
602.9480982033
30
0.0000000000
0
VERTEX
5
2F8
100
AcDbEntity
8
6
100
AcDbVertex
100
AcDb2dVertex
10
693.9499042583
20
602.7489480703
30
0.0000000000
0
VERTEX
5
2F9
100
AcDbEntity
8
6
100
AcDbVertex
100
AcDb2dVertex
10
693.5102663985
20
602.5442960145
30
0.0000000000
0
VERTEX
5
2FA
100
AcDbEntity
8
6
100
AcDbVertex
100
AcDb2dVertex
10
693.0742164193
20
602.3341763162
30
0.0000000000
0
VERTEX
5
2FB
100
AcDbEntity
8
6
100
AcDbVertex
100
AcDb2dVertex
10
692.6417759368
20
602.1186235097
30
0.0000000000
0
VERTEX
5
2FC
100
AcDbEntity
8
6
100
AcDbVertex
100
AcDb2dVertex
10
692.2129662457
20
601.8976723808
30
0.0000000000
0
VERTEX
5
2FD
100
AcDbEntity
8
6
100
AcDbVertex
100
AcDb2dVertex
10
691.7878083176
20
601.6713579639
30
0.0000000000
0
VERTEX
5
2FE
100
AcDbEntity
8
6
100
AcDbVertex
100
AcDb2dVertex
10
691.3663228004
20
601.4397155398
30
0.0000000000
0
VERTEX
5
2FF
100
AcDbEntity
8
6
100
AcDbVertex
100
AcDb2dVertex
10
690.9485300171
20
601.2027806330
30
0.0000000000
0
VERTEX
5
300
100
AcDbEntity
8
6
100
AcDbVertex
100
AcDb2dVertex
10
690.5344499649
20
600.9605890088
30
0.0000000000
0
VERTEX
5
301
100
AcDbEntity
8
6
100
AcDbVertex
100
AcDb2dVertex
10
690.1241023144
20
600.7131766709
30
0.0000000000
0
VERTEX
5
302
100
AcDbEntity
8
6
100
AcDbVertex
100
AcDb2dVertex
10
689.7528288905
20
601.0595392251
30
0.0000000000
0
VERTEX
5
303
100
AcDbEntity
8
6
100
AcDbVertex
100
AcDb2dVertex
10
689.3774844085
20
601.4011904874
30
0.0000000000
0
VERTEX
5
304
100
AcDbEntity
8
6
100
AcDbVertex
100
AcDb2dVertex
10
688.9980835176
20
601.7380901603
30
0.0000000000
0
VERTEX
5
305
100
AcDbEntity
8
6
100
AcDbVertex
100
AcDb2dVertex
10
688.6146412092
20
602.0701981413
30
0.0000000000
0
VERTEX
5
306
100
AcDbEntity
8
6
100
AcDbVertex
100
AcDb2dVertex
10
688.2271728154
20
602.3974745255
30
0.0000000000
0
VERTEX
5
307
100
AcDbEntity
8
6
100
AcDbVertex
100
AcDb2dVertex
10
687.8356940092
20
602.7198796081
30
0.0000000000
0
VERTEX
5
308
100
AcDbEntity
8
6
100
AcDbVertex
100
AcDb2dVertex
10
687.4402208033
20
603.0373738878
30
0.0000000000
0
VERTEX
5
309
100
AcDbEntity
8
6
100
AcDbVertex
100
AcDb2dVertex
10
687.0407695497
20
603.3499180689
30
0.0000000000
0
VERTEX
5
30A
100
AcDbEntity
8
6
100
AcDbVertex
100
AcDb2dVertex
10
686.6373569391
20
603.6574730647
30
0.0000000000
0
VERTEX
5
30B
100
AcDbEntity
8
6
100
AcDbVertex
100
AcDb2dVertex
10
686.2300000000
20
603.9600000000
30
0.0000000000
0
VERTEX
5
30C
100
AcDbEntity
8
6
100
AcDbVertex
100
AcDb2dVertex
10
685.8187160981
20
604.2574602137
30
0.0000000000
0
VERTEX
5
30D
100
AcDbEntity
8
6
100
AcDbVertex
100
AcDb2dVertex
10
685.4035229356
20
604.5498152620
30
0.0000000000
0
VERTEX
5
30E
100
AcDbEntity
8
6
100
AcDbVertex
100
AcDb2dVertex
10
684.9844385503
20
604.8370269207
30
0.0000000000
0
VERTEX
5
30F
100
AcDbEntity
8
6
100
AcDbVertex
100
AcDb2dVertex
10
684.5614813149
20
605.1190571881
30
0.0000000000
0
VERTEX
5
310
100
AcDbEntity
8
6
100
AcDbVertex
100
AcDb2dVertex
10
684.1346699361
20
605.3958682879
30
0.0000000000
0
VERTEX
5
311
100
AcDbEntity
8
6
100
AcDbVertex
100
AcDb2dVertex
10
683.7040234541
20
605.6674226718
30
0.0000000000
0
VERTEX
5
312
100
AcDbEntity
8
6
100
AcDbVertex
100
AcDb2dVertex
10
683.2695612412
20
605.9336830220
30
0.0000000000
0
VERTEX
5
313
100
AcDbEntity
8
6
100
AcDbVertex
100
AcDb2dVertex
10
682.8313030016
20
606.1946122542
30
0.0000000000
0
VERTEX
5
314
100
AcDbEntity
8
6
100
AcDbVertex
100
AcDb2dVertex
10
682.3892687698
20
606.4501735201
30
0.0000000000
0
VERTEX
5
315
100
AcDbEntity
8
6
100
AcDbVertex
100
AcDb2dVertex
10
681.9434789103
20
606.7003302104
30
0.0000000000
0
VERTEX
5
316
100
AcDbEntity
8
6
100
AcDbVertex
100
AcDb2dVertex
10
681.5371137081
20
606.3466002620
30
0.0000000000
0
VERTEX
5
317
100
AcDbEntity
8
6
100
AcDbVertex
100
AcDb2dVertex
10
681.1348663234
20
605.9879838349
30
0.0000000000
0
VERTEX
5
318
100
AcDbEntity
8
6
100
AcDbVertex
100
AcDb2dVertex
10
680.7367520546
20
605.6245219202
30
0.0000000000
0
VERTEX
5
319
100
AcDbEntity
8
6
100
AcDbVertex
100
AcDb2dVertex
10
680.3427858552
20
605.2562557032
30
0.0000000000
0
VERTEX
5
31A
100
AcDbEntity
8
6
100
AcDbVertex
100
AcDb2dVertex
10
679.9529823333
20
604.8832265608
30
0.0000000000
0
VERTEX
5
31B
100
AcDbEntity
8
6
100
AcDbVertex
100
AcDb2dVertex
10
679.5673557513
20
604.5054760586
30
0.0000000000
0
VERTEX
5
31C
100
AcDbEntity
8
6
100
AcDbVertex
100
AcDb2dVertex
10
679.1859200253
20
604.1230459479
30
0.0000000000
0
VERTEX
5
31D
100
AcDbEntity
8
6
100
AcDbVertex
100
AcDb2dVertex
10
678.8086887245
20
603.7359781628
30
0.0000000000
0
VERTEX
5
31E
100
AcDbEntity
8
6
100
AcDbVertex
100
AcDb2dVertex
10
678.4356750709
20
603.3443148175
30
0.0000000000
0
VERTEX
5
31F
100
AcDbEntity
8
6
100
AcDbVertex
100
AcDb2dVertex
10
678.0668919386
20
602.9480982033
30
0.0000000000
0
VERTEX
5
320
100
AcDbEntity
8
6
100
AcDbVertex
100
AcDb2dVertex
10
677.7023518537
20
602.5473707855
30
0.0000000000
0
VERTEX
5
321
100
AcDbEntity
8
6
100
AcDbVertex
100
AcDb2dVertex
10
677.3420669939
20
602.1421752009
30
0.0000000000
0
VERTEX
5
322
100
AcDbEntity
8
6
100
AcDbVertex
100
AcDb2dVertex
10
676.9860491876
20
601.7325542546
30
0.0000000000
0
VERTEX
5
323
100
AcDbEntity
8
6
100
AcDbVertex
100
AcDb2dVertex
10
676.6343099144
20
601.3185509169
30
0.0000000000
0
VERTEX
5
324
100
AcDbEntity
8
6
100
AcDbVertex
100
AcDb2dVertex
10
676.2868603040
20
600.9002083209
30
0.0000000000
0
VERTEX
5
325
100
AcDbEntity
8
6
100
AcDbVertex
100
AcDb2dVertex
10
675.9437111362
20
600.4775697591
30
0.0000000000
0
VERTEX
5
326
100
AcDbEntity
8
6
100
AcDbVertex
100
AcDb2dVertex
10
675.6048728408
20
600.0506786807
30
0.0000000000
0
VERTEX
5
327
100
AcDbEntity
8
6
100
AcDbVertex
100
AcDb2dVertex
10
675.2703554969
20
599.6195786885
30
0.0000000000
0
VERTEX
5
328
100
AcDbEntity
8
6
100
AcDbVertex
100
AcDb2dVertex
10
674.9401688332
20
599.1843135361
30
0.0000000000
0
VERTEX
5
329
100
AcDbEntity
8
6
100
AcDbVertex
100
AcDb2dVertex
10
674.6143222272
20
598.7449271249
30
0.0000000000
0
VERTEX
5
32A
100
AcDbEntity
8
6
100
AcDbVertex
100
AcDb2dVertex
10
674.1719215120
20
598.8891559526
30
0.0000000000
0
VERTEX
5
32B
100
AcDbEntity
8
6
100
AcDbVertex
100
AcDb2dVertex
10
673.7261909142
20
599.0277439730
30
0.0000000000
0
VERTEX
5
32C
100
AcDbEntity
8
6
100
AcDbVertex
100
AcDb2dVertex
10
673.2771547887
20
599.1606600919
30
0.0000000000
0
VERTEX
5
32D
100
AcDbEntity
8
6
100
AcDbVertex
100
AcDb2dVertex
10
672.8248377968
20
599.2878734928
30
0.0000000000
0
VERTEX
5
32E
100
AcDbEntity
8
6
100
AcDbVertex
100
AcDb2dVertex
10
672.3692649044
20
599.4093536400
30
0.0000000000
0
VERTEX
5
32F
100
AcDbEntity
8
6
100
AcDbVertex
100
AcDb2dVertex
10
671.9104613811
20
599.5250702802
30
0.0000000000
0
VERTEX
5
330
100
AcDbEntity
8
6
100
AcDbVertex
100
AcDb2dVertex
10
671.4484527987
20
599.6349934452
30
0.0000000000
0
VERTEX
5
331
100
AcDbEntity
8
6
100
AcDbVertex
100
AcDb2dVertex
10
670.9832650298
20
599.7390934543
30
0.0000000000
0
VERTEX
5
332
100
AcDbEntity
8
6
100
AcDbVertex
100
AcDb2dVertex
10
670.5149242466
20
599.8373409167
30
0.0000000000
0
VERTEX
5
333
100
AcDbEntity
8
6
100
AcDbVertex
100
AcDb2dVertex
10
670.0434569193
20
599.9297067335
30
0.0000000000
0
VERTEX
5
334
100
AcDbEntity
8
6
100
AcDbVertex
100
AcDb2dVertex
10
669.5688898149
20
600.0161621003
30
0.0000000000
0
VERTEX
5
335
100
AcDbEntity
8
6
100
AcDbVertex
100
AcDb2dVertex
10
669.0912499955
20
600.0966785096
30
0.0000000000
0
VERTEX
5
336
100
AcDbEntity
8
6
100
AcDbVertex
100
AcDb2dVertex
10
668.6105648173
20
600.1712277526
30
0.0000000000
0
VERTEX
5
337
100
AcDbEntity
8
6
100
AcDbVertex
100
AcDb2dVertex
10
668.1268619286
20
600.2397819221
30
0.0000000000
0
VERTEX
5
338
100
AcDbEntity
8
6
100
AcDbVertex
100
AcDb2dVertex
10
667.6401692686
20
600.3023134140
30
0.0000000000
0
VERTEX
5
339
100
AcDbEntity
8
6
100
AcDbVertex
100
AcDb2dVertex
10
667.1505150661
20
600.3587949304
30
0.0000000000
0
VERTEX
5
33A
100
AcDbEntity
8
6
100
AcDbVertex
100
AcDb2dVertex
10
666.6579278374
20
600.4091994812
30
0.0000000000
0
VERTEX
5
33B
100
AcDbEntity
8
6
100
AcDbVertex
100
AcDb2dVertex
10
666.1624363853
20
600.4535003865
30
0.0000000000
0
VERTEX
5
33C
100
AcDbEntity
8
6
100
AcDbVertex
100
AcDb2dVertex
10
665.6640697973
20
600.4916712788
30
0.0000000000
0
VERTEX
5
33D
100
AcDbEntity
8
6
100
AcDbVertex
100
AcDb2dVertex
10
665.1628574440
20
600.5236861052
30
0.0000000000
0
VERTEX
5
33E
100
AcDbEntity
8
6
100
AcDbVertex
100
AcDb2dVertex
10
664.8554070854
20
599.9826355016
30
0.0000000000
0
VERTEX
5
33F
100
AcDbEntity
8
6
100
AcDbVertex
100
AcDb2dVertex
10
664.5525825614
20
599.4379751450
30
0.0000000000
0
VERTEX
5
340
100
AcDbEntity
8
6
100
AcDbVertex
100
AcDb2dVertex
10
664.2543883438
20
598.8897526225
30
0.0000000000
0
VERTEX
5
341
100
AcDbEntity
8
6
100
AcDbVertex
100
AcDb2dVertex
10
663.9608285476
20
598.3380156176
30
0.0000000000
0
VERTEX
5
342
100
AcDbEntity
8
6
100
AcDbVertex
100
AcDb2dVertex
10
663.6719069311
20
597.7828119070
30
0.0000000000
0
VERTEX
5
343
100
AcDbEntity
8
6
100
AcDbVertex
100
AcDb2dVertex
10
663.3876268960
20
597.2241893579
30
0.0000000000
0
VERTEX
5
344
100
AcDbEntity
8
6
100
AcDbVertex
100
AcDb2dVertex
10
663.1079914877
20
596.6621959246
30
0.0000000000
0
VERTEX
5
345
100
AcDbEntity
8
6
100
AcDbVertex
100
AcDb2dVertex
10
662.8330033956
20
596.0968796454
30
0.0000000000
0
VERTEX
5
346
100
AcDbEntity
8
6
100
AcDbVertex
100
AcDb2dVertex
10
662.5626649536
20
595.5282886399
30
0.0000000000
0
VERTEX
5
347
100
AcDbEntity
8
6
100
AcDbVertex
100
AcDb2dVertex
10
662.2969781399
20
594.9564711054
30
0.0000000000
0
VERTEX
5
348
100
AcDbEntity
8
6
100
AcDbVertex
100
AcDb2dVertex
10
662.0359445777
20
594.3814753142
30
0.0000000000
0
VERTEX
5
349
100
AcDbEntity
8
6
100
AcDbVertex
100
AcDb2dVertex
10
661.7795655356
20
593.8033496103
30
0.0000000000
0
VERTEX
5
34A
100
AcDbEntity
8
6
100
AcDbVertex
100
AcDb2dVertex
10
661.5278419275
20
593.2221424064
30
0.0000000000
0
VERTEX
5
34B
100
AcDbEntity
8
6
100
AcDbVertex
100
AcDb2dVertex
10
661.2807743137
20
592.6379021808
30
0.0000000000
0
VERTEX
5
34C
100
AcDbEntity
8
6
100
AcDbVertex
100
AcDb2dVertex
10
661.0383629007
20
592.0506774743
30
0.0000000000
0
VERTEX
5
34D
100
AcDbEntity
8
6
100
AcDbVertex
100
AcDb2dVertex
10
660.8006075420
20
591.4605168871
30
0.0000000000
0
VERTEX
5
34E
100
AcDbEntity
8
6
100
AcDbVertex
100
AcDb2dVertex
10
660.5675077382
20
590.8674690759
30
0.0000000000
0
VERTEX
5
34F
100
AcDbEntity
8
6
100
AcDbVertex
100
AcDb2dVertex
10
660.3390626379
20
590.2715827505
30
0.0000000000
0
VERTEX
5
350
100
AcDbEntity
8
6
100
AcDbVertex
100
AcDb2dVertex
10
660.1152710381
20
589.6729066708
30
0.0000000000
0
VERTEX
5
351
100
AcDbEntity
8
6
100
AcDbVertex
100
AcDb2dVertex
10
659.8961313844
20
589.0714896439
30
0.0000000000
0
VERTEX
5
352
100
AcDbEntity
8
6
100
AcDbVertex
100
AcDb2dVertex
10
659.4127522556
20
589.0037557889
30
0.0000000000
0
VERTEX
5
353
100
AcDbEntity
8
6
100
AcDbVertex
100
AcDb2dVertex
10
658.9270113457
20
588.9298360229
30
0.0000000000
0
VERTEX
5
354
100
AcDbEntity
8
6
100
AcDbVertex
100
AcDb2dVertex
10
658.4389410554
20
588.8497105738
30
0.0000000000
0
VERTEX
5
355
100
AcDbEntity
8
6
100
AcDbVertex
100
AcDb2dVertex
10
657.9485740355
20
588.7633600117
30
0.0000000000
0
VERTEX
5
356
100
AcDbEntity
8
6
100
AcDbVertex
100
AcDb2dVertex
10
657.4559431841
20
588.6707652506
30
0.0000000000
0
VERTEX
5
357
100
AcDbEntity
8
6
100
AcDbVertex
100
AcDb2dVertex
10
656.9610816457
20
588.5719075505
30
0.0000000000
0
VERTEX
5
358
100
AcDbEntity
8
6
100
AcDbVertex
100
AcDb2dVertex
10
656.4640228082
20
588.4667685188
30
0.0000000000
0
VERTEX
5
359
100
AcDbEntity
8
6
100
AcDbVertex
100
AcDb2dVertex
10
655.9648003017
20
588.3553301123
30
0.0000000000
0
VERTEX
5
35A
100
AcDbEntity
8
6
100
AcDbVertex
100
AcDb2dVertex
10
655.4634479963
20
588.2375746390
30
0.0000000000
0
VERTEX
5
35B
100
AcDbEntity
8
6
100
AcDbVertex
100
AcDb2dVertex
10
654.9600000000
20
588.1134847596
30
0.0000000000
0
VERTEX
5
35C
100
AcDbEntity
8
6
100
AcDbVertex
100
AcDb2dVertex
10
654.4544906569
20
587.9830434892
30
0.0000000000
0
VERTEX
5
35D
100
AcDbEntity
8
6
100
AcDbVertex
100
AcDb2dVertex
10
653.9469545451
20
587.8462341993
30
0.0000000000
0
VERTEX
5
35E
100
AcDbEntity
8
6
100
AcDbVertex
100
AcDb2dVertex
10
653.4374264745
20
587.7030406190
30
0.0000000000
0
VERTEX
5
35F
100
AcDbEntity
8
6
100
AcDbVertex
100
AcDb2dVertex
10
652.9259414850
20
587.5534468370
30
0.0000000000
0
VERTEX
5
360
100
AcDbEntity
8
6
100
AcDbVertex
100
AcDb2dVertex
10
652.4125348444
20
587.3974373033
30
0.0000000000
0
VERTEX
5
361
100
AcDbEntity
8
6
100
AcDbVertex
100
AcDb2dVertex
10
651.8972420460
20
587.2349968302
30
0.0000000000
0
VERTEX
5
362
100
AcDbEntity
8
6
100
AcDbVertex
100
AcDb2dVertex
10
651.3800988070
20
587.0661105948
30
0.0000000000
0
VERTEX
5
363
100
AcDbEntity
8
6
100
AcDbVertex
100
AcDb2dVertex
10
650.8611410661
20
586.8907641397
30
0.0000000000
0
VERTEX
5
364
100
AcDbEntity
8
6
100
AcDbVertex
100
AcDb2dVertex
10
650.3404049813
20
586.7089433750
30
0.0000000000
0
VERTEX
5
365
100
AcDbEntity
8
6
100
AcDbVertex
100
AcDb2dVertex
10
649.8179269279
20
586.5206345801
30
0.0000000000
0
VERTEX
5
366
100
AcDbEntity
8
6
100
AcDbVertex
100
AcDb2dVertex
10
649.6303436467
20
585.8291350257
30
0.0000000000
0
VERTEX
5
367
100
AcDbEntity
8
6
100
AcDbVertex
100
AcDb2dVertex
10
649.4475789741
20
585.1355484429
30
0.0000000000
0
VERTEX
5
368
100
AcDbEntity
8
6
100
AcDbVertex
100
AcDb2dVertex
10
649.2696262509
20
584.4399257716
30
0.0000000000
0
VERTEX
5
369
100
AcDbEntity
8
6
100
AcDbVertex
100
AcDb2dVertex
10
649.0964784730
20
583.7423179438
30
0.0000000000
0
VERTEX
5
36A
100
AcDbEntity
8
6
100
AcDbVertex
100
AcDb2dVertex
10
648.9281282926
20
583.0427758804
30
0.0000000000
0
VERTEX
5
36B
100
AcDbEntity
8
6
100
AcDbVertex
100
AcDb2dVertex
10
648.7645680189
20
582.3413504879
30
0.0000000000
0
VERTEX
5
36C
100
AcDbEntity
8
6
100
AcDbVertex
100
AcDb2dVertex
10
648.6057896192
20
581.6380926557
30
0.0000000000
0
VERTEX
5
36D
100
AcDbEntity
8
6
100
AcDbVertex
100
AcDb2dVertex
10
648.4517847200
20
580.9330532527
30
0.0000000000
0
VERTEX
5
36E
100
AcDbEntity
8
6
100
AcDbVertex
100
AcDb2dVertex
10
648.3025446076
20
580.2262831244
30
0.0000000000
0
VERTEX
5
36F
100
AcDbEntity
8
6
100
AcDbVertex
100
AcDb2dVertex
10
648.1580602298
20
579.5178330896
30
0.0000000000
0
VERTEX
5
370
100
AcDbEntity
8
6
100
AcDbVertex
100
AcDb2dVertex
10
648.0183221962
20
578.8077539379
30
0.0000000000
0
VERTEX
5
371
100
AcDbEntity
8
6
100
AcDbVertex
100
AcDb2dVertex
10
647.8833207797
20
578.0960964260
30
0.0000000000
0
VERTEX
5
372
100
AcDbEntity
8
6
100
AcDbVertex
100
AcDb2dVertex
10
647.7530459178
20
577.3829112751
30
0.0000000000
0
VERTEX
5
373
100
AcDbEntity
8
6
100
AcDbVertex
100
AcDb2dVertex
10
647.6274872130
20
576.6682491674
30
0.0000000000
0
VERTEX
5
374
100
AcDbEntity
8
6
100
AcDbVertex
100
AcDb2dVertex
10
647.5066339347
20
575.9521607437
30
0.0000000000
0
VERTEX
5
375
100
AcDbEntity
8
6
100
AcDbVertex
100
AcDb2dVertex
10
647.3904750197
20
575.2346965999
30
0.0000000000
0
VERTEX
5
376
100
AcDbEntity
8
6
100
AcDbVertex
100
AcDb2dVertex
10
647.2789990740
20
574.5159072842
30
0.0000000000
0
VERTEX
5
377
100
AcDbEntity
8
6
100
AcDbVertex
100
AcDb2dVertex
10
647.1721943734
20
573.7958432937
30
0.0000000000
0
VERTEX
5
378
100
AcDbEntity
8
6
100
AcDbVertex
100
AcDb2dVertex
10
647.0700488652
20
573.0745550722
30
0.0000000000
0
VERTEX
5
379
100
AcDbEntity
8
6
100
AcDbVertex
100
AcDb2dVertex
10
646.9725501689
20
572.3520930062
30
0.0000000000
0
VERTEX
5
37A
100
AcDbEntity
8
6
100
AcDbVertex
100
AcDb2dVertex
10
646.4811341154
20
572.0770124188
30
0.0000000000
0
VERTEX
5
37B
100
AcDbEntity
8
6
100
AcDbVertex
100
AcDb2dVertex
10
645.9884853336
20
571.7956223763
30
0.0000000000
0
VERTEX
5
37C
100
AcDbEntity
8
6
100
AcDbVertex
100
AcDb2dVertex
10
645.4946420623
20
571.5079157762
30
0.0000000000
0
VERTEX
5
37D
100
AcDbEntity
8
6
100
AcDbVertex
100
AcDb2dVertex
10
644.9996427163
20
571.2138858991
30
0.0000000000
0
VERTEX
5
37E
100
AcDbEntity
8
6
100
AcDbVertex
100
AcDb2dVertex
10
644.5035258845
20
570.9135264097
30
0.0000000000
0
VERTEX
5
37F
100
AcDbEntity
8
6
100
AcDbVertex
100
AcDb2dVertex
10
644.0063303269
20
570.6068313581
30
0.0000000000
0
VERTEX
5
380
100
AcDbEntity
8
6
100
AcDbVertex
100
AcDb2dVertex
10
643.5080949727
20
570.2937951810
30
0.0000000000
0
VERTEX
5
381
100
AcDbEntity
8
6
100
AcDbVertex
100
AcDb2dVertex
10
643.0088589174
20
569.9744127022
30
0.0000000000
0
VERTEX
5
382
100
AcDbEntity
8
6
100
AcDbVertex
100
AcDb2dVertex
10
642.5086614209
20
569.6486791342
30
0.0000000000
0
VERTEX
5
383
100
AcDbEntity
8
6
100
AcDbVertex
100
AcDb2dVertex
10
642.0075419046
20
569.3165900787
30
0.0000000000
0
VERTEX
5
384
100
AcDbEntity
8
6
100
AcDbVertex
100
AcDb2dVertex
10
641.5055399492
20
568.9781415281
30
0.0000000000
0
VERTEX
5
385
100
AcDbEntity
8
6
100
AcDbVertex
100
AcDb2dVertex
10
641.0026952922
20
568.6333298660
30
0.0000000000
0
VERTEX
5
386
100
AcDbEntity
8
6
100
AcDbVertex
100
AcDb2dVertex
10
640.4990478252
20
568.2821518682
30
0.0000000000
0
VERTEX
5
387
100
AcDbEntity
8
6
100
AcDbVertex
100
AcDb2dVertex
10
639.9946375917
20
567.9246047039
30
0.0000000000
0
VERTEX
5
388
100
AcDbEntity
8
6
100
AcDbVertex
100
AcDb2dVertex
10
639.4895047844
20
567.5606859363
30
0.0000000000
0
VERTEX
5
389
100
AcDbEntity
8
6
100
AcDbVertex
100
AcDb2dVertex
10
638.9836897429
20
567.1903935236
30
0.0000000000
0
VERTEX
5
38A
100
AcDbEntity
8
6
100
AcDbVertex
100
AcDb2dVertex
10
638.4772329508
20
566.8137258198
30
0.0000000000
0
VERTEX
5
38B
100
AcDbEntity
8
6
100
AcDbVertex
100
AcDb2dVertex
10
637.9701750335
20
566.4306815754
30
0.0000000000
0
VERTEX
5
38C
100
AcDbEntity
8
6
100
AcDbVertex
100
AcDb2dVertex
10
637.4625567555
20
566.0412599385
30
0.0000000000
0
VERTEX
5
38D
100
AcDbEntity
8
6
100
AcDbVertex
100
AcDb2dVertex
10
636.9544190178
20
565.6454604553
30
0.0000000000
0
VERTEX
5
38E
100
AcDbEntity
8
6
100
AcDbVertex
100
AcDb2dVertex
10
636.8994863047
20
564.8506365022
30
0.0000000000
0
VERTEX
5
38F
100
AcDbEntity
8
6
100
AcDbVertex
100
AcDb2dVertex
10
636.8492365939
20
564.0553904725
30
0.0000000000
0
VERTEX
5
390
100
AcDbEntity
8
6
100
AcDbVertex
100
AcDb2dVertex
10
636.8036525491
20
563.2597731878
30
0.0000000000
0
VERTEX
5
391
100
AcDbEntity
8
6
100
AcDbVertex
100
AcDb2dVertex
10
636.7627165244
20
562.4638353578
30
0.0000000000
0
VERTEX
5
392
100
AcDbEntity
8
6
100
AcDbVertex
100
AcDb2dVertex
10
636.7264105667
20
561.6676275771
30
0.0000000000
0
VERTEX
5
393
100
AcDbEntity
8
6
100
AcDbVertex
100
AcDb2dVertex
10
636.6947164167
20
560.8712003226
30
0.0000000000
0
VERTEX
5
394
100
AcDbEntity
8
6
100
AcDbVertex
100
AcDb2dVertex
10
636.6676155113
20
560.0746039506
30
0.0000000000
0
VERTEX
5
395
100
AcDbEntity
8
6
100
AcDbVertex
100
AcDb2dVertex
10
636.6450889842
20
559.2778886940
30
0.0000000000
0
VERTEX
5
396
100
AcDbEntity
8
6
100
AcDbVertex
100
AcDb2dVertex
10
636.6271176686
20
558.4811046590
30
0.0000000000
0
VERTEX
5
397
100
AcDbEntity
8
6
100
AcDbVertex
100
AcDb2dVertex
10
636.6136820982
20
557.6843018232
30
0.0000000000
0
VERTEX
5
398
100
AcDbEntity
8
6
100
AcDbVertex
100
AcDb2dVertex
10
636.6047625092
20
556.8875300317
30
0.0000000000
0
VERTEX
5
399
100
AcDbEntity
8
6
100
AcDbVertex
100
AcDb2dVertex
10
636.6003388419
20
556.0908389952
30
0.0000000000
0
VERTEX
5
39A
100
AcDbEntity
8
6
100
AcDbVertex
100
AcDb2dVertex
10
636.6003907426
20
555.2942782865
30
0.0000000000
0
VERTEX
5
39B
100
AcDbEntity
8
6
100
AcDbVertex
100
AcDb2dVertex
10
636.6048975650
20
554.4978973384
30
0.0000000000
0
VERTEX
5
39C
100
AcDbEntity
8
6
100
AcDbVertex
100
AcDb2dVertex
10
636.6138383725
20
553.7017454402
30
0.0000000000
0
VERTEX
5
39D
100
AcDbEntity
8
6
100
AcDbVertex
100
AcDb2dVertex
10
636.6271919395
20
552.9058717355
30
0.0000000000
0
VERTEX
5
39E
100
AcDbEntity
8
6
100
AcDbVertex
100
AcDb2dVertex
10
636.6449367533
20
552.1103252192
30
0.0000000000
0
VERTEX
5
39F
100
AcDbEntity
8
6
100
AcDbVertex
100
AcDb2dVertex
10
636.6670510163
20
551.3151547348
30
0.0000000000
0
VERTEX
5
3A0
100
AcDbEntity
8
6
100
AcDbVertex
100
AcDb2dVertex
10
636.6935126472
20
550.5204089717
30
0.0000000000
0
VERTEX
5
3A1
100
AcDbEntity
8
6
100
AcDbVertex
100
AcDb2dVertex
10
636.7242992835
20
549.7261364625
30
0.0000000000
0
VERTEX
5
3A2
100
AcDbEntity
8
6
100
AcDbVertex
100
AcDb2dVertex
10
636.2583354971
20
549.2624554301
30
0.0000000000
0
VERTEX
5
3A3
100
AcDbEntity
8
6
100
AcDbVertex
100
AcDb2dVertex
10
635.7923520438
20
548.7927713775
30
0.0000000000
0
VERTEX
5
3A4
100
AcDbEntity
8
6
100
AcDbVertex
100
AcDb2dVertex
10
635.3263903942
20
548.3170903558
30
0.0000000000
0
VERTEX
5
3A5
100
AcDbEntity
8
6
100
AcDbVertex
100
AcDb2dVertex
10
634.8604921097
20
547.8354188139
30
0.0000000000
0
VERTEX
5
3A6
100
AcDbEntity
8
6
100
AcDbVertex
100
AcDb2dVertex
10
634.3946988396
20
547.3477635989
30
0.0000000000
0
VERTEX
5
3A7
100
AcDbEntity
8
6
100
AcDbVertex
100
AcDb2dVertex
10
633.9290523185
20
546.8541319569
30
0.0000000000
0
VERTEX
5
3A8
100
AcDbEntity
8
6
100
AcDbVertex
100
AcDb2dVertex
10
633.4635943635
20
546.3545315325
30
0.0000000000
0
VERTEX
5
3A9
100
AcDbEntity
8
6
100
AcDbVertex
100
AcDb2dVertex
10
632.9983668716
20
545.8489703695
30
0.0000000000
0
VERTEX
5
3AA
100
AcDbEntity
8
6
100
AcDbVertex
100
AcDb2dVertex
10
632.5334118167
20
545.3374569111
30
0.0000000000
0
VERTEX
5
3AB
100
AcDbEntity
8
6
100
AcDbVertex
100
AcDb2dVertex
10
632.0687712473
20
544.8200000000
30
0.0000000000
0
VERTEX
5
3AC
100
AcDbEntity
8
6
100
AcDbVertex
100
AcDb2dVertex
10
631.6044872833
20
544.2966088786
30
0.0000000000
0
VERTEX
5
3AD
100
AcDbEntity
8
6
100
AcDbVertex
100
AcDb2dVertex
10
631.1406021134
20
543.7672931892
30
0.0000000000
0
VERTEX
5
3AE
100
AcDbEntity
8
6
100
AcDbVertex
100
AcDb2dVertex
10
630.6771579926
20
543.2320629741
30
0.0000000000
0
VERTEX
5
3AF
100
AcDbEntity
8
6
100
AcDbVertex
100
AcDb2dVertex
10
630.2141972389
20
542.6909286758
30
0.0000000000
0
VERTEX
5
3B0
100
AcDbEntity
8
6
100
AcDbVertex
100
AcDb2dVertex
10
629.7517622311
20
542.1439011370
30
0.0000000000
0
VERTEX
5
3B1
100
AcDbEntity
8
6
100
AcDbVertex
100
AcDb2dVertex
10
629.2898954056
20
541.5909916006
30
0.0000000000
0
VERTEX
5
3B2
100
AcDbEntity
8
6
100
AcDbVertex
100
AcDb2dVertex
10
628.8286392538
20
541.0322117100
30
0.0000000000
0
VERTEX
5
3B3
100
AcDbEntity
8
6
100
AcDbVertex
100
AcDb2dVertex
10
628.3680363192
20
540.4675735086
30
0.0000000000
0
VERTEX
5
3B4
100
AcDbEntity
8
6
100
AcDbVertex
100
AcDb2dVertex
10
627.9081291948
20
539.8970894404
30
0.0000000000
0
VERTEX
5
3B5
100
AcDbEntity
8
6
100
AcDbVertex
100
AcDb2dVertex
10
627.4489605199
20
539.3207723498
30
0.0000000000
0
VERTEX
5
3B6
100
AcDbEntity
8
6
100
AcDbVertex
100
AcDb2dVertex
10
627.5304219484
20
538.4767899367
30
0.0000000000
0
VERTEX
5
3B7
100
AcDbEntity
8
6
100
AcDbVertex
100
AcDb2dVertex
10
627.6161116343
20
537.6340791628
30
0.0000000000
0
VERTEX
5
3B8
100
AcDbEntity
8
6
100
AcDbVertex
100
AcDb2dVertex
10
627.7060027452
20
536.7926872680
30
0.0000000000
0
VERTEX
5
3B9
100
AcDbEntity
8
6
100
AcDbVertex
100
AcDb2dVertex
10
627.8000681961
20
535.9526612835
30
0.0000000000
0
VERTEX
5
3BA
100
AcDbEntity
8
6
100
AcDbVertex
100
AcDb2dVertex
10
627.8982806520
20
535.1140480300
30
0.0000000000
0
VERTEX
5
3BB
100
AcDbEntity
8
6
100
AcDbVertex
100
AcDb2dVertex
10
628.0006125299
20
534.2768941147
30
0.0000000000
0
VERTEX
5
3BC
100
AcDbEntity
8
6
100
AcDbVertex
100
AcDb2dVertex
10
628.1070360005
20
533.4412459292
30
0.0000000000
0
VERTEX
5
3BD
100
AcDbEntity
8
6
100
AcDbVertex
100
AcDb2dVertex
10
628.2175229912
20
532.6071496470
30
0.0000000000
0
VERTEX
5
3BE
100
AcDbEntity
8
6
100
AcDbVertex
100
AcDb2dVertex
10
628.3320451878
20
531.7746512207
30
0.0000000000
0
VERTEX
5
3BF
100
AcDbEntity
8
6
100
AcDbVertex
100
AcDb2dVertex
10
628.4505740367
20
530.9437963801
30
0.0000000000
0
VERTEX
5
3C0
100
AcDbEntity
8
6
100
AcDbVertex
100
AcDb2dVertex
10
628.5730807476
20
530.1146306298
30
0.0000000000
0
VERTEX
5
3C1
100
AcDbEntity
8
6
100
AcDbVertex
100
AcDb2dVertex
10
628.6995362951
20
529.2871992462
30
0.0000000000
0
VERTEX
5
3C2
100
AcDbEntity
8
6
100
AcDbVertex
100
AcDb2dVertex
10
628.8299114215
20
528.4615472758
30
0.0000000000
0
VERTEX
5
3C3
100
AcDbEntity
8
6
100
AcDbVertex
100
AcDb2dVertex
10
628.9641766387
20
527.6377195328
30
0.0000000000
0
VERTEX
5
3C4
100
AcDbEntity
8
6
100
AcDbVertex
100
AcDb2dVertex
10
629.1023022307
20
526.8157605962
30
0.0000000000
0
VERTEX
5
3C5
100
AcDbEntity
8
6
100
AcDbVertex
100
AcDb2dVertex
10
629.2442582561
20
525.9957148084
30
0.0000000000
0
VERTEX
5
3C6
100
AcDbEntity
8
6
100
AcDbVertex
100
AcDb2dVertex
10
629.3900145497
20
525.1776262719
30
0.0000000000
0
VERTEX
5
3C7
100
AcDbEntity
8
6
100
AcDbVertex
100
AcDb2dVertex
10
629.5395407257
20
524.3615388480
30
0.0000000000
0
VERTEX
5
3C8
100
AcDbEntity
8
6
100
AcDbVertex
100
AcDb2dVertex
10
629.6928061794
20
523.5474961537
30
0.0000000000
0
VERTEX
5
3C9
100
AcDbEntity
8
6
100
AcDbVertex
100
AcDb2dVertex
10
629.8497800899
20
522.7355415601
30
0.0000000000
0
VERTEX
5
3CA
100
AcDbEntity
8
6
100
AcDbVertex
100
AcDb2dVertex
10
629.4410232326
20
522.1148591788
30
0.0000000000
0
VERTEX
5
3CB
100
AcDbEntity
8
6
100
AcDbVertex
100
AcDb2dVertex
10
629.0334611100
20
521.4888893082
30
0.0000000000
0
VERTEX
5
3CC
100
AcDbEntity
8
6
100
AcDbVertex
100
AcDb2dVertex
10
628.6271355986
20
520.8576507403
30
0.0000000000
0
VERTEX
5
3CD
100
AcDbEntity
8
6
100
AcDbVertex
100
AcDb2dVertex
10
628.2220885737
20
520.2211626532
30
0.0000000000
0
VERTEX
5
3CE
100
AcDbEntity
8
6
100
AcDbVertex
100
AcDb2dVertex
10
627.8183619069
20
519.5794446098
30
0.0000000000
0
VERTEX
5
3CF
100
AcDbEntity
8
6
100
AcDbVertex
100
AcDb2dVertex
10
627.4159974632
20
518.9325165579
30
0.0000000000
0
VERTEX
5
3D0
100
AcDbEntity
8
6
100
AcDbVertex
100
AcDb2dVertex
10
627.0150370979
20
518.2803988295
30
0.0000000000
0
VERTEX
5
3D1
100
AcDbEntity
8
6
100
AcDbVertex
100
AcDb2dVertex
10
626.6155226541
20
517.6231121401
30
0.0000000000
0
VERTEX
5
3D2
100
AcDbEntity
8
6
100
AcDbVertex
100
AcDb2dVertex
10
626.2174959595
20
516.9606775882
30
0.0000000000
0
VERTEX
5
3D3
100
AcDbEntity
8
6
100
AcDbVertex
100
AcDb2dVertex
10
625.8209988239
20
516.2931166547
30
0.0000000000
0
VERTEX
5
3D4
100
AcDbEntity
8
6
100
AcDbVertex
100
AcDb2dVertex
10
625.4260730361
20
515.6204512025
30
0.0000000000
0
VERTEX
5
3D5
100
AcDbEntity
8
6
100
AcDbVertex
100
AcDb2dVertex
10
625.0327603611
20
514.9427034753
30
0.0000000000
0
VERTEX
5
3D6
100
AcDbEntity
8
6
100
AcDbVertex
100
AcDb2dVertex
10
624.6411025374
20
514.2598960976
30
0.0000000000
0
VERTEX
5
3D7
100
AcDbEntity
8
6
100
AcDbVertex
100
AcDb2dVertex
10
624.2511412739
20
513.5720520735
30
0.0000000000
0
VERTEX
5
3D8
100
AcDbEntity
8
6
100
AcDbVertex
100
AcDb2dVertex
10
623.8629182471
20
512.8791947863
30
0.0000000000
0
VERTEX
5
3D9
100
AcDbEntity
8
6
100
AcDbVertex
100
AcDb2dVertex
10
623.4764750985
20
512.1813479974
30
0.0000000000
0
VERTEX
5
3DA
100
AcDbEntity
8
6
100
AcDbVertex
100
AcDb2dVertex
10
623.0918534314
20
511.4785358460
30
0.0000000000
0
VERTEX
5
3DB
100
AcDbEntity
8
6
100
AcDbVertex
100
AcDb2dVertex
10
622.7090948083
20
510.7707828479
30
0.0000000000
0
VERTEX
5
3DC
100
AcDbEntity
8
6
100
AcDbVertex
100
AcDb2dVertex
10
622.3282407480
20
510.0581138950
30
0.0000000000
0
VERTEX
5
3DD
100
AcDbEntity
8
6
100
AcDbVertex
100
AcDb2dVertex
10
621.9493327224
20
509.3405542541
30
0.0000000000
0
VERTEX
5
3DE
100
AcDbEntity
8
6
100
AcDbVertex
100
AcDb2dVertex
10
622.1616368308
20
508.5049293878
30
0.0000000000
0
VERTEX
5
3DF
100
AcDbEntity
8
6
100
AcDbVertex
100
AcDb2dVertex
10
622.3774263028
20
507.6721832164
30
0.0000000000
0
VERTEX
5
3E0
100
AcDbEntity
8
6
100
AcDbVertex
100
AcDb2dVertex
10
622.5966666387
20
506.8423561785
30
0.0000000000
0
VERTEX
5
3E1
100
AcDbEntity
8
6
100
AcDbVertex
100
AcDb2dVertex
10
622.8193231602
20
506.0154884222
30
0.0000000000
0
VERTEX
5
3E2
100
AcDbEntity
8
6
100
AcDbVertex
100
AcDb2dVertex
10
623.0453610133
20
505.1916198032
30
0.0000000000
0
VERTEX
5
3E3
100
AcDbEntity
8
6
100
AcDbVertex
100
AcDb2dVertex
10
623.2747451705
20
504.3707898830
30
0.0000000000
0
VERTEX
5
3E4
100
AcDbEntity
8
6
100
AcDbVertex
100
AcDb2dVertex
10
623.5074404336
20
503.5530379269
30
0.0000000000
0
VERTEX
5
3E5
100
AcDbEntity
8
6
100
AcDbVertex
100
AcDb2dVertex
10
623.7434114362
20
502.7384029023
30
0.0000000000
0
VERTEX
5
3E6
100
AcDbEntity
8
6
100
AcDbVertex
100
AcDb2dVertex
10
623.9826226465
20
501.9269234766
30
0.0000000000
0
VERTEX
5
3E7
100
AcDbEntity
8
6
100
AcDbVertex
100
AcDb2dVertex
10
624.2250383697
20
501.1186380158
30
0.0000000000
0
VERTEX
5
3E8
100
AcDbEntity
8
6
100
AcDbVertex
100
AcDb2dVertex
10
624.4706227505
20
500.3135845821
30
0.0000000000
0
VERTEX
5
3E9
100
AcDbEntity
8
6
100
AcDbVertex
100
AcDb2dVertex
10
624.7193397762
20
499.5118009328
30
0.0000000000
0
VERTEX
5
3EA
100
AcDbEntity
8
6
100
AcDbVertex
100
AcDb2dVertex
10
624.9711532788
20
498.7133245181
30
0.0000000000
0
VERTEX
5
3EB
100
AcDbEntity
8
6
100
AcDbVertex
100
AcDb2dVertex
10
625.2260269381
20
497.9181924794
30
0.0000000000
0
VERTEX
5
3EC
100
AcDbEntity
8
6
100
AcDbVertex
100
AcDb2dVertex
10
625.4839242839
20
497.1264416477
30
0.0000000000
0
VERTEX
5
3ED
100
AcDbEntity
8
6
100
AcDbVertex
100
AcDb2dVertex
10
625.7448086991
20
496.3381085419
30
0.0000000000
0
VERTEX
5
3EE
100
AcDbEntity
8
6
100
AcDbVertex
100
AcDb2dVertex
10
626.0086434220
20
495.5532293671
30
0.0000000000
0
VERTEX
5
3EF
100
AcDbEntity
8
6
100
AcDbVertex
100
AcDb2dVertex
10
626.2753915493
20
494.7718400129
30
0.0000000000
0
VERTEX
5
3F0
100
AcDbEntity
8
6
100
AcDbVertex
100
AcDb2dVertex
10
626.5450160384
20
493.9939760519
30
0.0000000000
0
VERTEX
5
3F1
100
AcDbEntity
8
6
100
AcDbVertex
100
AcDb2dVertex
10
626.8174797104
20
493.2196727377
30
0.0000000000
0
VERTEX
5
3F2
100
AcDbEntity
8
6
100
AcDbVertex
100
AcDb2dVertex
10
626.4937858865
20
492.4842874860
30
0.0000000000
0
VERTEX
5
3F3
100
AcDbEntity
8
6
100
AcDbVertex
100
AcDb2dVertex
10
626.1724197799
20
491.7446906094
30
0.0000000000
0
VERTEX
5
3F4
100
AcDbEntity
8
6
100
AcDbVertex
100
AcDb2dVertex
10
625.8534208187
20
491.0009123607
30
0.0000000000
0
VERTEX
5
3F5
100
AcDbEntity
8
6
100
AcDbVertex
100
AcDb2dVertex
10
625.5368283387
20
490.2529833396
30
0.0000000000
0
VERTEX
5
3F6
100
AcDbEntity
8
6
100
AcDbVertex
100
AcDb2dVertex
10
625.2226815804
20
489.5009344919
30
0.0000000000
0
VERTEX
5
3F7
100
AcDbEntity
8
6
100
AcDbVertex
100
AcDb2dVertex
10
624.9110196860
20
488.7447971079
30
0.0000000000
0
VERTEX
5
3F8
100
AcDbEntity
8
6
100
AcDbVertex
100
AcDb2dVertex
10
624.6018816967
20
487.9846028210
30
0.0000000000
0
VERTEX
5
3F9
100
AcDbEntity
8
6
100
AcDbVertex
100
AcDb2dVertex
10
624.2953065501
20
487.2203836068
30
0.0000000000
0
VERTEX
5
3FA
100
AcDbEntity
8
6
100
AcDbVertex
100
AcDb2dVertex
10
623.9913330772
20
486.4521717814
30
0.0000000000
0
VERTEX
5
3FB
100
AcDbEntity
8
6
100
AcDbVertex
100
AcDb2dVertex
10
623.6900000000
20
485.6800000000
30
0.0000000000
0
VERTEX
5
3FC
100
AcDbEntity
8
6
100
AcDbVertex
100
AcDb2dVertex
10
623.3913459282
20
484.9039012558
30
0.0000000000
0
VERTEX
5
3FD
100
AcDbEntity
8
6
100
AcDbVertex
100
AcDb2dVertex
10
623.0954093570
20
484.1239088785
30
0.0000000000
0
VERTEX
5
3FE
100
AcDbEntity
8
6
100
AcDbVertex
100
AcDb2dVertex
10
622.8022286638
20
483.3400565325
30
0.0000000000
0
VERTEX
5
3FF
100
AcDbEntity
8
6
100
AcDbVertex
100
AcDb2dVertex
10
622.5118421061
20
482.5523782162
30
0.0000000000
0
VERTEX
5
400
100
AcDbEntity
8
6
100
AcDbVertex
100
AcDb2dVertex
10
622.2242878180
20
481.7609082596
30
0.0000000000
0
VERTEX
5
401
100
AcDbEntity
8
6
100
AcDbVertex
100
AcDb2dVertex
10
621.9396038083
20
480.9656813237
30
0.0000000000
0
VERTEX
5
402
100
AcDbEntity
8
6
100
AcDbVertex
100
AcDb2dVertex
10
621.6578279570
20
480.1667323982
30
0.0000000000
0
VERTEX
5
403
100
AcDbEntity
8
6
100
AcDbVertex
100
AcDb2dVertex
10
621.3789980130
20
479.3640968006
30
0.0000000000
0
VERTEX
5
404
100
AcDbEntity
8
6
100
AcDbVertex
100
AcDb2dVertex
10
621.1031515915
20
478.5578101743
30
0.0000000000
0
VERTEX
5
405
100
AcDbEntity
8
6
100
AcDbVertex
100
AcDb2dVertex
10
620.8303261709
20
477.7479084870
30
0.0000000000
0
VERTEX
5
406
100
AcDbEntity
8
6
100
AcDbVertex
100
AcDb2dVertex
10
621.1590047852
20
476.9775876211
30
0.0000000000
0
VERTEX
5
407
100
AcDbEntity
8
6
100
AcDbVertex
100
AcDb2dVertex
10
621.4901883474
20
476.2115563276
30
0.0000000000
0
VERTEX
5
408
100
AcDbEntity
8
6
100
AcDbVertex
100
AcDb2dVertex
10
621.8238370417
20
475.4498454879
30
0.0000000000
0
VERTEX
5
409
100
AcDbEntity
8
6
100
AcDbVertex
100
AcDb2dVertex
10
622.1599109598
20
474.6924856309
30
0.0000000000
0
VERTEX
5
40A
100
AcDbEntity
8
6
100
AcDbVertex
100
AcDb2dVertex
10
622.4983701039
20
473.9395069313
30
0.0000000000
0
VERTEX
5
40B
100
AcDbEntity
8
6
100
AcDbVertex
100
AcDb2dVertex
10
622.8391743892
20
473.1909392088
30
0.0000000000
0
VERTEX
5
40C
100
AcDbEntity
8
6
100
AcDbVertex
100
AcDb2dVertex
10
623.1822836471
20
472.4468119265
30
0.0000000000
0
VERTEX
5
40D
100
AcDbEntity
8
6
100
AcDbVertex
100
AcDb2dVertex
10
623.5276576279
20
471.7071541902
30
0.0000000000
0
VERTEX
5
40E
100
AcDbEntity
8
6
100
AcDbVertex
100
AcDb2dVertex
10
623.8752560033
20
470.9719947470
30
0.0000000000
0
VERTEX
5
40F
100
AcDbEntity
8
6
100
AcDbVertex
100
AcDb2dVertex
10
624.2250383697
20
470.2413619842
30
0.0000000000
0
VERTEX
5
410
100
AcDbEntity
8
6
100
AcDbVertex
100
AcDb2dVertex
10
624.5769642508
20
469.5152839284
30
0.0000000000
0
VERTEX
5
411
100
AcDbEntity
8
6
100
AcDbVertex
100
AcDb2dVertex
10
624.9309931004
20
468.7937882441
30
0.0000000000
0
VERTEX
5
412
100
AcDbEntity
8
6
100
AcDbVertex
100
AcDb2dVertex
10
625.2870843052
20
468.0769022331
30
0.0000000000
0
VERTEX
5
413
100
AcDbEntity
8
6
100
AcDbVertex
100
AcDb2dVertex
10
625.6451971879
20
467.3646528331
30
0.0000000000
0
VERTEX
5
414
100
AcDbEntity
8
6
100
AcDbVertex
100
AcDb2dVertex
10
626.0052910095
20
466.6570666170
30
0.0000000000
0
VERTEX
5
415
100
AcDbEntity
8
6
100
AcDbVertex
100
AcDb2dVertex
10
626.3673249728
20
465.9541697917
30
0.0000000000
0
VERTEX
5
416
100
AcDbEntity
8
6
100
AcDbVertex
100
AcDb2dVertex
10
626.7312582246
20
465.2559881972
30
0.0000000000
0
VERTEX
5
417
100
AcDbEntity
8
6
100
AcDbVertex
100
AcDb2dVertex
10
627.0970498591
20
464.5625473060
30
0.0000000000
0
VERTEX
5
418
100
AcDbEntity
8
6
100
AcDbVertex
100
AcDb2dVertex
10
627.4646589202
20
463.8738722215
30
0.0000000000
0
VERTEX
5
419
100
AcDbEntity
8
6
100
AcDbVertex
100
AcDb2dVertex
10
627.8340444048
20
463.1899876780
30
0.0000000000
0
VERTEX
5
41A
100
AcDbEntity
8
6
100
AcDbVertex
100
AcDb2dVertex
10
627.6174728136
20
462.3900148456
30
0.0000000000
0
VERTEX
5
41B
100
AcDbEntity
8
6
100
AcDbVertex
100
AcDb2dVertex
10
627.4042032919
20
461.5871932680
30
0.0000000000
0
VERTEX
5
41C
100
AcDbEntity
8
6
100
AcDbVertex
100
AcDb2dVertex
10
627.1942701330
20
460.7815625969
30
0.0000000000
0
VERTEX
5
41D
100
AcDbEntity
8
6
100
AcDbVertex
100
AcDb2dVertex
10
626.9877074523
20
459.9731627687
30
0.0000000000
0
VERTEX
5
41E
100
AcDbEntity
8
6
100
AcDbVertex
100
AcDb2dVertex
10
626.7845491849
20
459.1620340028
30
0.0000000000
0
VERTEX
5
41F
100
AcDbEntity
8
6
100
AcDbVertex
100
AcDb2dVertex
10
626.5848290828
20
458.3482167998
30
0.0000000000
0
VERTEX
5
420
100
AcDbEntity
8
6
100
AcDbVertex
100
AcDb2dVertex
10
626.3885807126
20
457.5317519388
30
0.0000000000
0
VERTEX
5
421
100
AcDbEntity
8
6
100
AcDbVertex
100
AcDb2dVertex
10
626.1958374528
20
456.7126804763
30
0.0000000000
0
VERTEX
5
422
100
AcDbEntity
8
6
100
AcDbVertex
100
AcDb2dVertex
10
626.0066324915
20
455.8910437438
30
0.0000000000
0
VERTEX
5
423
100
AcDbEntity
8
6
100
AcDbVertex
100
AcDb2dVertex
10
625.8209988239
20
455.0668833453
30
0.0000000000
0
VERTEX
5
424
100
AcDbEntity
8
6
100
AcDbVertex
100
AcDb2dVertex
10
625.6389692496
20
454.2402411561
30
0.0000000000
0
VERTEX
5
425
100
AcDbEntity
8
6
100
AcDbVertex
100
AcDb2dVertex
10
625.4605763703
20
453.4111593200
30
0.0000000000
0
VERTEX
5
426
100
AcDbEntity
8
6
100
AcDbVertex
100
AcDb2dVertex
10
625.2858525875
20
452.5796802479
30
0.0000000000
0
VERTEX
5
427
100
AcDbEntity
8
6
100
AcDbVertex
100
AcDb2dVertex
10
625.1148300995
20
451.7458466148
30
0.0000000000
0
VERTEX
5
428
100
AcDbEntity
8
6
100
AcDbVertex
100
AcDb2dVertex
10
624.9475408997
20
450.9097013585
30
0.0000000000
0
VERTEX
5
429
100
AcDbEntity
8
6
100
AcDbVertex
100
AcDb2dVertex
10
624.7840167736
20
450.0712876769
30
0.0000000000
0
VERTEX
5
42A
100
AcDbEntity
8
6
100
AcDbVertex
100
AcDb2dVertex
10
624.6242892967
20
449.2306490264
30
0.0000000000
0
VERTEX
5
42B
100
AcDbEntity
8
6
100
AcDbVertex
100
AcDb2dVertex
10
624.4683898318
20
448.3878291188
30
0.0000000000
0
VERTEX
5
42C
100
AcDbEntity
8
6
100
AcDbVertex
100
AcDb2dVertex
10
624.3163495270
20
447.5428719203
30
0.0000000000
0
VERTEX
5
42D
100
AcDbEntity
8
6
100
AcDbVertex
100
AcDb2dVertex
10
624.1681993129
20
446.6958216480
30
0.0000000000
0
VERTEX
5
42E
100
AcDbEntity
8
6
100
AcDbVertex
100
AcDb2dVertex
10
624.5908535285
20
446.0433008766
30
0.0000000000
0
VERTEX
5
42F
100
AcDbEntity
8
6
100
AcDbVertex
100
AcDb2dVertex
10
625.0148615685
20
445.3961882277
30
0.0000000000
0
VERTEX
5
430
100
AcDbEntity
8
6
100
AcDbVertex
100
AcDb2dVertex
10
625.4401810141
20
444.7545029212
30
0.0000000000
0
VERTEX
5
431
100
AcDbEntity
8
6
100
AcDbVertex
100
AcDb2dVertex
10
625.8667694467
20
444.1182637861
30
0.0000000000
0
VERTEX
5
432
100
AcDbEntity
8
6
100
AcDbVertex
100
AcDb2dVertex
10
626.2945844505
20
443.4874892600
30
0.0000000000
0
VERTEX
5
433
100
AcDbEntity
8
6
100
AcDbVertex
100
AcDb2dVertex
10
626.7235836151
20
442.8621973883
30
0.0000000000
0
VERTEX
5
434
100
AcDbEntity
8
6
100
AcDbVertex
100
AcDb2dVertex
10
627.1537245389
20
442.2424058244
30
0.0000000000
0
VERTEX
5
435
100
AcDbEntity
8
6
100
AcDbVertex
100
AcDb2dVertex
10
627.5849648317
20
441.6281318288
30
0.0000000000
0
VERTEX
5
436
100
AcDbEntity
8
6
100
AcDbVertex
100
AcDb2dVertex
10
628.0172621173
20
441.0193922692
30
0.0000000000
0
VERTEX
5
437
100
AcDbEntity
8
6
100
AcDbVertex
100
AcDb2dVertex
10
628.4505740367
20
440.4162036199
30
0.0000000000
0
VERTEX
5
438
100
AcDbEntity
8
6
100
AcDbVertex
100
AcDb2dVertex
10
628.8848582509
20
439.8185819614
30
0.0000000000
0
VERTEX
5
439
100
AcDbEntity
8
6
100
AcDbVertex
100
AcDb2dVertex
10
629.3200724434
20
439.2265429807
30
0.0000000000
0
VERTEX
5
43A
100
AcDbEntity
8
6
100
AcDbVertex
100
AcDb2dVertex
10
629.7561743233
20
438.6401019704
30
0.0000000000
0
VERTEX
5
43B
100
AcDbEntity
8
6
100
AcDbVertex
100
AcDb2dVertex
10
630.1931216282
20
438.0592738287
30
0.0000000000
0
VERTEX
5
43C
100
AcDbEntity
8
6
100
AcDbVertex
100
AcDb2dVertex
10
630.6308721268
20
437.4840730594
30
0.0000000000
0
VERTEX
5
43D
100
AcDbEntity
8
6
100
AcDbVertex
100
AcDb2dVertex
10
631.0693836219
20
436.9145137716
30
0.0000000000
0
VERTEX
5
43E
100
AcDbEntity
8
6
100
AcDbVertex
100
AcDb2dVertex
10
631.5086139529
20
436.3506096794
30
0.0000000000
0
VERTEX
5
43F
100
AcDbEntity
8
6
100
AcDbVertex
100
AcDb2dVertex
10
631.9485209992
20
435.7923741019
30
0.0000000000
0
VERTEX
5
440
100
AcDbEntity
8
6
100
AcDbVertex
100
AcDb2dVertex
10
632.3890626823
20
435.2398199630
30
0.0000000000
0
VERTEX
5
441
100
AcDbEntity
8
6
100
AcDbVertex
100
AcDb2dVertex
10
632.8301969691
20
434.6929597916
30
0.0000000000
0
VERTEX
5
442
100
AcDbEntity
8
6
100
AcDbVertex
100
AcDb2dVertex
10
632.7355066066
20
433.8829162050
30
0.0000000000
0
VERTEX
5
443
100
AcDbEntity
8
6
100
AcDbVertex
100
AcDb2dVertex
10
632.6448676353
20
433.0715808902
30
0.0000000000
0
VERTEX
5
444
100
AcDbEntity
8
6
100
AcDbVertex
100
AcDb2dVertex
10
632.5583068765
20
432.2590001955
30
0.0000000000
0
VERTEX
5
445
100
AcDbEntity
8
6
100
AcDbVertex
100
AcDb2dVertex
10
632.4758509005
20
431.4452206725
30
0.0000000000
0
VERTEX
5
446
100
AcDbEntity
8
6
100
AcDbVertex
100
AcDb2dVertex
10
632.3975260242
20
430.6302890735
30
0.0000000000
0
VERTEX
5
447
100
AcDbEntity
8
6
100
AcDbVertex
100
AcDb2dVertex
10
632.3233583093
20
429.8142523488
30
0.0000000000
0
VERTEX
5
448
100
AcDbEntity
8
6
100
AcDbVertex
100
AcDb2dVertex
10
632.2533735603
20
428.9971576448
30
0.0000000000
0
VERTEX
5
449
100
AcDbEntity
8
6
100
AcDbVertex
100
AcDb2dVertex
10
632.1875973219
20
428.1790523006
30
0.0000000000
0
VERTEX
5
44A
100
AcDbEntity
8
6
100
AcDbVertex
100
AcDb2dVertex
10
632.1260548777
20
427.3599838464
30
0.0000000000
0
VERTEX
5
44B
100
AcDbEntity
8
6
100
AcDbVertex
100
AcDb2dVertex
10
632.0687712473
20
426.5400000000
30
0.0000000000
0
VERTEX
5
44C
100
AcDbEntity
8
6
100
AcDbVertex
100
AcDb2dVertex
10
632.0157711852
20
425.7191486648
30
0.0000000000
0
VERTEX
5
44D
100
AcDbEntity
8
6
100
AcDbVertex
100
AcDb2dVertex
10
631.9670791778
20
424.8974779272
30
0.0000000000
0
VERTEX
5
44E
100
AcDbEntity
8
6
100
AcDbVertex
100
AcDb2dVertex
10
631.9227194423
20
424.0750360534
30
0.0000000000
0
VERTEX
5
44F
100
AcDbEntity
8
6
100
AcDbVertex
100
AcDb2dVertex
10
631.8827159241
20
423.2518714877
30
0.0000000000
0
VERTEX
5
450
100
AcDbEntity
8
6
100
AcDbVertex
100
AcDb2dVertex
10
631.8470922950
20
422.4280328491
30
0.0000000000
0
VERTEX
5
451
100
AcDbEntity
8
6
100
AcDbVertex
100
AcDb2dVertex
10
631.8158719516
20
421.6035689289
30
0.0000000000
0
VERTEX
5
452
100
AcDbEntity
8
6
100
AcDbVertex
100
AcDb2dVertex
10
631.7890780126
20
420.7785286880
30
0.0000000000
0
VERTEX
5
453
100
AcDbEntity
8
6
100
AcDbVertex
100
AcDb2dVertex
10
631.7667333176
20
419.9529612544
30
0.0000000000
0
VERTEX
5
454
100
AcDbEntity
8
6
100
AcDbVertex
100
AcDb2dVertex
10
631.7488604250
20
419.1269159203
30
0.0000000000
0
VERTEX
5
455
100
AcDbEntity
8
6
100
AcDbVertex
100
AcDb2dVertex
10
631.7354816097
20
418.3004421394
30
0.0000000000
0
VERTEX
5
456
100
AcDbEntity
8
6
100
AcDbVertex
100
AcDb2dVertex
10
632.2233082404
20
417.8101896747
30
0.0000000000
0
VERTEX
5
457
100
AcDbEntity
8
6
100
AcDbVertex
100
AcDb2dVertex
10
632.7112453109
20
417.3260953279
30
0.0000000000
0
VERTEX
5
458
100
AcDbEntity
8
6
100
AcDbVertex
100
AcDb2dVertex
10
633.1992506905
20
416.8481653478
30
0.0000000000
0
VERTEX
5
459
100
AcDbEntity
8
6
100
AcDbVertex
100
AcDb2dVertex
10
633.6872823409
20
416.3764055803
30
0.0000000000
0
VERTEX
5
45A
100
AcDbEntity
8
6
100
AcDbVertex
100
AcDb2dVertex
10
634.1752983188
20
415.9108214692
30
0.0000000000
0
VERTEX
5
45B
100
AcDbEntity
8
6
100
AcDbVertex
100
AcDb2dVertex
10
634.6632567785
20
415.4514180561
30
0.0000000000
0
VERTEX
5
45C
100
AcDbEntity
8
6
100
AcDbVertex
100
AcDb2dVertex
10
635.1511159752
20
414.9981999814
30
0.0000000000
0
VERTEX
5
45D
100
AcDbEntity
8
6
100
AcDbVertex
100
AcDb2dVertex
10
635.6388342667
20
414.5511714842
30
0.0000000000
0
VERTEX
5
45E
100
AcDbEntity
8
6
100
AcDbVertex
100
AcDb2dVertex
10
636.1263701169
20
414.1103364031
30
0.0000000000
0
VERTEX
5
45F
100
AcDbEntity
8
6
100
AcDbVertex
100
AcDb2dVertex
10
636.6136820982
20
413.6756981768
30
0.0000000000
0
VERTEX
5
460
100
AcDbEntity
8
6
100
AcDbVertex
100
AcDb2dVertex
10
637.1007288939
20
413.2472598442
30
0.0000000000
0
VERTEX
5
461
100
AcDbEntity
8
6
100
AcDbVertex
100
AcDb2dVertex
10
637.5874693012
20
412.8250240452
30
0.0000000000
0
VERTEX
5
462
100
AcDbEntity
8
6
100
AcDbVertex
100
AcDb2dVertex
10
638.0738622338
20
412.4089930213
30
0.0000000000
0
VERTEX
5
463
100
AcDbEntity
8
6
100
AcDbVertex
100
AcDb2dVertex
10
638.5598667242
20
411.9991686159
30
0.0000000000
0
VERTEX
5
464
100
AcDbEntity
8
6
100
AcDbVertex
100
AcDb2dVertex
10
639.0454419267
20
411.5955522754
30
0.0000000000
0
VERTEX
5
465
100
AcDbEntity
8
6
100
AcDbVertex
100
AcDb2dVertex
10
639.5305471199
20
411.1981450493
30
0.0000000000
0
VERTEX
5
466
100
AcDbEntity
8
6
100
AcDbVertex
100
AcDb2dVertex
10
640.0151417090
20
410.8069475913
30
0.0000000000
0
VERTEX
5
467
100
AcDbEntity
8
6
100
AcDbVertex
100
AcDb2dVertex
10
640.4991852288
20
410.4219601595
30
0.0000000000
0
VERTEX
5
468
100
AcDbEntity
8
6
100
AcDbVertex
100
AcDb2dVertex
10
640.9826373463
20
410.0431826176
30
0.0000000000
0
VERTEX
5
469
100
AcDbEntity
8
6
100
AcDbVertex
100
AcDb2dVertex
10
641.4654578627
20
409.6706144353
30
0.0000000000
0
VERTEX
5
46A
100
AcDbEntity
8
6
100
AcDbVertex
100
AcDb2dVertex
10
641.4991017205
20
408.9057032262
30
0.0000000000
0
VERTEX
5
46B
100
AcDbEntity
8
6
100
AcDbVertex
100
AcDb2dVertex
10
641.5372701958
20
408.1411453351
30
0.0000000000
0
VERTEX
5
46C
100
AcDbEntity
8
6
100
AcDbVertex
100
AcDb2dVertex
10
641.5799808098
20
407.3769906485
30
0.0000000000
0
VERTEX
5
46D
100
AcDbEntity
8
6
100
AcDbVertex
100
AcDb2dVertex
10
641.6272507769
20
406.6132891603
30
0.0000000000
0
VERTEX
5
46E
100
AcDbEntity
8
6
100
AcDbVertex
100
AcDb2dVertex
10
641.6790970025
20
405.8500909698
30
0.0000000000
0
VERTEX
5
46F
100
AcDbEntity
8
6
100
AcDbVertex
100
AcDb2dVertex
10
641.7355360821
20
405.0874462778
30
0.0000000000
0
VERTEX
5
470
100
AcDbEntity
8
6
100
AcDbVertex
100
AcDb2dVertex
10
641.7965842992
20
404.3254053844
30
0.0000000000
0
VERTEX
5
471
100
AcDbEntity
8
6
100
AcDbVertex
100
AcDb2dVertex
10
641.8622576243
20
403.5640186858
30
0.0000000000
0
VERTEX
5
472
100
AcDbEntity
8
6
100
AcDbVertex
100
AcDb2dVertex
10
641.9325717129
20
402.8033366715
30
0.0000000000
0
VERTEX
5
473
100
AcDbEntity
8
6
100
AcDbVertex
100
AcDb2dVertex
10
642.0075419046
20
402.0434099213
30
0.0000000000
0
VERTEX
5
474
100
AcDbEntity
8
6
100
AcDbVertex
100
AcDb2dVertex
10
642.0871832212
20
401.2842891021
30
0.0000000000
0
VERTEX
5
475
100
AcDbEntity
8
6
100
AcDbVertex
100
AcDb2dVertex
10
642.1715103656
20
400.5260249657
30
0.0000000000
0
VERTEX
5
476
100
AcDbEntity
8
6
100
AcDbVertex
100
AcDb2dVertex
10
642.2605377201
20
399.7686683449
30
0.0000000000
0
VERTEX
5
477
100
AcDbEntity
8
6
100
AcDbVertex
100
AcDb2dVertex
10
642.3542793453
20
399.0122701515
30
0.0000000000
0
VERTEX
5
478
100
AcDbEntity
8
6
100
AcDbVertex
100
AcDb2dVertex
10
642.4527489785
20
398.2568813723
30
0.0000000000
0
VERTEX
5
479
100
AcDbEntity
8
6
100
AcDbVertex
100
AcDb2dVertex
10
642.5559600324
20
397.5025530670
30
0.0000000000
0
VERTEX
5
47A
100
AcDbEntity
8
6
100
AcDbVertex
100
AcDb2dVertex
10
642.6639255940
20
396.7493363648
30
0.0000000000
0
VERTEX
5
47B
100
AcDbEntity
8
6
100
AcDbVertex
100
AcDb2dVertex
10
642.7766584231
20
395.9972824614
30
0.0000000000
0
VERTEX
5
47C
100
AcDbEntity
8
6
100
AcDbVertex
100
AcDb2dVertex
10
642.8941709507
20
395.2464426162
30
0.0000000000
0
VERTEX
5
47D
100
AcDbEntity
8
6
100
AcDbVertex
100
AcDb2dVertex
10
643.0164752783
20
394.4968681489
30
0.0000000000
0
VERTEX
5
47E
100
AcDbEntity
8
6
100
AcDbVertex
100
AcDb2dVertex
10
643.5362297454
20
394.2022938862
30
0.0000000000
0
VERTEX
5
47F
100
AcDbEntity
8
6
100
AcDbVertex
100
AcDb2dVertex
10
644.0548437414
20
393.9142080714
30
0.0000000000
0
VERTEX
5
480
100
AcDbEntity
8
6
100
AcDbVertex
100
AcDb2dVertex
10
644.5722782949
20
393.6326035560
30
0.0000000000
0
VERTEX
5
481
100
AcDbEntity
8
6
100
AcDbVertex
100
AcDb2dVertex
10
645.0884946126
20
393.3574728046
30
0.0000000000
0
VERTEX
5
482
100
AcDbEntity
8
6
100
AcDbVertex
100
AcDb2dVertex
10
645.6034540822
20
393.0888078962
30
0.0000000000
0
VERTEX
5
483
100
AcDbEntity
8
6
100
AcDbVertex
100
AcDb2dVertex
10
646.1171182745
20
392.8266005251
30
0.0000000000
0
VERTEX
5
484
100
AcDbEntity
8
6
100
AcDbVertex
100
AcDb2dVertex
10
646.6294489459
20
392.5708420024
30
0.0000000000
0
VERTEX
5
485
100
AcDbEntity
8
6
100
AcDbVertex
100
AcDb2dVertex
10
647.1404080406
20
392.3215232569
30
0.0000000000
0
VERTEX
5
486
100
AcDbEntity
8
6
100
AcDbVertex
100
AcDb2dVertex
10
647.6499576929
20
392.0786348367
30
0.0000000000
0
VERTEX
5
487
100
AcDbEntity
8
6
100
AcDbVertex
100
AcDb2dVertex
10
648.1580602298
20
391.8421669104
30
0.0000000000
0
VERTEX
5
488
100
AcDbEntity
8
6
100
AcDbVertex
100
AcDb2dVertex
10
648.6646781728
20
391.6121092679
30
0.0000000000
0
VERTEX
5
489
100
AcDbEntity
8
6
100
AcDbVertex
100
AcDb2dVertex
10
649.1697742407
20
391.3884513225
30
0.0000000000
0
VERTEX
5
48A
100
AcDbEntity
8
6
100
AcDbVertex
100
AcDb2dVertex
10
649.6733113513
20
391.1711821117
30
0.0000000000
0
VERTEX
5
48B
100
AcDbEntity
8
6
100
AcDbVertex
100
AcDb2dVertex
10
650.1752526244
20
390.9602902986
30
0.0000000000
0
VERTEX
5
48C
100
AcDbEntity
8
6
100
AcDbVertex
100
AcDb2dVertex
10
650.6755613832
20
390.7557641734
30
0.0000000000
0
VERTEX
5
48D
100
AcDbEntity
8
6
100
AcDbVertex
100
AcDb2dVertex
10
651.1742011571
20
390.5575916548
30
0.0000000000
0
VERTEX
5
48E
100
AcDbEntity
8
6
100
AcDbVertex
100
AcDb2dVertex
10
651.6711356838
20
390.3657602912
30
0.0000000000
0
VERTEX
5
48F
100
AcDbEntity
8
6
100
AcDbVertex
100
AcDb2dVertex
10
652.1663289113
20
390.1802572625
30
0.0000000000
0
VERTEX
5
490
100
AcDbEntity
8
6
100
AcDbVertex
100
AcDb2dVertex
10
652.6597450003
20
390.0010693811
30
0.0000000000
0
VERTEX
5
491
100
AcDbEntity
8
6
100
AcDbVertex
100
AcDb2dVertex
10
653.1513483260
20
389.8281830938
30
0.0000000000
0
VERTEX
5
492
100
AcDbEntity
8
6
100
AcDbVertex
100
AcDb2dVertex
10
653.3110336309
20
389.1605316971
30
0.0000000000
0
VERTEX
5
493
100
AcDbEntity
8
6
100
AcDbVertex
100
AcDb2dVertex
10
653.4754084342
20
388.4948545865
30
0.0000000000
0
VERTEX
5
494
100
AcDbEntity
8
6
100
AcDbVertex
100
AcDb2dVertex
10
653.6444797633
20
387.8312017868
30
0.0000000000
0
VERTEX
5
495
100
AcDbEntity
8
6
100
AcDbVertex
100
AcDb2dVertex
10
653.8182543033
20
387.1696233279
30
0.0000000000
0
VERTEX
5
496
100
AcDbEntity
8
6
100
AcDbVertex
100
AcDb2dVertex
10
653.9967383963
20
386.5101692413
30
0.0000000000
0
VERTEX
5
497
100
AcDbEntity
8
6
100
AcDbVertex
100
AcDb2dVertex
10
654.1799380403
20
385.8528895574
30
0.0000000000
0
VERTEX
5
498
100
AcDbEntity
8
6
100
AcDbVertex
100
AcDb2dVertex
10
654.3678588885
20
385.1978343023
30
0.0000000000
0
VERTEX
5
499
100
AcDbEntity
8
6
100
AcDbVertex
100
AcDb2dVertex
10
654.5605062484
20
384.5450534945
30
0.0000000000
0
VERTEX
5
49A
100
AcDbEntity
8
6
100
AcDbVertex
100
AcDb2dVertex
10
654.7578850810
20
383.8945971423
30
0.0000000000
0
VERTEX
5
49B
100
AcDbEntity
8
6
100
AcDbVertex
100
AcDb2dVertex
10
654.9600000000
20
383.2465152404
30
0.0000000000
0
VERTEX
5
49C
100
AcDbEntity
8
6
100
AcDbVertex
100
AcDb2dVertex
10
655.1668552713
20
382.6008577666
30
0.0000000000
0
VERTEX
5
49D
100
AcDbEntity
8
6
100
AcDbVertex
100
AcDb2dVertex
10
655.3784548119
20
381.9576746792
30
0.0000000000
0
VERTEX
5
49E
100
AcDbEntity
8
6
100
AcDbVertex
100
AcDb2dVertex
10
655.5948021893
20
381.3170159136
30
0.0000000000
0
VERTEX
5
49F
100
AcDbEntity
8
6
100
AcDbVertex
100
AcDb2dVertex
10
655.8159006211
20
380.6789313791
30
0.0000000000
0
VERTEX
5
4A0
100
AcDbEntity
8
6
100
AcDbVertex
100
AcDb2dVertex
10
656.0417529737
20
380.0434709564
30
0.0000000000
0
VERTEX
5
4A1
100
AcDbEntity
8
6
100
AcDbVertex
100
AcDb2dVertex
10
656.2723617623
20
379.4106844934
30
0.0000000000
0
VERTEX
5
4A2
100
AcDbEntity
8
6
100
AcDbVertex
100
AcDb2dVertex
10
656.5077291499
20
378.7806218034
30
0.0000000000
0
VERTEX
5
4A3
100
AcDbEntity
8
6
100
AcDbVertex
100
AcDb2dVertex
10
656.7478569469
20
378.1533326609
30
0.0000000000
0
VERTEX
5
4A4
100
AcDbEntity
8
6
100
AcDbVertex
100
AcDb2dVertex
10
656.9927466102
20
377.5288667992
30
0.0000000000
0
VERTEX
5
4A5
100
AcDbEntity
8
6
100
AcDbVertex
100
AcDb2dVertex
10
657.2423992430
20
376.9072739069
30
0.0000000000
0
VERTEX
5
4A6
100
AcDbEntity
8
6
100
AcDbVertex
100
AcDb2dVertex
10
657.7586611385
20
376.8284525954
30
0.0000000000
0
VERTEX
5
4A7
100
AcDbEntity
8
6
100
AcDbVertex
100
AcDb2dVertex
10
658.2726093733
20
376.7560078847
30
0.0000000000
0
VERTEX
5
4A8
100
AcDbEntity
8
6
100
AcDbVertex
100
AcDb2dVertex
10
658.7842107908
20
376.6899197163
30
0.0000000000
0
VERTEX
5
4A9
100
AcDbEntity
8
6
100
AcDbVertex
100
AcDb2dVertex
10
659.2934324868
20
376.6301676871
30
0.0000000000
0
VERTEX
5
4AA
100
AcDbEntity
8
6
100
AcDbVertex
100
AcDb2dVertex
10
659.8002418113
20
376.5767310509
30
0.0000000000
0
VERTEX
5
4AB
100
AcDbEntity
8
6
100
AcDbVertex
100
AcDb2dVertex
10
660.3046063703
20
376.5295887209
30
0.0000000000
0
VERTEX
5
4AC
100
AcDbEntity
8
6
100
AcDbVertex
100
AcDb2dVertex
10
660.8064940279
20
376.4887192708
30
0.0000000000
0
VERTEX
5
4AD
100
AcDbEntity
8
6
100
AcDbVertex
100
AcDb2dVertex
10
661.3058729079
20
376.4541009375
30
0.0000000000
0
VERTEX
5
4AE
100
AcDbEntity
8
6
100
AcDbVertex
100
AcDb2dVertex
10
661.8027113956
20
376.4257116226
30
0.0000000000
0
VERTEX
5
4AF
100
AcDbEntity
8
6
100
AcDbVertex
100
AcDb2dVertex
10
662.2969781399
20
376.4035288946
30
0.0000000000
0
VERTEX
5
4B0
100
AcDbEntity
8
6
100
AcDbVertex
100
AcDb2dVertex
10
662.7886420546
20
376.3875299904
30
0.0000000000
0
VERTEX
5
4B1
100
AcDbEntity
8
6
100
AcDbVertex
100
AcDb2dVertex
10
663.2776723206
20
376.3776918180
30
0.0000000000
0
VERTEX
5
4B2
100
AcDbEntity
8
6
100
AcDbVertex
100
AcDb2dVertex
10
663.7640383874
20
376.3739909580
30
0.0000000000
0
VERTEX
5
4B3
100
AcDbEntity
8
6
100
AcDbVertex
100
AcDb2dVertex
10
664.2477099749
20
376.3764036657
30
0.0000000000
0
VERTEX
5
4B4
100
AcDbEntity
8
6
100
AcDbVertex
100
AcDb2dVertex
10
664.7286570749
20
376.3849058733
30
0.0000000000
0
VERTEX
5
4B5
100
AcDbEntity
8
6
100
AcDbVertex
100
AcDb2dVertex
10
665.2068499531
20
376.3994731917
30
0.0000000000
0
VERTEX
5
4B6
100
AcDbEntity
8
6
100
AcDbVertex
100
AcDb2dVertex
10
665.6822591507
20
376.4200809131
30
0.0000000000
0
VERTEX
5
4B7
100
AcDbEntity
8
6
100
AcDbVertex
100
AcDb2dVertex
10
666.1548554857
20
376.4467040122
30
0.0000000000
0
VERTEX
5
4B8
100
AcDbEntity
8
6
100
AcDbVertex
100
AcDb2dVertex
10
666.6246100550
20
376.4793171494
30
0.0000000000
0
VERTEX
5
4B9
100
AcDbEntity
8
6
100
AcDbVertex
100
AcDb2dVertex
10
667.0914942358
20
376.5178946718
30
0.0000000000
0
VERTEX
5
4BA
100
AcDbEntity
8
6
100
AcDbVertex
100
AcDb2dVertex
10
667.3663386982
20
375.9930024268
30
0.0000000000
0
VERTEX
5
4BB
100
AcDbEntity
8
6
100
AcDbVertex
100
AcDb2dVertex
10
667.6457179583
20
375.4715708917
30
0.0000000000
0
VERTEX
5
4BC
100
AcDbEntity
8
6
100
AcDbVertex
100
AcDb2dVertex
10
667.9296280707
20
374.9536468207
30
0.0000000000
0
VERTEX
5
4BD
100
AcDbEntity
8
6
100
AcDbVertex
100
AcDb2dVertex
10
668.2180647360
20
374.4392768696
30
0.0000000000
0
VERTEX
5
4BE
100
AcDbEntity
8
6
100
AcDbVertex
100
AcDb2dVertex
10
668.5110233004
20
373.9285075932
30
0.0000000000
0
VERTEX
5
4BF
100
AcDbEntity
8
6
100
AcDbVertex
100
AcDb2dVertex
10
668.8084987559
20
373.4213854416
30
0.0000000000
0
VERTEX
5
4C0
100
AcDbEntity
8
6
100
AcDbVertex
100
AcDb2dVertex
10
669.1104857399
20
372.9179567578
30
0.0000000000
0
VERTEX
5
4C1
100
AcDbEntity
8
6
100
AcDbVertex
100
AcDb2dVertex
10
669.4169785354
20
372.4182677741
30
0.0000000000
0
VERTEX
5
4C2
100
AcDbEntity
8
6
100
AcDbVertex
100
AcDb2dVertex
10
669.7279710706
20
371.9223646096
30
0.0000000000
0
VERTEX
5
4C3
100
AcDbEntity
8
6
100
AcDbVertex
100
AcDb2dVertex
10
670.0434569193
20
371.4302932665
30
0.0000000000
0
VERTEX
5
4C4
100
AcDbEntity
8
6
100
AcDbVertex
100
AcDb2dVertex
10
670.3634293004
20
370.9420996279
30
0.0000000000
0
VERTEX
5
4C5
100
AcDbEntity
8
6
100
AcDbVertex
100
AcDb2dVertex
10
670.6878810781
20
370.4578294541
30
0.0000000000
0
VERTEX
5
4C6
100
AcDbEntity
8
6
100
AcDbVertex
100
AcDb2dVertex
10
671.0168047623
20
369.9775283797
30
0.0000000000
0
VERTEX
5
4C7
100
AcDbEntity
8
6
100
AcDbVertex
100
AcDb2dVertex
10
671.3501925078
20
369.5012419109
30
0.0000000000
0
VERTEX
5
4C8
100
AcDbEntity
8
6
100
AcDbVertex
100
AcDb2dVertex
10
671.6880361153
20
369.0290154222
30
0.0000000000
0
VERTEX
5
4C9
100
AcDbEntity
8
6
100
AcDbVertex
100
AcDb2dVertex
10
672.0303270307
20
368.5608941533
30
0.0000000000
0
VERTEX
5
4CA
100
AcDbEntity
8
6
100
AcDbVertex
100
AcDb2dVertex
10
672.3770563459
20
368.0969232066
30
0.0000000000
0
VERTEX
5
4CB
100
AcDbEntity
8
6
100
AcDbVertex
100
AcDb2dVertex
10
672.7282147983
20
367.6371475434
30
0.0000000000
0
VERTEX
5
4CC
100
AcDbEntity
8
6
100
AcDbVertex
100
AcDb2dVertex
10
673.0837927715
20
367.1816119817
30
0.0000000000
0
VERTEX
5
4CD
100
AcDbEntity
8
6
100
AcDbVertex
100
AcDb2dVertex
10
673.4437802951
20
366.7303611927
30
0.0000000000
0
VERTEX
5
4CE
100
AcDbEntity
8
6
100
AcDbVertex
100
AcDb2dVertex
10
673.9213672238
20
366.8726643744
30
0.0000000000
0
VERTEX
5
4CF
100
AcDbEntity
8
6
100
AcDbVertex
100
AcDb2dVertex
10
674.3956249745
20
367.0207977552
30
0.0000000000
0
VERTEX
5
4D0
100
AcDbEntity
8
6
100
AcDbVertex
100
AcDb2dVertex
10
674.8665284650
20
367.1747297333
30
0.0000000000
0
VERTEX
5
4D1
100
AcDbEntity
8
6
100
AcDbVertex
100
AcDb2dVertex
10
675.3340529224
20
367.3344284283
30
0.0000000000
0
VERTEX
5
4D2
100
AcDbEntity
8
6
100
AcDbVertex
100
AcDb2dVertex
10
675.7981738838
20
367.4998616829
30
0.0000000000
0
VERTEX
5
4D3
100
AcDbEntity
8
6
100
AcDbVertex
100
AcDb2dVertex
10
676.2588671983
20
367.6709970657
30
0.0000000000
0
VERTEX
5
4D4
100
AcDbEntity
8
6
100
AcDbVertex
100
AcDb2dVertex
10
676.7161090277
20
367.8478018738
30
0.0000000000
0
VERTEX
5
4D5
100
AcDbEntity
8
6
100
AcDbVertex
100
AcDb2dVertex
10
677.1698758475
20
368.0302431349
30
0.0000000000
0
VERTEX
5
4D6
100
AcDbEntity
8
6
100
AcDbVertex
100
AcDb2dVertex
10
677.6201444487
20
368.2182876102
30
0.0000000000
0
VERTEX
5
4D7
100
AcDbEntity
8
6
100
AcDbVertex
100
AcDb2dVertex
10
678.0668919386
20
368.4119017967
30
0.0000000000
0
VERTEX
5
4D8
100
AcDbEntity
8
6
100
AcDbVertex
100
AcDb2dVertex
10
678.5100957417
20
368.6110519297
30
0.0000000000
0
VERTEX
5
4D9
100
AcDbEntity
8
6
100
AcDbVertex
100
AcDb2dVertex
10
678.9497336015
20
368.8157039855
30
0.0000000000
0
VERTEX
5
4DA
100
AcDbEntity
8
6
100
AcDbVertex
100
AcDb2dVertex
10
679.3857835807
20
369.0258236838
30
0.0000000000
0
VERTEX
5
4DB
100
AcDbEntity
8
6
100
AcDbVertex
100
AcDb2dVertex
10
679.8182240632
20
369.2413764903
30
0.0000000000
0
VERTEX
5
4DC
100
AcDbEntity
8
6
100
AcDbVertex
100
AcDb2dVertex
10
680.2470337543
20
369.4623276192
30
0.0000000000
0
VERTEX
5
4DD
100
AcDbEntity
8
6
100
AcDbVertex
100
AcDb2dVertex
10
680.6721916824
20
369.6886420361
30
0.0000000000
0
VERTEX
5
4DE
100
AcDbEntity
8
6
100
AcDbVertex
100
AcDb2dVertex
10
681.0936771996
20
369.9202844602
30
0.0000000000
0
VERTEX
5
4DF
100
AcDbEntity
8
6
100
AcDbVertex
100
AcDb2dVertex
10
681.5114699829
20
370.1572193670
30
0.0000000000
0
VERTEX
5
4E0
100
AcDbEntity
8
6
100
AcDbVertex
100
AcDb2dVertex
10
681.9255500351
20
370.3994109912
30
0.0000000000
0
VERTEX
5
4E1
100
AcDbEntity
8
6
100
AcDbVertex
100
AcDb2dVertex
10
682.3358976856
20
370.6468233291
30
0.0000000000
0
VERTEX
5
4E2
100
AcDbEntity
8
6
100
AcDbVertex
100
AcDb2dVertex
10
682.7071711095
20
370.3004607749
30
0.0000000000
0
VERTEX
5
4E3
100
AcDbEntity
8
6
100
AcDbVertex
100
AcDb2dVertex
10
683.0825155915
20
369.9588095126
30
0.0000000000
0
VERTEX
5
4E4
100
AcDbEntity
8
6
100
AcDbVertex
100
AcDb2dVertex
10
683.4619164824
20
369.6219098397
30
0.0000000000
0
VERTEX
5
4E5
100
AcDbEntity
8
6
100
AcDbVertex
100
AcDb2dVertex
10
683.8453587908
20
369.2898018587
30
0.0000000000
0
VERTEX
5
4E6
100
AcDbEntity
8
6
100
AcDbVertex
100
AcDb2dVertex
10
684.2328271846
20
368.9625254745
30
0.0000000000
0
VERTEX
5
4E7
100
AcDbEntity
8
6
100
AcDbVertex
100
AcDb2dVertex
10
684.6243059908
20
368.6401203919
30
0.0000000000
0
VERTEX
5
4E8
100
AcDbEntity
8
6
100
AcDbVertex
100
AcDb2dVertex
10
685.0197791967
20
368.3226261122
30
0.0000000000
0
VERTEX
5
4E9
100
AcDbEntity
8
6
100
AcDbVertex
100
AcDb2dVertex
10
685.4192304503
20
368.0100819311
30
0.0000000000
0
VERTEX
5
4EA
100
AcDbEntity
8
6
100
AcDbVertex
100
AcDb2dVertex
10
685.8226430609
20
367.7025269353
30
0.0000000000
0
VERTEX
5
4EB
100
AcDbEntity
8
6
100
AcDbVertex
100
AcDb2dVertex
10
686.2300000000
20
367.4000000000
30
0.0000000000
0
VERTEX
5
4EC
100
AcDbEntity
8
6
100
AcDbVertex
100
AcDb2dVertex
10
686.6412839019
20
367.1025397863
30
0.0000000000
0
VERTEX
5
4ED
100
AcDbEntity
8
6
100
AcDbVertex
100
AcDb2dVertex
10
687.0564770644
20
366.8101847380
30
0.0000000000
0
VERTEX
5
4EE
100
AcDbEntity
8
6
100
AcDbVertex
100
AcDb2dVertex
10
687.4755614497
20
366.5229730793
30
0.0000000000
0
VERTEX
5
4EF
100
AcDbEntity
8
6
100
AcDbVertex
100
AcDb2dVertex
10
687.8985186851
20
366.2409428119
30
0.0000000000
0
VERTEX
5
4F0
100
AcDbEntity
8
6
100
AcDbVertex
100
AcDb2dVertex
10
688.3253300639
20
365.9641317121
30
0.0000000000
0
VERTEX
5
4F1
100
AcDbEntity
8
6
100
AcDbVertex
100
AcDb2dVertex
10
688.7559765459
20
365.6925773282
30
0.0000000000
0
VERTEX
5
4F2
100
AcDbEntity
8
6
100
AcDbVertex
100
AcDb2dVertex
10
689.1904387588
20
365.4263169780
30
0.0000000000
0
VERTEX
5
4F3
100
AcDbEntity
8
6
100
AcDbVertex
100
AcDb2dVertex
10
689.6286969984
20
365.1653877458
30
0.0000000000
0
VERTEX
5
4F4
100
AcDbEntity
8
6
100
AcDbVertex
100
AcDb2dVertex
10
690.0707312302
20
364.9098264799
30
0.0000000000
0
VERTEX
5
4F5
100
AcDbEntity
8
6
100
AcDbVertex
100
AcDb2dVertex
10
690.5165210897
20
364.6596697896
30
0.0000000000
0
VERTEX
5
4F6
100
AcDbEntity
8
6
100
AcDbVertex
100
AcDb2dVertex
10
690.9228862919
20
365.0133997380
30
0.0000000000
0
VERTEX
5
4F7
100
AcDbEntity
8
6
100
AcDbVertex
100
AcDb2dVertex
10
691.3251336766
20
365.3720161651
30
0.0000000000
0
VERTEX
5
4F8
100
AcDbEntity
8
6
100
AcDbVertex
100
AcDb2dVertex
10
691.7232479454
20
365.7354780798
30
0.0000000000
0
VERTEX
5
4F9
100
AcDbEntity
8
6
100
AcDbVertex
100
AcDb2dVertex
10
692.1172141448
20
366.1037442968
30
0.0000000000
0
VERTEX
5
4FA
100
AcDbEntity
8
6
100
AcDbVertex
100
AcDb2dVertex
10
692.5070176667
20
366.4767734392
30
0.0000000000
0
VERTEX
5
4FB
100
AcDbEntity
8
6
100
AcDbVertex
100
AcDb2dVertex
10
692.8926442487
20
366.8545239414
30
0.0000000000
0
VERTEX
5
4FC
100
AcDbEntity
8
6
100
AcDbVertex
100
AcDb2dVertex
10
693.2740799747
20
367.2369540521
30
0.0000000000
0
VERTEX
5
4FD
100
AcDbEntity
8
6
100
AcDbVertex
100
AcDb2dVertex
10
693.6513112755
20
367.6240218372
30
0.0000000000
0
VERTEX
5
4FE
100
AcDbEntity
8
6
100
AcDbVertex
100
AcDb2dVertex
10
694.0243249291
20
368.0156851825
30
0.0000000000
0
VERTEX
5
4FF
100
AcDbEntity
8
6
100
AcDbVertex
100
AcDb2dVertex
10
694.3931080614
20
368.4119017967
30
0.0000000000
0
VERTEX
5
500
100
AcDbEntity
8
6
100
AcDbVertex
100
AcDb2dVertex
10
694.7576481463
20
368.8126292145
30
0.0000000000
0
VERTEX
5
501
100
AcDbEntity
8
6
100
AcDbVertex
100
AcDb2dVertex
10
695.1179330061
20
369.2178247991
30
0.0000000000
0
VERTEX
5
502
100
AcDbEntity
8
6
100
AcDbVertex
100
AcDb2dVertex
10
695.4739508124
20
369.6274457454
30
0.0000000000
0
VERTEX
5
503
100
AcDbEntity
8
6
100
AcDbVertex
100
AcDb2dVertex
10
695.8256900856
20
370.0414490831
30
0.0000000000
0
VERTEX
5
504
100
AcDbEntity
8
6
100
AcDbVertex
100
AcDb2dVertex
10
696.1731396960
20
370.4597916791
30
0.0000000000
0
VERTEX
5
505
100
AcDbEntity
8
6
100
AcDbVertex
100
AcDb2dVertex
10
696.5162888638
20
370.8824302409
30
0.0000000000
0
VERTEX
5
506
100
AcDbEntity
8
6
100
AcDbVertex
100
AcDb2dVertex
10
696.8551271592
20
371.3093213193
30
0.0000000000
0
VERTEX
5
507
100
AcDbEntity
8
6
100
AcDbVertex
100
AcDb2dVertex
10
697.1896445031
20
371.7404213115
30
0.0000000000
0
VERTEX
5
508
100
AcDbEntity
8
6
100
AcDbVertex
100
AcDb2dVertex
10
697.5198311668
20
372.1756864639
30
0.0000000000
0
VERTEX
5
509
100
AcDbEntity
8
6
100
AcDbVertex
100
AcDb2dVertex
10
697.8456777728
20
372.6150728751
30
0.0000000000
0
VERTEX
5
50A
100
AcDbEntity
8
6
100
AcDbVertex
100
AcDb2dVertex
10
698.2880784880
20
372.4708440474
30
0.0000000000
0
VERTEX
5
50B
100
AcDbEntity
8
6
100
AcDbVertex
100
AcDb2dVertex
10
698.7338090858
20
372.3322560270
30
0.0000000000
0
VERTEX
5
50C
100
AcDbEntity
8
6
100
AcDbVertex
100
AcDb2dVertex
10
699.1828452113
20
372.1993399081
30
0.0000000000
0
VERTEX
5
50D
100
AcDbEntity
8
6
100
AcDbVertex
100
AcDb2dVertex
10
699.6351622032
20
372.0721265072
30
0.0000000000
0
VERTEX
5
50E
100
AcDbEntity
8
6
100
AcDbVertex
100
AcDb2dVertex
10
700.0907350956
20
371.9506463600
30
0.0000000000
0
VERTEX
5
50F
100
AcDbEntity
8
6
100
AcDbVertex
100
AcDb2dVertex
10
700.5495386189
20
371.8349297198
30
0.0000000000
0
VERTEX
5
510
100
AcDbEntity
8
6
100
AcDbVertex
100
AcDb2dVertex
10
701.0115472013
20
371.7250065548
30
0.0000000000
0
VERTEX
5
511
100
AcDbEntity
8
6
100
AcDbVertex
100
AcDb2dVertex
10
701.4767349702
20
371.6209065457
30
0.0000000000
0
VERTEX
5
512
100
AcDbEntity
8
6
100
AcDbVertex
100
AcDb2dVertex
10
701.9450757534
20
371.5226590833
30
0.0000000000
0
VERTEX
5
513
100
AcDbEntity
8
6
100
AcDbVertex
100
AcDb2dVertex
10
702.4165430807
20
371.4302932665
30
0.0000000000
0
VERTEX
5
514
100
AcDbEntity
8
6
100
AcDbVertex
100
AcDb2dVertex
10
702.8911101851
20
371.3438378997
30
0.0000000000
0
VERTEX
5
515
100
AcDbEntity
8
6
100
AcDbVertex
100
AcDb2dVertex
10
703.3687500045
20
371.2633214904
30
0.0000000000
0
VERTEX
5
516
100
AcDbEntity
8
6
100
AcDbVertex
100
AcDb2dVertex
10
703.8494351827
20
371.1887722474
30
0.0000000000
0
VERTEX
5
517
100
AcDbEntity
8
6
100
AcDbVertex
100
AcDb2dVertex
10
704.3331380714
20
371.1202180779
30
0.0000000000
0
VERTEX
5
518
100
AcDbEntity
8
6
100
AcDbVertex
100
AcDb2dVertex
10
704.8198307314
20
371.0576865860
30
0.0000000000
0
VERTEX
5
519
100
AcDbEntity
8
6
100
AcDbVertex
100
AcDb2dVertex
10
705.3094849339
20
371.0012050696
30
0.0000000000
0
VERTEX
5
51A
100
AcDbEntity
8
6
100
AcDbVertex
100
AcDb2dVertex
10
705.8020721626
20
370.9508005188
30
0.0000000000
0
VERTEX
5
51B
100
AcDbEntity
8
6
100
AcDbVertex
100
AcDb2dVertex
10
706.2975636147
20
370.9064996135
30
0.0000000000
0
VERTEX
5
51C
100
AcDbEntity
8
6
100
AcDbVertex
100
AcDb2dVertex
10
706.7959302027
20
370.8683287212
30
0.0000000000
0
VERTEX
5
51D
100
AcDbEntity
8
6
100
AcDbVertex
100
AcDb2dVertex
10
707.2971425560
20
370.8363138948
30
0.0000000000
0
VERTEX
5
51E
100
AcDbEntity
8
6
100
AcDbVertex
100
AcDb2dVertex
10
707.6045929146
20
371.3773644984
30
0.0000000000
0
VERTEX
5
51F
100
AcDbEntity
8
6
100
AcDbVertex
100
AcDb2dVertex
10
707.9074174386
20
371.9220248550
30
0.0000000000
0
VERTEX
5
520
100
AcDbEntity
8
6
100
AcDbVertex
100
AcDb2dVertex
10
708.2056116562
20
372.4702473775
30
0.0000000000
0
VERTEX
5
521
100
AcDbEntity
8
6
100
AcDbVertex
100
AcDb2dVertex
10
708.4991714524
20
373.0219843824
30
0.0000000000
0
VERTEX
5
522
100
AcDbEntity
8
6
100
AcDbVertex
100
AcDb2dVertex
10
708.7880930689
20
373.5771880930
30
0.0000000000
0
VERTEX
5
523
100
AcDbEntity
8
6
100
AcDbVertex
100
AcDb2dVertex
10
709.0723731040
20
374.1358106421
30
0.0000000000
0
VERTEX
5
524
100
AcDbEntity
8
6
100
AcDbVertex
100
AcDb2dVertex
10
709.3520085123
20
374.6978040754
30
0.0000000000
0
VERTEX
5
525
100
AcDbEntity
8
6
100
AcDbVertex
100
AcDb2dVertex
10
709.6269966044
20
375.2631203546
30
0.0000000000
0
VERTEX
5
526
100
AcDbEntity
8
6
100
AcDbVertex
100
AcDb2dVertex
10
709.8973350464
20
375.8317113601
30
0.0000000000
0
VERTEX
5
527
100
AcDbEntity
8
6
100
AcDbVertex
100
AcDb2dVertex
10
710.1630218601
20
376.4035288946
30
0.0000000000
0
VERTEX
5
528
100
AcDbEntity
8
6
100
AcDbVertex
100
AcDb2dVertex
10
710.4240554223
20
376.9785246858
30
0.0000000000
0
VERTEX
5
529
100
AcDbEntity
8
6
100
AcDbVertex
100
AcDb2dVertex
10
710.6804344644
20
377.5566503897
30
0.0000000000
0
VERTEX
5
52A
100
AcDbEntity
8
6
100
AcDbVertex
100
AcDb2dVertex
10
710.9321580725
20
378.1378575936
30
0.0000000000
0
VERTEX
5
52B
100
AcDbEntity
8
6
100
AcDbVertex
100
AcDb2dVertex
10
711.1792256863
20
378.7220978192
30
0.0000000000
0
VERTEX
5
52C
100
AcDbEntity
8
6
100
AcDbVertex
100
AcDb2dVertex
10
711.4216370993
20
379.3093225257
30
0.0000000000
0
VERTEX
5
52D
100
AcDbEntity
8
6
100
AcDbVertex
100
AcDb2dVertex
10
711.6593924580
20
379.8994831129
30
0.0000000000
0
VERTEX
5
52E
100
AcDbEntity
8
6
100
AcDbVertex
100
AcDb2dVertex
10
711.8924922618
20
380.4925309241
30
0.0000000000
0
VERTEX
5
52F
100
AcDbEntity
8
6
100
AcDbVertex
100
AcDb2dVertex
10
712.1209373621
20
381.0884172495
30
0.0000000000
0
VERTEX
5
530
100
AcDbEntity
8
6
100
AcDbVertex
100
AcDb2dVertex
10
712.3447289619
20
381.6870933292
30
0.0000000000
0
VERTEX
5
531
100
AcDbEntity
8
6
100
AcDbVertex
100
AcDb2dVertex
10
712.5638686156
20
382.2885103561
30
0.0000000000
0
VERTEX
5
532
100
AcDbEntity
8
6
100
AcDbVertex
100
AcDb2dVertex
10
713.0472477444
20
382.3562442111
30
0.0000000000
0
VERTEX
5
533
100
AcDbEntity
8
6
100
AcDbVertex
100
AcDb2dVertex
10
713.5329886543
20
382.4301639771
30
0.0000000000
0
VERTEX
5
534
100
AcDbEntity
8
6
100
AcDbVertex
100
AcDb2dVertex
10
714.0210589446
20
382.5102894262
30
0.0000000000
0
VERTEX
5
535
100
AcDbEntity
8
6
100
AcDbVertex
100
AcDb2dVertex
10
714.5114259645
20
382.5966399883
30
0.0000000000
0
VERTEX
5
536
100
AcDbEntity
8
6
100
AcDbVertex
100
AcDb2dVertex
10
715.0040568159
20
382.6892347494
30
0.0000000000
0
VERTEX
5
537
100
AcDbEntity
8
6
100
AcDbVertex
100
AcDb2dVertex
10
715.4989183543
20
382.7880924495
30
0.0000000000
0
VERTEX
5
538
100
AcDbEntity
8
6
100
AcDbVertex
100
AcDb2dVertex
10
715.9959771918
20
382.8932314812
30
0.0000000000
0
VERTEX
5
539
100
AcDbEntity
8
6
100
AcDbVertex
100
AcDb2dVertex
10
716.4951996983
20
383.0046698877
30
0.0000000000
0
VERTEX
5
53A
100
AcDbEntity
8
6
100
AcDbVertex
100
AcDb2dVertex
10
716.9965520037
20
383.1224253610
30
0.0000000000
0
VERTEX
5
53B
100
AcDbEntity
8
6
100
AcDbVertex
100
AcDb2dVertex
10
717.5000000000
20
383.2465152404
30
0.0000000000
0
VERTEX
5
53C
100
AcDbEntity
8
6
100
AcDbVertex
100
AcDb2dVertex
10
718.0055093431
20
383.3769565108
30
0.0000000000
0
VERTEX
5
53D
100
AcDbEntity
8
6
100
AcDbVertex
100
AcDb2dVertex
10
718.5130454549
20
383.5137658007
30
0.0000000000
0
VERTEX
5
53E
100
AcDbEntity
8
6
100
AcDbVertex
100
AcDb2dVertex
10
719.0225735255
20
383.6569593810
30
0.0000000000
0
VERTEX
5
53F
100
AcDbEntity
8
6
100
AcDbVertex
100
AcDb2dVertex
10
719.5340585150
20
383.8065531630
30
0.0000000000
0
VERTEX
5
540
100
AcDbEntity
8
6
100
AcDbVertex
100
AcDb2dVertex
10
720.0474651556
20
383.9625626967
30
0.0000000000
0
VERTEX
5
541
100
AcDbEntity
8
6
100
AcDbVertex
100
AcDb2dVertex
10
720.5627579540
20
384.1250031698
30
0.0000000000
0
VERTEX
5
542
100
AcDbEntity
8
6
100
AcDbVertex
100
AcDb2dVertex
10
721.0799011930
20
384.2938894052
30
0.0000000000
0
VERTEX
5
543
100
AcDbEntity
8
6
100
AcDbVertex
100
AcDb2dVertex
10
721.5988589339
20
384.4692358603
30
0.0000000000
0
VERTEX
5
544
100
AcDbEntity
8
6
100
AcDbVertex
100
AcDb2dVertex
10
722.1195950187
20
384.6510566250
30
0.0000000000
0
VERTEX
5
545
100
AcDbEntity
8
6
100
AcDbVertex
100
AcDb2dVertex
10
722.6420730721
20
384.8393654199
30
0.0000000000
0
VERTEX
5
546
100
AcDbEntity
8
6
100
AcDbVertex
100
AcDb2dVertex
10
722.8296563533
20
385.5308649743
30
0.0000000000
0
VERTEX
5
547
100
AcDbEntity
8
6
100
AcDbVertex
100
AcDb2dVertex
10
723.0124210259
20
386.2244515571
30
0.0000000000
0
VERTEX
5
548
100
AcDbEntity
8
6
100
AcDbVertex
100
AcDb2dVertex
10
723.1903737491
20
386.9200742284
30
0.0000000000
0
VERTEX
5
549
100
AcDbEntity
8
6
100
AcDbVertex
100
AcDb2dVertex
10
723.3635215270
20
387.6176820562
30
0.0000000000
0
VERTEX
5
54A
100
AcDbEntity
8
6
100
AcDbVertex
100
AcDb2dVertex
10
723.5318717074
20
388.3172241196
30
0.0000000000
0
VERTEX
5
54B
100
AcDbEntity
8
6
100
AcDbVertex
100
AcDb2dVertex
10
723.6954319811
20
389.0186495121
30
0.0000000000
0
VERTEX
5
54C
100
AcDbEntity
8
6
100
AcDbVertex
100
AcDb2dVertex
10
723.8542103808
20
389.7219073443
30
0.0000000000
0
VERTEX
5
54D
100
AcDbEntity
8
6
100
AcDbVertex
100
AcDb2dVertex
10
724.0082152800
20
390.4269467473
30
0.0000000000
0
VERTEX
5
54E
100
AcDbEntity
8
6
100
AcDbVertex
100
AcDb2dVertex
10
724.1574553924
20
391.1337168756
30
0.0000000000
0
VERTEX
5
54F
100
AcDbEntity
8
6
100
AcDbVertex
100
AcDb2dVertex
10
724.3019397702
20
391.8421669104
30
0.0000000000
0
VERTEX
5
550
100
AcDbEntity
8
6
100
AcDbVertex
100
AcDb2dVertex
10
724.4416778038
20
392.5522460621
30
0.0000000000
0
VERTEX
5
551
100
AcDbEntity
8
6
100
AcDbVertex
100
AcDb2dVertex
10
724.5766792203
20
393.2639035740
30
0.0000000000
0
VERTEX
5
552
100
AcDbEntity
8
6
100
AcDbVertex
100
AcDb2dVertex
10
724.7069540822
20
393.9770887249
30
0.0000000000
0
VERTEX
5
553
100
AcDbEntity
8
6
100
AcDbVertex
100
AcDb2dVertex
10
724.8325127870
20
394.6917508326
30
0.0000000000
0
VERTEX
5
554
100
AcDbEntity
8
6
100
AcDbVertex
100
AcDb2dVertex
10
724.9533660653
20
395.4078392563
30
0.0000000000
0
VERTEX
5
555
100
AcDbEntity
8
6
100
AcDbVertex
100
AcDb2dVertex
10
725.0695249803
20
396.1253034001
30
0.0000000000
0
VERTEX
5
556
100
AcDbEntity
8
6
100
AcDbVertex
100
AcDb2dVertex
10
725.1810009260
20
396.8440927158
30
0.0000000000
0
VERTEX
5
557
100
AcDbEntity
8
6
100
AcDbVertex
100
AcDb2dVertex
10
725.2878056266
20
397.5641567063
30
0.0000000000
0
VERTEX
5
558
100
AcDbEntity
8
6
100
AcDbVertex
100
AcDb2dVertex
10
725.3899511348
20
398.2854449278
30
0.0000000000
0
VERTEX
5
559
100
AcDbEntity
8
6
100
AcDbVertex
100
AcDb2dVertex
10
725.4874498311
20
399.0079069938
30
0.0000000000
0
VERTEX
5
55A
100
AcDbEntity
8
6
100
AcDbVertex
100
AcDb2dVertex
10
725.9788658846
20
399.2829875812
30
0.0000000000
0
VERTEX
5
55B
100
AcDbEntity
8
6
100
AcDbVertex
100
AcDb2dVertex
10
726.4715146664
20
399.5643776237
30
0.0000000000
0
VERTEX
5
55C
100
AcDbEntity
8
6
100
AcDbVertex
100
AcDb2dVertex
10
726.9653579377
20
399.8520842238
30
0.0000000000
0
VERTEX
5
55D
100
AcDbEntity
8
6
100
AcDbVertex
100
AcDb2dVertex
10
727.4603572837
20
400.1461141009
30
0.0000000000
0
VERTEX
5
55E
100
AcDbEntity
8
6
100
AcDbVertex
100
AcDb2dVertex
10
727.9564741155
20
400.4464735903
30
0.0000000000
0
VERTEX
5
55F
100
AcDbEntity
8
6
100
AcDbVertex
100
AcDb2dVertex
10
728.4536696731
20
400.7531686419
30
0.0000000000
0
VERTEX
5
560
100
AcDbEntity
8
6
100
AcDbVertex
100
AcDb2dVertex
10
728.9519050273
20
401.0662048190
30
0.0000000000
0
VERTEX
5
561
100
AcDbEntity
8
6
100
AcDbVertex
100
AcDb2dVertex
10
729.4511410826
20
401.3855872978
30
0.0000000000
0
VERTEX
5
562
100
AcDbEntity
8
6
100
AcDbVertex
100
AcDb2dVertex
10
729.9513385791
20
401.7113208658
30
0.0000000000
0
VERTEX
5
563
100
AcDbEntity
8
6
100
AcDbVertex
100
AcDb2dVertex
10
730.4524580954
20
402.0434099213
30
0.0000000000
0
VERTEX
5
564
100
AcDbEntity
8
6
100
AcDbVertex
100
AcDb2dVertex
10
730.9544600508
20
402.3818584719
30
0.0000000000
0
VERTEX
5
565
100
AcDbEntity
8
6
100
AcDbVertex
100
AcDb2dVertex
10
731.4573047078
20
402.7266701340
30
0.0000000000
0
VERTEX
5
566
100
AcDbEntity
8
6
100
AcDbVertex
100
AcDb2dVertex
10
731.9609521748
20
403.0778481318
30
0.0000000000
0
VERTEX
5
567
100
AcDbEntity
8
6
100
AcDbVertex
100
AcDb2dVertex
10
732.4653624083
20
403.4353952961
30
0.0000000000
0
VERTEX
5
568
100
AcDbEntity
8
6
100
AcDbVertex
100
AcDb2dVertex
10
732.9704952156
20
403.7993140637
30
0.0000000000
0
VERTEX
5
569
100
AcDbEntity
8
6
100
AcDbVertex
100
AcDb2dVertex
10
733.4763102571
20
404.1696064764
30
0.0000000000
0
VERTEX
5
56A
100
AcDbEntity
8
6
100
AcDbVertex
100
AcDb2dVertex
10
733.9827670492
20
404.5462741802
30
0.0000000000
0
VERTEX
5
56B
100
AcDbEntity
8
6
100
AcDbVertex
100
AcDb2dVertex
10
734.4898249665
20
404.9293184246
30
0.0000000000
0
VERTEX
5
56C
100
AcDbEntity
8
6
100
AcDbVertex
100
AcDb2dVertex
10
734.9974432445
20
405.3187400615
30
0.0000000000
0
VERTEX
5
56D
100
AcDbEntity
8
6
100
AcDbVertex
100
AcDb2dVertex
10
735.5055809822
20
405.7145395447
30
0.0000000000
0
VERTEX
5
56E
100
AcDbEntity
8
6
100
AcDbVertex
100
AcDb2dVertex
10
735.5605136953
20
406.5093634978
30
0.0000000000
0
VERTEX
5
56F
100
AcDbEntity
8
6
100
AcDbVertex
100
AcDb2dVertex
10
735.6107634061
20
407.3046095275
30
0.0000000000
0
VERTEX
5
570
100
AcDbEntity
8
6
100
AcDbVertex
100
AcDb2dVertex
10
735.6563474509
20
408.1002268122
30
0.0000000000
0
VERTEX
5
571
100
AcDbEntity
8
6
100
AcDbVertex
100
AcDb2dVertex
10
735.6972834756
20
408.8961646422
30
0.0000000000
0
VERTEX
5
572
100
AcDbEntity
8
6
100
AcDbVertex
100
AcDb2dVertex
10
735.7335894333
20
409.6923724229
30
0.0000000000
0
VERTEX
5
573
100
AcDbEntity
8
6
100
AcDbVertex
100
AcDb2dVertex
10
735.7652835833
20
410.4887996774
30
0.0000000000
0
VERTEX
5
574
100
AcDbEntity
8
6
100
AcDbVertex
100
AcDb2dVertex
10
735.7923844887
20
411.2853960494
30
0.0000000000
0
VERTEX
5
575
100
AcDbEntity
8
6
100
AcDbVertex
100
AcDb2dVertex
10
735.8149110158
20
412.0821113060
30
0.0000000000
0
VERTEX
5
576
100
AcDbEntity
8
6
100
AcDbVertex
100
AcDb2dVertex
10
735.8328823314
20
412.8788953410
30
0.0000000000
0
VERTEX
5
577
100
AcDbEntity
8
6
100
AcDbVertex
100
AcDb2dVertex
10
735.8463179018
20
413.6756981768
30
0.0000000000
0
VERTEX
5
578
100
AcDbEntity
8
6
100
AcDbVertex
100
AcDb2dVertex
10
735.8552374908
20
414.4724699683
30
0.0000000000
0
VERTEX
5
579
100
AcDbEntity
8
6
100
AcDbVertex
100
AcDb2dVertex
10
735.8596611581
20
415.2691610048
30
0.0000000000
0
VERTEX
5
57A
100
AcDbEntity
8
6
100
AcDbVertex
100
AcDb2dVertex
10
735.8596092574
20
416.0657217135
30
0.0000000000
0
VERTEX
5
57B
100
AcDbEntity
8
6
100
AcDbVertex
100
AcDb2dVertex
10
735.8551024350
20
416.8621026616
30
0.0000000000
0
VERTEX
5
57C
100
AcDbEntity
8
6
100
AcDbVertex
100
AcDb2dVertex
10
735.8461616275
20
417.6582545598
30
0.0000000000
0
VERTEX
5
57D
100
AcDbEntity
8
6
100
AcDbVertex
100
AcDb2dVertex
10
735.8328080605
20
418.4541282645
30
0.0000000000
0
VERTEX
5
57E
100
AcDbEntity
8
6
100
AcDbVertex
100
AcDb2dVertex
10
735.8150632467
20
419.2496747808
30
0.0000000000
0
VERTEX
5
57F
100
AcDbEntity
8
6
100
AcDbVertex
100
AcDb2dVertex
10
735.7929489837
20
420.0448452652
30
0.0000000000
0
VERTEX
5
580
100
AcDbEntity
8
6
100
AcDbVertex
100
AcDb2dVertex
10
735.7664873528
20
420.8395910283
30
0.0000000000
0
VERTEX
5
581
100
AcDbEntity
8
6
100
AcDbVertex
100
AcDb2dVertex
10
735.7357007165
20
421.6338635375
30
0.0000000000
0
VERTEX
5
582
100
AcDbEntity
8
6
100
AcDbVertex
100
AcDb2dVertex
10
736.2016645029
20
422.0975445699
30
0.0000000000
0
VERTEX
5
583
100
AcDbEntity
8
6
100
AcDbVertex
100
AcDb2dVertex
10
736.6676479562
20
422.5672286225
30
0.0000000000
0
VERTEX
5
584
100
AcDbEntity
8
6
100
AcDbVertex
100
AcDb2dVertex
10
737.1336096058
20
423.0429096442
30
0.0000000000
0
VERTEX
5
585
100
AcDbEntity
8
6
100
AcDbVertex
100
AcDb2dVertex
10
737.5995078903
20
423.5245811861
30
0.0000000000
0
VERTEX
5
586
100
AcDbEntity
8
6
100
AcDbVertex
100
AcDb2dVertex
10
738.0653011604
20
424.0122364011
30
0.0000000000
0
VERTEX
5
587
100
AcDbEntity
8
6
100
AcDbVertex
100
AcDb2dVertex
10
738.5309476815
20
424.5058680431
30
0.0000000000
0
VERTEX
5
588
100
AcDbEntity
8
6
100
AcDbVertex
100
AcDb2dVertex
10
738.9964056365
20
425.0054684675
30
0.0000000000
0
VERTEX
5
589
100
AcDbEntity
8
6
100
AcDbVertex
100
AcDb2dVertex
10
739.4616331284
20
425.5110296305
30
0.0000000000
0
VERTEX
5
58A
100
AcDbEntity
8
6
100
AcDbVertex
100
AcDb2dVertex
10
739.9265881833
20
426.0225430889
30
0.0000000000
0
VERTEX
5
58B
100
AcDbEntity
8
6
100
AcDbVertex
100
AcDb2dVertex
10
740.3912287527
20
426.5400000000
30
0.0000000000
0
VERTEX
5
58C
100
AcDbEntity
8
6
100
AcDbVertex
100
AcDb2dVertex
10
740.8555127167
20
427.0633911214
30
0.0000000000
0
VERTEX
5
58D
100
AcDbEntity
8
6
100
AcDbVertex
100
AcDb2dVertex
10
741.3193978866
20
427.5927068108
30
0.0000000000
0
VERTEX
5
58E
100
AcDbEntity
8
6
100
AcDbVertex
100
AcDb2dVertex
10
741.7828420074
20
428.1279370259
30
0.0000000000
0
VERTEX
5
58F
100
AcDbEntity
8
6
100
AcDbVertex
100
AcDb2dVertex
10
742.2458027611
20
428.6690713242
30
0.0000000000
0
VERTEX
5
590
100
AcDbEntity
8
6
100
AcDbVertex
100
AcDb2dVertex
10
742.7082377689
20
429.2160988630
30
0.0000000000
0
VERTEX
5
591
100
AcDbEntity
8
6
100
AcDbVertex
100
AcDb2dVertex
10
743.1701045944
20
429.7690083994
30
0.0000000000
0
VERTEX
5
592
100
AcDbEntity
8
6
100
AcDbVertex
100
AcDb2dVertex
10
743.6313607462
20
430.3277882900
30
0.0000000000
0
VERTEX
5
593
100
AcDbEntity
8
6
100
AcDbVertex
100
AcDb2dVertex
10
744.0919636808
20
430.8924264914
30
0.0000000000
0
VERTEX
5
594
100
AcDbEntity
8
6
100
AcDbVertex
100
AcDb2dVertex
10
744.5518708052
20
431.4629105596
30
0.0000000000
0
VERTEX
5
595
100
AcDbEntity
8
6
100
AcDbVertex
100
AcDb2dVertex
10
745.0110394801
20
432.0392276502
30
0.0000000000
0
VERTEX
5
596
100
AcDbEntity
8
6
100
AcDbVertex
100
AcDb2dVertex
10
744.9295780516
20
432.8832100633
30
0.0000000000
0
VERTEX
5
597
100
AcDbEntity
8
6
100
AcDbVertex
100
AcDb2dVertex
10
744.8438883657
20
433.7259208372
30
0.0000000000
0
VERTEX
5
598
100
AcDbEntity
8
6
100
AcDbVertex
100
AcDb2dVertex
10
744.7539972548
20
434.5673127320
30
0.0000000000
0
VERTEX
5
599
100
AcDbEntity
8
6
100
AcDbVertex
100
AcDb2dVertex
10
744.6599318039
20
435.4073387165
30
0.0000000000
0
VERTEX
5
59A
100
AcDbEntity
8
6
100
AcDbVertex
100
AcDb2dVertex
10
744.5617193480
20
436.2459519700
30
0.0000000000
0
VERTEX
5
59B
100
AcDbEntity
8
6
100
AcDbVertex
100
AcDb2dVertex
10
744.4593874701
20
437.0831058853
30
0.0000000000
0
VERTEX
5
59C
100
AcDbEntity
8
6
100
AcDbVertex
100
AcDb2dVertex
10
744.3529639995
20
437.9187540708
30
0.0000000000
0
VERTEX
5
59D
100
AcDbEntity
8
6
100
AcDbVertex
100
AcDb2dVertex
10
744.2424770088
20
438.7528503530
30
0.0000000000
0
VERTEX
5
59E
100
AcDbEntity
8
6
100
AcDbVertex
100
AcDb2dVertex
10
744.1279548122
20
439.5853487793
30
0.0000000000
0
VERTEX
5
59F
100
AcDbEntity
8
6
100
AcDbVertex
100
AcDb2dVertex
10
744.0094259633
20
440.4162036199
30
0.0000000000
0
VERTEX
5
5A0
100
AcDbEntity
8
6
100
AcDbVertex
100
AcDb2dVertex
10
743.8869192524
20
441.2453693702
30
0.0000000000
0
VERTEX
5
5A1
100
AcDbEntity
8
6
100
AcDbVertex
100
AcDb2dVertex
10
743.7604637049
20
442.0728007538
30
0.0000000000
0
VERTEX
5
5A2
100
AcDbEntity
8
6
100
AcDbVertex
100
AcDb2dVertex
10
743.6300885785
20
442.8984527242
30
0.0000000000
0
VERTEX
5
5A3
100
AcDbEntity
8
6
100
AcDbVertex
100
AcDb2dVertex
10
743.4958233613
20
443.7222804672
30
0.0000000000
0
VERTEX
5
5A4
100
AcDbEntity
8
6
100
AcDbVertex
100
AcDb2dVertex
10
743.3576977693
20
444.5442394038
30
0.0000000000
0
VERTEX
5
5A5
100
AcDbEntity
8
6
100
AcDbVertex
100
AcDb2dVertex
10
743.2157417439
20
445.3642851916
30
0.0000000000
0
VERTEX
5
5A6
100
AcDbEntity
8
6
100
AcDbVertex
100
AcDb2dVertex
10
743.0699854503
20
446.1823737281
30
0.0000000000
0
VERTEX
5
5A7
100
AcDbEntity
8
6
100
AcDbVertex
100
AcDb2dVertex
10
742.9204592743
20
446.9984611520
30
0.0000000000
0
VERTEX
5
5A8
100
AcDbEntity
8
6
100
AcDbVertex
100
AcDb2dVertex
10
742.7671938206
20
447.8125038463
30
0.0000000000
0
VERTEX
5
5A9
100
AcDbEntity
8
6
100
AcDbVertex
100
AcDb2dVertex
10
742.6102199101
20
448.6244584399
30
0.0000000000
0
VERTEX
5
5AA
100
AcDbEntity
8
6
100
AcDbVertex
100
AcDb2dVertex
10
743.0189767674
20
449.2451408212
30
0.0000000000
0
VERTEX
5
5AB
100
AcDbEntity
8
6
100
AcDbVertex
100
AcDb2dVertex
10
743.4265388900
20
449.8711106918
30
0.0000000000
0
VERTEX
5
5AC
100
AcDbEntity
8
6
100
AcDbVertex
100
AcDb2dVertex
10
743.8328644014
20
450.5023492597
30
0.0000000000
0
VERTEX
5
5AD
100
AcDbEntity
8
6
100
AcDbVertex
100
AcDb2dVertex
10
744.2379114263
20
451.1388373468
30
0.0000000000
0
VERTEX
5
5AE
100
AcDbEntity
8
6
100
AcDbVertex
100
AcDb2dVertex
10
744.6416380931
20
451.7805553902
30
0.0000000000
0
VERTEX
5
5AF
100
AcDbEntity
8
6
100
AcDbVertex
100
AcDb2dVertex
10
745.0440025368
20
452.4274834421
30
0.0000000000
0
VERTEX
5
5B0
100
AcDbEntity
8
6
100
AcDbVertex
100
AcDb2dVertex
10
745.4449629021
20
453.0796011705
30
0.0000000000
0
VERTEX
5
5B1
100
AcDbEntity
8
6
100
AcDbVertex
100
AcDb2dVertex
10
745.8444773459
20
453.7368878599
30
0.0000000000
0
VERTEX
5
5B2
100
AcDbEntity
8
6
100
AcDbVertex
100
AcDb2dVertex
10
746.2425040405
20
454.3993224118
30
0.0000000000
0
VERTEX
5
5B3
100
AcDbEntity
8
6
100
AcDbVertex
100
AcDb2dVertex
10
746.6390011761
20
455.0668833453
30
0.0000000000
0
VERTEX
5
5B4
100
AcDbEntity
8
6
100
AcDbVertex
100
AcDb2dVertex
10
747.0339269639
20
455.7395487975
30
0.0000000000
0
VERTEX
5
5B5
100
AcDbEntity
8
6
100
AcDbVertex
100
AcDb2dVertex
10
747.4272396389
20
456.4172965247
30
0.0000000000
0
VERTEX
5
5B6
100
AcDbEntity
8
6
100
AcDbVertex
100
AcDb2dVertex
10
747.8188974626
20
457.1001039024
30
0.0000000000
0
VERTEX
5
5B7
100
AcDbEntity
8
6
100
AcDbVertex
100
AcDb2dVertex
10
748.2088587261
20
457.7879479265
30
0.0000000000
0
VERTEX
5
5B8
100
AcDbEntity
8
6
100
AcDbVertex
100
AcDb2dVertex
10
748.5970817529
20
458.4808052137
30
0.0000000000
0
VERTEX
5
5B9
100
AcDbEntity
8
6
100
AcDbVertex
100
AcDb2dVertex
10
748.9835249015
20
459.1786520026
30
0.0000000000
0
VERTEX
5
5BA
100
AcDbEntity
8
6
100
AcDbVertex
100
AcDb2dVertex
10
749.3681465686
20
459.8814641540
30
0.0000000000
0
VERTEX
5
5BB
100
AcDbEntity
8
6
100
AcDbVertex
100
AcDb2dVertex
10
749.7509051917
20
460.5892171521
30
0.0000000000
0
VERTEX
5
5BC
100
AcDbEntity
8
6
100
AcDbVertex
100
AcDb2dVertex
10
750.1317592520
20
461.3018861050
30
0.0000000000
0
VERTEX
5
5BD
100
AcDbEntity
8
6
100
AcDbVertex
100
AcDb2dVertex
10
750.5106672776
20
462.0194457459
30
0.0000000000
0
VERTEX
5
5BE
100
AcDbEntity
8
6
100
AcDbVertex
100
AcDb2dVertex
10
750.2983631692
20
462.8550706122
30
0.0000000000
0
VERTEX
5
5BF
100
AcDbEntity
8
6
100
AcDbVertex
100
AcDb2dVertex
10
750.0825736972
20
463.6878167836
30
0.0000000000
0
VERTEX
5
5C0
100
AcDbEntity
8
6
100
AcDbVertex
100
AcDb2dVertex
10
749.8633333613
20
464.5176438215
30
0.0000000000
0
VERTEX
5
5C1
100
AcDbEntity
8
6
100
AcDbVertex
100
AcDb2dVertex
10
749.6406768398
20
465.3445115778
30
0.0000000000
0
VERTEX
5
5C2
100
AcDbEntity
8
6
100
AcDbVertex
100
AcDb2dVertex
10
749.4146389867
20
466.1683801968
30
0.0000000000
0
VERTEX
5
5C3
100
AcDbEntity
8
6
100
AcDbVertex
100
AcDb2dVertex
10
749.1852548295
20
466.9892101170
30
0.0000000000
0
VERTEX
5
5C4
100
AcDbEntity
8
6
100
AcDbVertex
100
AcDb2dVertex
10
748.9525595664
20
467.8069620731
30
0.0000000000
0
VERTEX
5
5C5
100
AcDbEntity
8
6
100
AcDbVertex
100
AcDb2dVertex
10
748.7165885638
20
468.6215970977
30
0.0000000000
0
VERTEX
5
5C6
100
AcDbEntity
8
6
100
AcDbVertex
100
AcDb2dVertex
10
748.4773773535
20
469.4330765234
30
0.0000000000
0
VERTEX
5
5C7
100
AcDbEntity
8
6
100
AcDbVertex
100
AcDb2dVertex
10
748.2349616303
20
470.2413619842
30
0.0000000000
0
VERTEX
5
5C8
100
AcDbEntity
8
6
100
AcDbVertex
100
AcDb2dVertex
10
747.9893772495
20
471.0464154179
30
0.0000000000
0
VERTEX
5
5C9
100
AcDbEntity
8
6
100
AcDbVertex
100
AcDb2dVertex
10
747.7406602238
20
471.8481990672
30
0.0000000000
0
VERTEX
5
5CA
100
AcDbEntity
8
6
100
AcDbVertex
100
AcDb2dVertex
10
747.4888467212
20
472.6466754819
30
0.0000000000
0
VERTEX
5
5CB
100
AcDbEntity
8
6
100
AcDbVertex
100
AcDb2dVertex
10
747.2339730619
20
473.4418075206
30
0.0000000000
0
VERTEX
5
5CC
100
AcDbEntity
8
6
100
AcDbVertex
100
AcDb2dVertex
10
746.9760757161
20
474.2335583523
30
0.0000000000
0
VERTEX
5
5CD
100
AcDbEntity
8
6
100
AcDbVertex
100
AcDb2dVertex
10
746.7151913009
20
475.0218914581
30
0.0000000000
0
VERTEX
5
5CE
100
AcDbEntity
8
6
100
AcDbVertex
100
AcDb2dVertex
10
746.4513565780
20
475.8067706329
30
0.0000000000
0
VERTEX
5
5CF
100
AcDbEntity
8
6
100
AcDbVertex
100
AcDb2dVertex
10
746.1846084507
20
476.5881599871
30
0.0000000000
0
VERTEX
5
5D0
100
AcDbEntity
8
6
100
AcDbVertex
100
AcDb2dVertex
10
745.9149839616
20
477.3660239481
30
0.0000000000
0
VERTEX
5
5D1
100
AcDbEntity
8
6
100
AcDbVertex
100
AcDb2dVertex
10
745.6425202896
20
478.1403272623
30
0.0000000000
0
VERTEX
5
5D2
100
AcDbEntity
8
6
100
AcDbVertex
100
AcDb2dVertex
10
745.9662141135
20
478.8757125140
30
0.0000000000
0
VERTEX
5
5D3
100
AcDbEntity
8
6
100
AcDbVertex
100
AcDb2dVertex
10
746.2875802201
20
479.6153093906
30
0.0000000000
0
VERTEX
5
5D4
100
AcDbEntity
8
6
100
AcDbVertex
100
AcDb2dVertex
10
746.6065791813
20
480.3590876393
30
0.0000000000
0
VERTEX
5
5D5
100
AcDbEntity
8
6
100
AcDbVertex
100
AcDb2dVertex
10
746.9231716613
20
481.1070166604
30
0.0000000000
0
VERTEX
5
5D6
100
AcDbEntity
8
6
100
AcDbVertex
100
AcDb2dVertex
10
747.2373184196
20
481.8590655081
30
0.0000000000
0
VERTEX
5
5D7
100
AcDbEntity
8
6
100
AcDbVertex
100
AcDb2dVertex
10
747.5489803140
20
482.6152028921
30
0.0000000000
0
VERTEX
5
5D8
100
AcDbEntity
8
6
100
AcDbVertex
100
AcDb2dVertex
10
747.8581183033
20
483.3753971790
30
0.0000000000
0
VERTEX
5
5D9
100
AcDbEntity
8
6
100
AcDbVertex
100
AcDb2dVertex
10
748.1646934499
20
484.1396163932
30
0.0000000000
0
VERTEX
5
5DA
100
AcDbEntity
8
6
100
AcDbVertex
100
AcDb2dVertex
10
748.4686669228
20
484.9078282186
30
0.0000000000
0
VERTEX
5
5DB
100
AcDbEntity
8
6
100
AcDbVertex
100
AcDb2dVertex
10
748.7700000000
20
485.6800000000
30
0.0000000000
0
SEQEND
5
5DC
100
AcDbEntity
8
6
0
POLYLINE
5
5DD
100
AcDbEntity
8
7
6
DASHDOT
62
60
420
4448256
370
120
100
AcDb2dPolyline
66
1
70
1
10
0.0000000000
20
0.0000000000
30
0.0000000000
999
UNIVERSITYCAD_LTYPE:6
0
VERTEX
5
5DE
100
AcDbEntity
8
7
100
AcDbVertex
100
AcDb2dVertex
10
1067.6200000000
20
664.3300000000
30
0.0000000000
0
VERTEX
5
5DF
100
AcDbEntity
8
7
100
AcDbVertex
100
AcDb2dVertex
10
953.0937743077
20
581.1218264626
30
0.0000000000
0
VERTEX
5
5E0
100
AcDbEntity
8
7
100
AcDbVertex
100
AcDb2dVertex
10
996.8388999189
20
446.4881735374
30
0.0000000000
0
VERTEX
5
5E1
100
AcDbEntity
8
7
100
AcDbVertex
100
AcDb2dVertex
10
1138.4011000811
20
446.4881735374
30
0.0000000000
0
VERTEX
5
5E2
100
AcDbEntity
8
7
100
AcDbVertex
100
AcDb2dVertex
10
1182.1462256923
20
581.1218264626
30
0.0000000000
0
SEQEND
5
5E3
100
AcDbEntity
8
7
0
LINE
5
5E4
100
AcDbEntity
8
8
6
DIVIDE
62
30
420
14578463
370
30
100
AcDbLine
10
317.1900000000
20
156.8600000000
30
0.0000000000
11
1029.0900000000
21
258.6700000000
31
0.0000000000
999
UNIVERSITYCAD_LTYPE:7
0
ENDSEC
0
SECTION
2
OBJECTS
0
DICTIONARY
5
5E5
100
AcDbDictionary
281
1
0
ENDSEC
0
EOF
