<?xml version="1.0" encoding="UTF-8"?>
<svg id="Layer_2" data-name="Layer 2" xmlns="http://www.w3.org/2000/svg" viewBox="0 0 50 50">
  <g id="Icon">
    <g>
      <path fill="#F92672" d="M47.5,50H2.5c-1.38071,0-2.5-1.11929-2.5-2.5V2.5C0,1.11929,1.11929,0,2.5,0h0c1.38071,0,2.5,1.11929,2.5,2.5v40.00001c0,1.38071,1.11929,2.5,2.5,2.5h40.00001c1.38071,0,2.5,1.11929,2.5,2.5h0c0,1.38072-1.11929,2.5-2.5,2.5Z"/>
      <path fill="#F92672" d="M43.07874,31.0072c-1.19574-.69043-2.72473-.2807-3.4151.91504l-1.98218,3.43341-.08392.02246c-3.88379-10.55029-12.21515-18.93512-22.73212-22.88733l.10028-.17365,3.82947-1.02606c1.33368-.3573,2.12518-1.72821,1.76776-3.06183v-.00006c-.35742-1.33362-1.72827-2.12512-3.06195-1.76776l-9.65942,2.58807c-.15863.04254-.3125.10156-.46033.17444-.06689.03296-.125.0769-.18787.11523-.07623.04626-.15479.08783-.22607.14252-.07092.05444-.13098.1192-.19513.18048-.05377.05115-.11169.09637-.16119.15283-.21716.24774-.38354.53595-.4895.8479-.02417.07111-.03436.14386-.05182.216-.02094.08618-.04706.17065-.05872.25922-.01172.08911-.00842.17792-.01038.26703-.00177.07361-.0108.146-.00586.22034.0108.16443.03656.32727.0791.48584l2.58832,9.65942c.35742,1.33362,1.72833,2.12512,3.06195,1.76782l.00006-.00006c1.33368-.3573,2.12512-1.72815,1.76776-3.06183l-.93726-3.4975c9.22211,3.29364,16.6048,10.48102,20.1463,19.5835l-3.28241-1.89526c-1.19574-.69037-2.72479-.28064-3.4151.9151s-.28064,2.72473.9151,3.41516l8.66034,5.00018c.14221.08209.29279.14917.44879.20215.07056.02399.14276.03406.21436.05139.08661.02112.17151.0473.26062.05908.08862.0116.17694.0083.26556.01031.07422.00189.14716.0108.22211.00592.32874-.02161.65015-.10773.94562-.25342.06738-.0332.12604-.07739.18945-.11615.07574-.04608.15387-.08734.22479-.14172.07129-.05475.13171-.11987.19617-.18146.05328-.05084.11084-.09564.15991-.15167.10864-.1239.20557-.25732.28766-.39948l4.99994-8.66046c.69031-1.1958.28064-2.72479-.9151-3.41516Z"/>
    </g>
  </g>
</svg>