<?xml version="1.0" encoding="UTF-8"?>
<svg id="Layer_2" data-name="Layer 2" xmlns="http://www.w3.org/2000/svg" viewBox="0 0 50 50">
  <defs>
    <style>
      .cls-1 {
        fill: none;
      }
    </style>
  </defs>
  <g id="Icon">
    <rect class="cls-1" width="50" height="50"/>
    <path fill="#F92672" d="M50,10c0-2.76141-2.23859-5-5-5-1.84601,0-3.44031,1.01178-4.30646,2.5H4.49762c-1.10327,0-1.99762.89435-1.99762,1.99762v26.19592c-1.48822.86615-2.5,2.46045-2.5,4.30646,0,2.76141,2.23859,5,5,5,1.84601,0,3.44031-1.01178,4.30646-2.5h36.19592c1.10327,0,1.99762-.89441,1.99762-1.99762V14.30646c1.48822-.86615,2.5-2.46045,2.5-4.30646ZM41.49707,37.5H9.30646c-.43665-.75018-1.05627-1.36981-1.80646-1.80646V13.50293c0-.55389.44904-1.00293,1.00293-1.00293h32.19061c.43665.75018,1.05627,1.36981,1.80646,1.80646v22.19061c0,.55389-.44904,1.00293-1.00293,1.00293Z"/>
  </g>
</svg>