<?xml version="1.0" encoding="UTF-8"?>
<svg id="Layer_2" data-name="Layer 2" xmlns="http://www.w3.org/2000/svg" viewBox="0 0 50 50">
  <g id="Icon">
    <path fill="#F92672" d="M25,0C11.19287,0,0,11.19287,0,25s11.19287,25,25,25,25-11.19287,25-25S38.80713,0,25,0ZM25,42.5c-7.40527,0-14.03711-4.68848-16.50342-11.66699-.46045-1.30176.22217-2.73047,1.52393-3.19043,1.30322-.45605,2.73047.22266,3.18994,1.52441,1.76172,4.98438,6.49951,8.33301,11.78955,8.33301,6.89258,0,12.5-5.60742,12.5-12.5s-5.60742-12.5-12.5-12.5c-4.52698,0-8.64337,2.45752-10.84265,6.28918l1.39673.8064c.31128.17975.31128.62903,0,.80878l-7.05627,4.07397c-.31128.17969-.70038-.04498-.70038-.40442v-8.14789c0-.35944.3891-.58411.70038-.40436l1.33252.76935c3.08069-5.35608,8.83832-8.79102,15.16968-8.79102,9.64941,0,17.5,7.85059,17.5,17.5s-7.85059,17.5-17.5,17.5Z"/>
  </g>
</svg>