<?xml version="1.0" encoding="UTF-8"?>
<svg id="Layer_2" data-name="Layer 2" xmlns="http://www.w3.org/2000/svg" viewBox="0 0 50 50">
  <g id="Icon">
    <path fill="#F92672" d="M25,0C11.19287,0,0,11.19287,0,25s11.19287,25,25,25,25-11.19287,25-25S38.80713,0,25,0ZM42.5,24.07391c0,.35944-.3891.58411-.70038.40442l-7.05627-4.07397c-.31128-.17975-.31128-.62903,0-.80878l1.39673-.8064c-2.19928-3.83167-6.31567-6.28918-10.84265-6.28918-6.89258,0-12.5,5.60742-12.5,12.5s5.60742,12.5,12.5,12.5c5.29004,0,10.02783-3.34863,11.78955-8.33301.45947-1.30176,1.88672-1.98047,3.18994-1.52441,1.30176.45996,1.98438,1.88867,1.52393,3.19043-2.46631,6.97852-9.09814,11.66699-16.50342,11.66699-9.64941,0-17.5-7.85059-17.5-17.5S15.64801,7.5,25.29742,7.5c6.33136,0,12.08899,3.43494,15.16968,8.79102l1.33252-.76935c.31128-.17975.70038.04492.70038.40436v8.14789Z"/>
  </g>
</svg>