<?xml version="1.0" encoding="UTF-8"?>
<svg id="Layer_2" data-name="Layer 2" xmlns="http://www.w3.org/2000/svg" viewBox="0 0 50 50">
  <defs>
    <style>
      .cls-1 {
        fill: none;
      }
    </style>
  </defs>
  <g id="Icon">
    <rect class="cls-1" width="50" height="50"/>
    <path fill="#F92672" d="M42.5,0c-4.14215,0-7.5,3.35785-7.5,7.5,0,1.15698.26965,2.24835.73755,3.22687l-25.01068,25.01068c-.97852-.4679-2.06989-.73755-3.22687-.73755-4.14215,0-7.5,3.35785-7.5,7.5s3.35785,7.5,7.5,7.5,7.5-3.35785,7.5-7.5c0-1.15698-.26965-2.24841-.73755-3.22693l25.01062-25.01062c.97852.4679,2.06995.73755,3.22693.73755,4.14215,0,7.5-3.35785,7.5-7.5s-3.35785-7.5-7.5-7.5Z"/>
  </g>
</svg>