<?xml version="1.0" encoding="UTF-8"?>
<svg id="Layer_2" data-name="Layer 2" xmlns="http://www.w3.org/2000/svg" viewBox="0 0 50 50">
  <g id="Icon">
    <path fill="#F92672" d="M32.5,0C22.83502,0,15,7.83502,15,17.5c0,3.92999,1.31122,7.54492,3.49841,10.46606L.73224,45.73224c-.97632.97632-.97632,2.5592,0,3.53552s2.5592.97632,3.53552,0l17.76617-17.76617c2.92114,2.18719,6.53607,3.49841,10.46606,3.49841,9.66498,0,17.5-7.83502,17.5-17.5S42.16498,0,32.5,0ZM42.5,20h-7.5v7.5c0,1.38068-1.11926,2.5-2.5,2.5s-2.5-1.11932-2.5-2.5v-7.5h-7.5c-1.38074,0-2.5-1.11932-2.5-2.5v-.00006c0-1.38068,1.11926-2.49994,2.5-2.49994h7.5v-7.50006c0-1.38068,1.11926-2.49994,2.5-2.49994s2.5,1.11926,2.5,2.5v7.5h7.5c1.38074,0,2.5,1.11926,2.5,2.49994v.00006c0,1.38068-1.11932,2.5-2.5,2.5Z"/>
  </g>
</svg>