<?xml version="1.0" encoding="UTF-8"?>
<svg id="Layer_2" data-name="Layer 2" xmlns="http://www.w3.org/2000/svg" viewBox="0 0 50 50">
  <g id="Icon">
    <g>
      <rect fill="#F92672" x="10" y="15.625" width="30" height="18.75" rx="1.61374" ry="1.61374"/>
      <path fill="#F92672" d="M47.35844,0H4.99806C2.23771,0,0,2.23858,0,5H0s0,12.35744,0,12.35744c0,1.30774.94062,2.4994,2.24135,2.62963,1.49588.14977,2.75671-1.02139,2.75671-2.48706V7.49736c0-1.37925,1.11767-2.49736,2.49639-2.49736h40.00652c1.46522,0,2.63588-1.26148,2.48608-2.75793C49.85681.9409,48.66562,0,47.35844,0Z"/>
      <path fill="#F92672" d="M47.2429,30.01294c-1.30088.13023-2.24162,1.32186-2.24161,2.62957v9.85496c0,1.38211-1.12013,2.50253-2.50188,2.50253H2.6419c-1.30735,0-2.4987.94089-2.62896,2.24207-.14982,1.49645,1.02099,2.75793,2.4864,2.75793h42.50195c2.76071,0,4.9987-2.23857,4.9987-5h0v-12.5c0-1.46575-1.26101-2.63684-2.7571-2.48706Z"/>
    </g>
  </g>
</svg>